<svg width="270" height="152" viewBox="0 0 270 152" fill="none" xmlns="http://www.w3.org/2000/svg">
<path d="M0 50C0 22.3858 22.3858 0 50 0H270V102C270 129.614 247.614 152 220 152H0V50Z" fill="#CEEBFB"/>
<path d="M41.25 44.706C41.25 45.222 41.142 45.684 40.926 46.092C40.722 46.5 40.44 46.848 40.08 47.136C39.732 47.412 39.318 47.628 38.838 47.784C38.358 47.928 37.848 48 37.308 48H31.206V35.22H37.794C38.238 35.22 38.64 35.316 39 35.508C39.36 35.7 39.666 35.952 39.918 36.264C40.17 36.564 40.362 36.912 40.494 37.308C40.638 37.692 40.71 38.082 40.71 38.478C40.71 39.102 40.548 39.69 40.224 40.242C39.912 40.782 39.462 41.184 38.874 41.448C39.606 41.664 40.182 42.06 40.602 42.636C41.034 43.2 41.25 43.89 41.25 44.706ZM39.18 44.328C39.18 44.064 39.132 43.812 39.036 43.572C38.952 43.332 38.832 43.122 38.676 42.942C38.532 42.762 38.352 42.618 38.136 42.51C37.92 42.402 37.686 42.348 37.434 42.348H33.222V46.254H37.308C37.572 46.254 37.818 46.206 38.046 46.11C38.274 46.002 38.472 45.864 38.64 45.696C38.808 45.516 38.94 45.312 39.036 45.084C39.132 44.844 39.18 44.592 39.18 44.328ZM33.222 36.966V40.728H36.93C37.182 40.728 37.41 40.68 37.614 40.584C37.83 40.488 38.016 40.362 38.172 40.206C38.34 40.038 38.466 39.84 38.55 39.612C38.646 39.384 38.694 39.132 38.694 38.856C38.694 38.304 38.538 37.854 38.226 37.506C37.914 37.146 37.518 36.966 37.038 36.966H33.222ZM43.6032 38.586H45.5472V41.7H47.2572C47.7132 41.7 48.1452 41.766 48.5532 41.898C48.9732 42.03 49.3392 42.234 49.6512 42.51C49.9632 42.774 50.2092 43.104 50.3892 43.5C50.5812 43.896 50.6772 44.352 50.6772 44.868C50.6772 45.396 50.5812 45.858 50.3892 46.254C50.2092 46.638 49.9632 46.962 49.6512 47.226C49.3392 47.49 48.9792 47.688 48.5712 47.82C48.1632 47.94 47.7312 48 47.2752 48H43.6032V38.586ZM51.6492 38.586H53.6112V48H51.6492V38.586ZM47.1492 46.398C47.6172 46.398 47.9892 46.272 48.2652 46.02C48.5532 45.768 48.6972 45.39 48.6972 44.886C48.6972 44.37 48.5472 43.98 48.2472 43.716C47.9472 43.44 47.5872 43.302 47.1672 43.302H45.5472V46.398H47.1492ZM59.9554 46.29H60.4774C60.7654 46.242 61.0054 46.134 61.1974 45.966C61.3894 45.786 61.5514 45.51 61.6834 45.138C61.8274 44.766 61.9474 44.28 62.0434 43.68C62.1514 43.068 62.2534 42.294 62.3494 41.358L62.6554 38.586H68.8654V46.29H70.0534V50.826H68.3254V48H61.6294V50.826H59.9554V46.29ZM66.9214 46.29V40.206H64.4374L64.2034 41.934C64.0474 43.074 63.8734 43.992 63.6814 44.688C63.5014 45.372 63.2674 45.906 62.9794 46.29H66.9214ZM76.1642 48.18C75.4322 48.18 74.7662 48.054 74.1662 47.802C73.5662 47.538 73.0502 47.184 72.6182 46.74C72.1982 46.296 71.8682 45.78 71.6282 45.192C71.4002 44.604 71.2862 43.98 71.2862 43.32C71.2862 42.66 71.4002 42.036 71.6282 41.448C71.8682 40.848 72.1982 40.326 72.6182 39.882C73.0502 39.426 73.5662 39.072 74.1662 38.82C74.7662 38.556 75.4382 38.424 76.1822 38.424C76.9142 38.424 77.5742 38.556 78.1622 38.82C78.7622 39.084 79.2722 39.438 79.6922 39.882C80.1122 40.314 80.4302 40.824 80.6462 41.412C80.8742 41.988 80.9882 42.594 80.9882 43.23C80.9882 43.374 80.9822 43.512 80.9702 43.644C80.9582 43.764 80.9462 43.866 80.9342 43.95H73.3922C73.4282 44.37 73.5242 44.748 73.6802 45.084C73.8482 45.42 74.0582 45.714 74.3102 45.966C74.5742 46.206 74.8682 46.392 75.1922 46.524C75.5282 46.656 75.8762 46.722 76.2362 46.722C76.5002 46.722 76.7582 46.692 77.0102 46.632C77.2742 46.56 77.5142 46.464 77.7302 46.344C77.9462 46.212 78.1382 46.056 78.3062 45.876C78.4742 45.696 78.6062 45.498 78.7022 45.282L80.3942 45.768C80.0702 46.476 79.5302 47.058 78.7742 47.514C78.0302 47.958 77.1602 48.18 76.1642 48.18ZM79.0262 42.582C78.9902 42.186 78.8882 41.82 78.7202 41.484C78.5642 41.148 78.3602 40.866 78.1082 40.638C77.8562 40.398 77.5622 40.212 77.2262 40.08C76.8902 39.948 76.5362 39.882 76.1642 39.882C75.7922 39.882 75.4382 39.948 75.1022 40.08C74.7782 40.212 74.4902 40.398 74.2382 40.638C73.9862 40.866 73.7822 41.148 73.6262 41.484C73.4702 41.82 73.3742 42.186 73.3382 42.582H79.0262ZM81.5275 46.344C81.8875 46.32 82.1875 46.242 82.4275 46.11C82.6675 45.966 82.8715 45.714 83.0395 45.354C83.2075 44.994 83.3455 44.496 83.4535 43.86C83.5735 43.224 83.6875 42.39 83.7955 41.358L84.1015 38.586H90.3115V48H88.3495V40.206H85.8655L85.6315 41.934C85.4635 43.146 85.2835 44.142 85.0915 44.922C84.8995 45.702 84.6535 46.326 84.3535 46.794C84.0655 47.25 83.7055 47.574 83.2735 47.766C82.8535 47.958 82.3375 48.066 81.7255 48.09L81.5275 46.344ZM95.397 48.18C94.941 48.18 94.515 48.108 94.119 47.964C93.735 47.808 93.399 47.598 93.111 47.334C92.835 47.07 92.613 46.758 92.445 46.398C92.289 46.038 92.211 45.648 92.211 45.228C92.211 44.784 92.307 44.382 92.499 44.022C92.691 43.662 92.961 43.35 93.309 43.086C93.669 42.822 94.089 42.618 94.569 42.474C95.061 42.33 95.601 42.258 96.189 42.258C96.633 42.258 97.071 42.3 97.503 42.384C97.935 42.456 98.325 42.558 98.673 42.69V42.042C98.673 41.346 98.475 40.806 98.079 40.422C97.683 40.026 97.113 39.828 96.369 39.828C95.865 39.828 95.367 39.924 94.875 40.116C94.395 40.296 93.897 40.56 93.381 40.908L92.769 39.648C93.981 38.832 95.241 38.424 96.549 38.424C97.845 38.424 98.853 38.754 99.573 39.414C100.293 40.074 100.653 41.022 100.653 42.258V45.66C100.653 46.08 100.827 46.296 101.175 46.308V48C100.983 48.036 100.815 48.06 100.671 48.072C100.539 48.084 100.407 48.09 100.275 48.09C99.891 48.09 99.591 47.994 99.375 47.802C99.171 47.61 99.045 47.364 98.997 47.064L98.943 46.47C98.523 47.022 98.001 47.448 97.377 47.748C96.765 48.036 96.105 48.18 95.397 48.18ZM95.937 46.722C96.417 46.722 96.867 46.638 97.287 46.47C97.719 46.29 98.055 46.044 98.295 45.732C98.547 45.516 98.673 45.288 98.673 45.048V43.806C98.337 43.674 97.977 43.572 97.593 43.5C97.221 43.428 96.855 43.392 96.495 43.392C95.787 43.392 95.205 43.548 94.749 43.86C94.305 44.16 94.083 44.562 94.083 45.066C94.083 45.534 94.257 45.93 94.605 46.254C94.953 46.566 95.397 46.722 95.937 46.722ZM107.519 48.18C106.787 48.18 106.121 48.054 105.521 47.802C104.921 47.538 104.405 47.184 103.973 46.74C103.553 46.296 103.223 45.78 102.983 45.192C102.755 44.604 102.641 43.98 102.641 43.32C102.641 42.66 102.755 42.036 102.983 41.448C103.223 40.848 103.553 40.326 103.973 39.882C104.405 39.426 104.921 39.072 105.521 38.82C106.121 38.556 106.793 38.424 107.537 38.424C108.269 38.424 108.929 38.556 109.517 38.82C110.117 39.084 110.627 39.438 111.047 39.882C111.467 40.314 111.785 40.824 112.001 41.412C112.229 41.988 112.343 42.594 112.343 43.23C112.343 43.374 112.337 43.512 112.325 43.644C112.313 43.764 112.301 43.866 112.289 43.95H104.747C104.783 44.37 104.879 44.748 105.035 45.084C105.203 45.42 105.413 45.714 105.665 45.966C105.929 46.206 106.223 46.392 106.547 46.524C106.883 46.656 107.231 46.722 107.591 46.722C107.855 46.722 108.113 46.692 108.365 46.632C108.629 46.56 108.869 46.464 109.085 46.344C109.301 46.212 109.493 46.056 109.661 45.876C109.829 45.696 109.961 45.498 110.057 45.282L111.749 45.768C111.425 46.476 110.885 47.058 110.129 47.514C109.385 47.958 108.515 48.18 107.519 48.18ZM110.381 42.582C110.345 42.186 110.243 41.82 110.075 41.484C109.919 41.148 109.715 40.866 109.463 40.638C109.211 40.398 108.917 40.212 108.581 40.08C108.245 39.948 107.891 39.882 107.519 39.882C107.147 39.882 106.793 39.948 106.457 40.08C106.133 40.212 105.845 40.398 105.593 40.638C105.341 40.866 105.137 41.148 104.981 41.484C104.825 41.82 104.729 42.186 104.693 42.582H110.381ZM117.891 48H115.947V40.296H112.887V38.586H120.951V40.296H117.891V48ZM126.476 48.18C125.744 48.18 125.078 48.054 124.478 47.802C123.878 47.538 123.362 47.184 122.93 46.74C122.51 46.296 122.18 45.78 121.94 45.192C121.712 44.604 121.598 43.98 121.598 43.32C121.598 42.66 121.712 42.036 121.94 41.448C122.18 40.848 122.51 40.326 122.93 39.882C123.362 39.426 123.878 39.072 124.478 38.82C125.078 38.556 125.75 38.424 126.494 38.424C127.226 38.424 127.886 38.556 128.474 38.82C129.074 39.084 129.584 39.438 130.004 39.882C130.424 40.314 130.742 40.824 130.958 41.412C131.186 41.988 131.3 42.594 131.3 43.23C131.3 43.374 131.294 43.512 131.282 43.644C131.27 43.764 131.258 43.866 131.246 43.95H123.704C123.74 44.37 123.836 44.748 123.992 45.084C124.16 45.42 124.37 45.714 124.622 45.966C124.886 46.206 125.18 46.392 125.504 46.524C125.84 46.656 126.188 46.722 126.548 46.722C126.812 46.722 127.07 46.692 127.322 46.632C127.586 46.56 127.826 46.464 128.042 46.344C128.258 46.212 128.45 46.056 128.618 45.876C128.786 45.696 128.918 45.498 129.014 45.282L130.706 45.768C130.382 46.476 129.842 47.058 129.086 47.514C128.342 47.958 127.472 48.18 126.476 48.18ZM129.338 42.582C129.302 42.186 129.2 41.82 129.032 41.484C128.876 41.148 128.672 40.866 128.42 40.638C128.168 40.398 127.874 40.212 127.538 40.08C127.202 39.948 126.848 39.882 126.476 39.882C126.104 39.882 125.75 39.948 125.414 40.08C125.09 40.212 124.802 40.398 124.55 40.638C124.298 40.866 124.094 41.148 123.938 41.484C123.782 41.82 123.686 42.186 123.65 42.582H129.338ZM137.219 39.576C137.627 39.192 138.077 38.904 138.569 38.712C139.073 38.52 139.607 38.424 140.171 38.424C140.591 38.424 140.975 38.478 141.323 38.586C141.683 38.694 141.989 38.85 142.241 39.054C142.505 39.246 142.709 39.492 142.853 39.792C142.997 40.08 143.069 40.41 143.069 40.782C143.069 41.31 142.925 41.766 142.637 42.15C142.361 42.522 141.971 42.744 141.467 42.816C142.151 42.924 142.679 43.2 143.051 43.644C143.423 44.076 143.609 44.622 143.609 45.282C143.609 45.714 143.519 46.11 143.339 46.47C143.171 46.818 142.931 47.124 142.619 47.388C142.307 47.64 141.935 47.838 141.503 47.982C141.071 48.114 140.597 48.18 140.081 48.18C138.725 48.18 137.675 47.724 136.931 46.812L137.921 45.498C138.413 46.17 139.109 46.506 140.009 46.506C140.549 46.506 140.963 46.392 141.251 46.164C141.551 45.924 141.701 45.576 141.701 45.12C141.701 44.076 140.951 43.554 139.451 43.554H138.785V42.258H139.451C140.027 42.258 140.477 42.138 140.801 41.898C141.125 41.658 141.287 41.34 141.287 40.944C141.287 40.62 141.167 40.368 140.927 40.188C140.699 39.996 140.387 39.9 139.991 39.9C139.343 39.9 138.719 40.164 138.119 40.692L137.219 39.576ZM148.034 48.18C147.578 48.18 147.152 48.108 146.756 47.964C146.372 47.808 146.036 47.598 145.748 47.334C145.472 47.07 145.25 46.758 145.082 46.398C144.926 46.038 144.848 45.648 144.848 45.228C144.848 44.784 144.944 44.382 145.136 44.022C145.328 43.662 145.598 43.35 145.946 43.086C146.306 42.822 146.726 42.618 147.206 42.474C147.698 42.33 148.238 42.258 148.826 42.258C149.27 42.258 149.708 42.3 150.14 42.384C150.572 42.456 150.962 42.558 151.31 42.69V42.042C151.31 41.346 151.112 40.806 150.716 40.422C150.32 40.026 149.75 39.828 149.006 39.828C148.502 39.828 148.004 39.924 147.512 40.116C147.032 40.296 146.534 40.56 146.018 40.908L145.406 39.648C146.618 38.832 147.878 38.424 149.186 38.424C150.482 38.424 151.49 38.754 152.21 39.414C152.93 40.074 153.29 41.022 153.29 42.258V45.66C153.29 46.08 153.464 46.296 153.812 46.308V48C153.62 48.036 153.452 48.06 153.308 48.072C153.176 48.084 153.044 48.09 152.912 48.09C152.528 48.09 152.228 47.994 152.012 47.802C151.808 47.61 151.682 47.364 151.634 47.064L151.58 46.47C151.16 47.022 150.638 47.448 150.014 47.748C149.402 48.036 148.742 48.18 148.034 48.18ZM148.574 46.722C149.054 46.722 149.504 46.638 149.924 46.47C150.356 46.29 150.692 46.044 150.932 45.732C151.184 45.516 151.31 45.288 151.31 45.048V43.806C150.974 43.674 150.614 43.572 150.23 43.5C149.858 43.428 149.492 43.392 149.132 43.392C148.424 43.392 147.842 43.548 147.386 43.86C146.942 44.16 146.72 44.562 146.72 45.066C146.72 45.534 146.894 45.93 147.242 46.254C147.59 46.566 148.034 46.722 148.574 46.722ZM161.613 38.586H163.773L160.083 43.158L164.043 48H161.829L158.751 44.112H157.869V48H155.925V38.586H157.869V42.51H158.607L161.613 38.586ZM167.817 48.18C167.361 48.18 166.935 48.108 166.539 47.964C166.155 47.808 165.819 47.598 165.531 47.334C165.255 47.07 165.033 46.758 164.865 46.398C164.709 46.038 164.631 45.648 164.631 45.228C164.631 44.784 164.727 44.382 164.919 44.022C165.111 43.662 165.381 43.35 165.729 43.086C166.089 42.822 166.509 42.618 166.989 42.474C167.481 42.33 168.021 42.258 168.609 42.258C169.053 42.258 169.491 42.3 169.923 42.384C170.355 42.456 170.745 42.558 171.093 42.69V42.042C171.093 41.346 170.895 40.806 170.499 40.422C170.103 40.026 169.533 39.828 168.789 39.828C168.285 39.828 167.787 39.924 167.295 40.116C166.815 40.296 166.317 40.56 165.801 40.908L165.189 39.648C166.401 38.832 167.661 38.424 168.969 38.424C170.265 38.424 171.273 38.754 171.993 39.414C172.713 40.074 173.073 41.022 173.073 42.258V45.66C173.073 46.08 173.247 46.296 173.595 46.308V48C173.403 48.036 173.235 48.06 173.091 48.072C172.959 48.084 172.827 48.09 172.695 48.09C172.311 48.09 172.011 47.994 171.795 47.802C171.591 47.61 171.465 47.364 171.417 47.064L171.363 46.47C170.943 47.022 170.421 47.448 169.797 47.748C169.185 48.036 168.525 48.18 167.817 48.18ZM168.357 46.722C168.837 46.722 169.287 46.638 169.707 46.47C170.139 46.29 170.475 46.044 170.715 45.732C170.967 45.516 171.093 45.288 171.093 45.048V43.806C170.757 43.674 170.397 43.572 170.013 43.5C169.641 43.428 169.275 43.392 168.915 43.392C168.207 43.392 167.625 43.548 167.169 43.86C166.725 44.16 166.503 44.562 166.503 45.066C166.503 45.534 166.677 45.93 167.025 46.254C167.373 46.566 167.817 46.722 168.357 46.722ZM175.169 39.576C175.577 39.192 176.027 38.904 176.519 38.712C177.023 38.52 177.557 38.424 178.121 38.424C178.541 38.424 178.925 38.478 179.273 38.586C179.633 38.694 179.939 38.85 180.191 39.054C180.455 39.246 180.659 39.492 180.803 39.792C180.947 40.08 181.019 40.41 181.019 40.782C181.019 41.31 180.875 41.766 180.587 42.15C180.311 42.522 179.921 42.744 179.417 42.816C180.101 42.924 180.629 43.2 181.001 43.644C181.373 44.076 181.559 44.622 181.559 45.282C181.559 45.714 181.469 46.11 181.289 46.47C181.121 46.818 180.881 47.124 180.569 47.388C180.257 47.64 179.885 47.838 179.453 47.982C179.021 48.114 178.547 48.18 178.031 48.18C176.675 48.18 175.625 47.724 174.881 46.812L175.871 45.498C176.363 46.17 177.059 46.506 177.959 46.506C178.499 46.506 178.913 46.392 179.201 46.164C179.501 45.924 179.651 45.576 179.651 45.12C179.651 44.076 178.901 43.554 177.401 43.554H176.735V42.258H177.401C177.977 42.258 178.427 42.138 178.751 41.898C179.075 41.658 179.237 41.34 179.237 40.944C179.237 40.62 179.117 40.368 178.877 40.188C178.649 39.996 178.337 39.9 177.941 39.9C177.293 39.9 176.669 40.164 176.069 40.692L175.169 39.576ZM190.089 42.33H194.373V38.586H196.317V48H194.373V44.004H190.089V48H188.145V38.586H190.089V42.33ZM201.409 48.18C200.953 48.18 200.527 48.108 200.131 47.964C199.747 47.808 199.411 47.598 199.123 47.334C198.847 47.07 198.625 46.758 198.457 46.398C198.301 46.038 198.223 45.648 198.223 45.228C198.223 44.784 198.319 44.382 198.511 44.022C198.703 43.662 198.973 43.35 199.321 43.086C199.681 42.822 200.101 42.618 200.581 42.474C201.073 42.33 201.613 42.258 202.201 42.258C202.645 42.258 203.083 42.3 203.515 42.384C203.947 42.456 204.337 42.558 204.685 42.69V42.042C204.685 41.346 204.487 40.806 204.091 40.422C203.695 40.026 203.125 39.828 202.381 39.828C201.877 39.828 201.379 39.924 200.887 40.116C200.407 40.296 199.909 40.56 199.393 40.908L198.781 39.648C199.993 38.832 201.253 38.424 202.561 38.424C203.857 38.424 204.865 38.754 205.585 39.414C206.305 40.074 206.665 41.022 206.665 42.258V45.66C206.665 46.08 206.839 46.296 207.187 46.308V48C206.995 48.036 206.827 48.06 206.683 48.072C206.551 48.084 206.419 48.09 206.287 48.09C205.903 48.09 205.603 47.994 205.387 47.802C205.183 47.61 205.057 47.364 205.009 47.064L204.955 46.47C204.535 47.022 204.013 47.448 203.389 47.748C202.777 48.036 202.117 48.18 201.409 48.18ZM201.949 46.722C202.429 46.722 202.879 46.638 203.299 46.47C203.731 46.29 204.067 46.044 204.307 45.732C204.559 45.516 204.685 45.288 204.685 45.048V43.806C204.349 43.674 203.989 43.572 203.605 43.5C203.233 43.428 202.867 43.392 202.507 43.392C201.799 43.392 201.217 43.548 200.761 43.86C200.317 44.16 200.095 44.562 200.095 45.066C200.095 45.534 200.269 45.93 200.617 46.254C200.965 46.566 201.409 46.722 201.949 46.722ZM35.418 71.18C34.674 71.18 34.002 71.048 33.402 70.784C32.814 70.52 32.31 70.166 31.89 69.722C31.47 69.278 31.146 68.762 30.918 68.174C30.69 67.574 30.576 66.95 30.576 66.302C30.576 65.654 30.69 65.036 30.918 64.448C31.146 63.848 31.47 63.326 31.89 62.882C32.322 62.438 32.832 62.084 33.42 61.82C34.02 61.556 34.686 61.424 35.418 61.424C36.15 61.424 36.81 61.556 37.398 61.82C37.998 62.084 38.508 62.438 38.928 62.882C39.36 63.326 39.69 63.848 39.918 64.448C40.146 65.036 40.26 65.654 40.26 66.302C40.26 66.95 40.146 67.574 39.918 68.174C39.69 68.762 39.36 69.278 38.928 69.722C38.508 70.166 37.998 70.52 37.398 70.784C36.81 71.048 36.15 71.18 35.418 71.18ZM32.61 66.32C32.61 66.776 32.682 67.196 32.826 67.58C32.97 67.964 33.168 68.3 33.42 68.588C33.672 68.864 33.966 69.086 34.302 69.254C34.65 69.41 35.022 69.488 35.418 69.488C35.814 69.488 36.18 69.41 36.516 69.254C36.864 69.086 37.164 68.858 37.416 68.57C37.668 68.282 37.866 67.946 38.01 67.562C38.154 67.178 38.226 66.758 38.226 66.302C38.226 65.858 38.154 65.444 38.01 65.06C37.866 64.664 37.668 64.322 37.416 64.034C37.164 63.746 36.864 63.524 36.516 63.368C36.18 63.2 35.814 63.116 35.418 63.116C35.034 63.116 34.668 63.2 34.32 63.368C33.984 63.536 33.69 63.764 33.438 64.052C33.186 64.34 32.982 64.682 32.826 65.078C32.682 65.462 32.61 65.876 32.61 66.32ZM41.5841 66.284C41.5841 65.624 41.6981 65 41.9261 64.412C42.1541 63.824 42.4781 63.308 42.8981 62.864C43.3301 62.42 43.8461 62.072 44.4461 61.82C45.0461 61.556 45.7181 61.424 46.4621 61.424C47.4341 61.424 48.2681 61.64 48.9641 62.072C49.6721 62.492 50.2001 63.056 50.5481 63.764L48.6221 64.376C48.3941 63.98 48.0881 63.674 47.7041 63.458C47.3201 63.23 46.8941 63.116 46.4261 63.116C46.0301 63.116 45.6581 63.194 45.3101 63.35C44.9741 63.506 44.6801 63.728 44.4281 64.016C44.1761 64.292 43.9781 64.622 43.8341 65.006C43.6901 65.39 43.6181 65.816 43.6181 66.284C43.6181 66.74 43.6901 67.166 43.8341 67.562C43.9901 67.946 44.1941 68.282 44.4461 68.57C44.7101 68.858 45.0101 69.086 45.3461 69.254C45.6941 69.41 46.0601 69.488 46.4441 69.488C46.6841 69.488 46.9241 69.458 47.1641 69.398C47.4041 69.326 47.6201 69.23 47.8121 69.11C48.0161 68.99 48.1901 68.852 48.3341 68.696C48.4901 68.54 48.6041 68.372 48.6761 68.192L50.6201 68.768C50.3081 69.476 49.7861 70.058 49.0541 70.514C48.3221 70.958 47.4581 71.18 46.4621 71.18C45.7301 71.18 45.0641 71.048 44.4641 70.784C43.8641 70.52 43.3481 70.166 42.9161 69.722C42.4961 69.266 42.1661 68.744 41.9261 68.156C41.6981 67.568 41.5841 66.944 41.5841 66.284ZM54.4108 65.33H58.6948V61.586H60.6388V71H58.6948V67.004H54.4108V71H52.4668V61.586H54.4108V65.33ZM67.458 71.18C66.714 71.18 66.042 71.048 65.442 70.784C64.854 70.52 64.35 70.166 63.93 69.722C63.51 69.278 63.186 68.762 62.958 68.174C62.73 67.574 62.616 66.95 62.616 66.302C62.616 65.654 62.73 65.036 62.958 64.448C63.186 63.848 63.51 63.326 63.93 62.882C64.362 62.438 64.872 62.084 65.46 61.82C66.06 61.556 66.726 61.424 67.458 61.424C68.19 61.424 68.85 61.556 69.438 61.82C70.038 62.084 70.548 62.438 70.968 62.882C71.4 63.326 71.73 63.848 71.958 64.448C72.186 65.036 72.3 65.654 72.3 66.302C72.3 66.95 72.186 67.574 71.958 68.174C71.73 68.762 71.4 69.278 70.968 69.722C70.548 70.166 70.038 70.52 69.438 70.784C68.85 71.048 68.19 71.18 67.458 71.18ZM64.65 66.32C64.65 66.776 64.722 67.196 64.866 67.58C65.01 67.964 65.208 68.3 65.46 68.588C65.712 68.864 66.006 69.086 66.342 69.254C66.69 69.41 67.062 69.488 67.458 69.488C67.854 69.488 68.22 69.41 68.556 69.254C68.904 69.086 69.204 68.858 69.456 68.57C69.708 68.282 69.906 67.946 70.05 67.562C70.194 67.178 70.266 66.758 70.266 66.302C70.266 65.858 70.194 65.444 70.05 65.06C69.906 64.664 69.708 64.322 69.456 64.034C69.204 63.746 68.904 63.524 68.556 63.368C68.22 63.2 67.854 63.116 67.458 63.116C67.074 63.116 66.708 63.2 66.36 63.368C66.024 63.536 65.73 63.764 65.478 64.052C65.226 64.34 65.022 64.682 64.866 65.078C64.722 65.462 64.65 65.876 64.65 66.32ZM79.4381 61.586C79.7741 61.586 80.0861 61.646 80.3741 61.766C80.6741 61.886 80.9261 62.054 81.1301 62.27C81.3461 62.474 81.5141 62.72 81.6341 63.008C81.7541 63.296 81.8141 63.602 81.8141 63.926C81.8141 64.334 81.7121 64.748 81.5081 65.168C81.3041 65.576 80.9561 65.882 80.4641 66.086C81.0041 66.242 81.4241 66.518 81.7241 66.914C82.0361 67.298 82.1921 67.796 82.1921 68.408C82.1921 69.236 81.9041 69.878 81.3281 70.334C80.7521 70.778 79.9901 71 79.0421 71H74.3081V61.586H79.4381ZM78.5741 65.564C78.9701 65.564 79.2821 65.456 79.5101 65.24C79.7501 65.012 79.8701 64.688 79.8701 64.268C79.8701 63.92 79.7741 63.626 79.5821 63.386C79.3901 63.146 79.0841 63.026 78.6641 63.026H76.2521V65.564H78.5741ZM78.8621 69.56C79.2821 69.56 79.6121 69.428 79.8521 69.164C80.1041 68.888 80.2301 68.564 80.2301 68.192C80.2301 67.82 80.1101 67.502 79.8701 67.238C79.6421 66.974 79.3181 66.842 78.8981 66.842H76.2521V69.56H78.8621ZM88.4204 71.18C87.6884 71.18 87.0224 71.054 86.4224 70.802C85.8224 70.538 85.3064 70.184 84.8744 69.74C84.4544 69.296 84.1244 68.78 83.8844 68.192C83.6564 67.604 83.5424 66.98 83.5424 66.32C83.5424 65.66 83.6564 65.036 83.8844 64.448C84.1244 63.848 84.4544 63.326 84.8744 62.882C85.3064 62.426 85.8224 62.072 86.4224 61.82C87.0224 61.556 87.6944 61.424 88.4384 61.424C89.1704 61.424 89.8304 61.556 90.4184 61.82C91.0184 62.084 91.5284 62.438 91.9484 62.882C92.3684 63.314 92.6864 63.824 92.9024 64.412C93.1304 64.988 93.2444 65.594 93.2444 66.23C93.2444 66.374 93.2384 66.512 93.2264 66.644C93.2144 66.764 93.2024 66.866 93.1904 66.95H85.6484C85.6844 67.37 85.7804 67.748 85.9364 68.084C86.1044 68.42 86.3144 68.714 86.5664 68.966C86.8304 69.206 87.1244 69.392 87.4484 69.524C87.7844 69.656 88.1324 69.722 88.4924 69.722C88.7564 69.722 89.0144 69.692 89.2664 69.632C89.5304 69.56 89.7704 69.464 89.9864 69.344C90.2024 69.212 90.3944 69.056 90.5624 68.876C90.7304 68.696 90.8624 68.498 90.9584 68.282L92.6504 68.768C92.3264 69.476 91.7864 70.058 91.0304 70.514C90.2864 70.958 89.4164 71.18 88.4204 71.18ZM91.2824 65.582C91.2464 65.186 91.1444 64.82 90.9764 64.484C90.8204 64.148 90.6164 63.866 90.3644 63.638C90.1124 63.398 89.8184 63.212 89.4824 63.08C89.1464 62.948 88.7924 62.882 88.4204 62.882C88.0484 62.882 87.6944 62.948 87.3584 63.08C87.0344 63.212 86.7464 63.398 86.4944 63.638C86.2424 63.866 86.0384 64.148 85.8824 64.484C85.7264 64.82 85.6304 65.186 85.5944 65.582H91.2824ZM101.647 65.33H105.931V61.586H107.875V71H105.931V67.004H101.647V71H99.7028V61.586H101.647V65.33ZM112.966 71.18C112.51 71.18 112.084 71.108 111.688 70.964C111.304 70.808 110.968 70.598 110.68 70.334C110.404 70.07 110.182 69.758 110.014 69.398C109.858 69.038 109.78 68.648 109.78 68.228C109.78 67.784 109.876 67.382 110.068 67.022C110.26 66.662 110.53 66.35 110.878 66.086C111.238 65.822 111.658 65.618 112.138 65.474C112.63 65.33 113.17 65.258 113.758 65.258C114.202 65.258 114.64 65.3 115.072 65.384C115.504 65.456 115.894 65.558 116.242 65.69V65.042C116.242 64.346 116.044 63.806 115.648 63.422C115.252 63.026 114.682 62.828 113.938 62.828C113.434 62.828 112.936 62.924 112.444 63.116C111.964 63.296 111.466 63.56 110.95 63.908L110.338 62.648C111.55 61.832 112.81 61.424 114.118 61.424C115.414 61.424 116.422 61.754 117.142 62.414C117.862 63.074 118.222 64.022 118.222 65.258V68.66C118.222 69.08 118.396 69.296 118.744 69.308V71C118.552 71.036 118.384 71.06 118.24 71.072C118.108 71.084 117.976 71.09 117.844 71.09C117.46 71.09 117.16 70.994 116.944 70.802C116.74 70.61 116.614 70.364 116.566 70.064L116.512 69.47C116.092 70.022 115.57 70.448 114.946 70.748C114.334 71.036 113.674 71.18 112.966 71.18ZM113.506 69.722C113.986 69.722 114.436 69.638 114.856 69.47C115.288 69.29 115.624 69.044 115.864 68.732C116.116 68.516 116.242 68.288 116.242 68.048V66.806C115.906 66.674 115.546 66.572 115.162 66.5C114.79 66.428 114.424 66.392 114.064 66.392C113.356 66.392 112.774 66.548 112.318 66.86C111.874 67.16 111.652 67.562 111.652 68.066C111.652 68.534 111.826 68.93 112.174 69.254C112.522 69.566 112.966 69.722 113.506 69.722ZM120.318 62.576C120.726 62.192 121.176 61.904 121.668 61.712C122.172 61.52 122.706 61.424 123.27 61.424C123.69 61.424 124.074 61.478 124.422 61.586C124.782 61.694 125.088 61.85 125.34 62.054C125.604 62.246 125.808 62.492 125.952 62.792C126.096 63.08 126.168 63.41 126.168 63.782C126.168 64.31 126.024 64.766 125.736 65.15C125.46 65.522 125.07 65.744 124.566 65.816C125.25 65.924 125.778 66.2 126.15 66.644C126.522 67.076 126.708 67.622 126.708 68.282C126.708 68.714 126.618 69.11 126.438 69.47C126.27 69.818 126.03 70.124 125.718 70.388C125.406 70.64 125.034 70.838 124.602 70.982C124.17 71.114 123.696 71.18 123.18 71.18C121.824 71.18 120.774 70.724 120.03 69.812L121.02 68.498C121.512 69.17 122.208 69.506 123.108 69.506C123.648 69.506 124.062 69.392 124.35 69.164C124.65 68.924 124.8 68.576 124.8 68.12C124.8 67.076 124.05 66.554 122.55 66.554H121.884V65.258H122.55C123.126 65.258 123.576 65.138 123.9 64.898C124.224 64.658 124.386 64.34 124.386 63.944C124.386 63.62 124.266 63.368 124.026 63.188C123.798 62.996 123.486 62.9 123.09 62.9C122.442 62.9 121.818 63.164 121.218 63.692L120.318 62.576ZM130.611 65.33H134.895V61.586H136.839V71H134.895V67.004H130.611V71H128.667V61.586H130.611V65.33ZM141.93 71.18C141.474 71.18 141.048 71.108 140.652 70.964C140.268 70.808 139.932 70.598 139.644 70.334C139.368 70.07 139.146 69.758 138.978 69.398C138.822 69.038 138.744 68.648 138.744 68.228C138.744 67.784 138.84 67.382 139.032 67.022C139.224 66.662 139.494 66.35 139.842 66.086C140.202 65.822 140.622 65.618 141.102 65.474C141.594 65.33 142.134 65.258 142.722 65.258C143.166 65.258 143.604 65.3 144.036 65.384C144.468 65.456 144.858 65.558 145.206 65.69V65.042C145.206 64.346 145.008 63.806 144.612 63.422C144.216 63.026 143.646 62.828 142.902 62.828C142.398 62.828 141.9 62.924 141.408 63.116C140.928 63.296 140.43 63.56 139.914 63.908L139.302 62.648C140.514 61.832 141.774 61.424 143.082 61.424C144.378 61.424 145.386 61.754 146.106 62.414C146.826 63.074 147.186 64.022 147.186 65.258V68.66C147.186 69.08 147.36 69.296 147.708 69.308V71C147.516 71.036 147.348 71.06 147.204 71.072C147.072 71.084 146.94 71.09 146.808 71.09C146.424 71.09 146.124 70.994 145.908 70.802C145.704 70.61 145.578 70.364 145.53 70.064L145.476 69.47C145.056 70.022 144.534 70.448 143.91 70.748C143.298 71.036 142.638 71.18 141.93 71.18ZM142.47 69.722C142.95 69.722 143.4 69.638 143.82 69.47C144.252 69.29 144.588 69.044 144.828 68.732C145.08 68.516 145.206 68.288 145.206 68.048V66.806C144.87 66.674 144.51 66.572 144.126 66.5C143.754 66.428 143.388 66.392 143.028 66.392C142.32 66.392 141.738 66.548 141.282 66.86C140.838 67.16 140.616 67.562 140.616 68.066C140.616 68.534 140.79 68.93 141.138 69.254C141.486 69.566 141.93 69.722 142.47 69.722ZM156.32 71H154.376V67.436C154.1 67.532 153.818 67.604 153.53 67.652C153.242 67.688 152.84 67.706 152.324 67.706C151.772 67.706 151.304 67.616 150.92 67.436C150.536 67.256 150.218 67.016 149.966 66.716C149.726 66.416 149.546 66.068 149.426 65.672C149.318 65.276 149.264 64.862 149.264 64.43V61.586H151.19V64.088C151.19 64.832 151.328 65.348 151.604 65.636C151.892 65.924 152.288 66.068 152.792 66.068C153.212 66.068 153.542 66.032 153.782 65.96C154.034 65.888 154.232 65.792 154.376 65.672V61.586H156.32V71ZM163.179 71.18C162.447 71.18 161.781 71.054 161.181 70.802C160.581 70.538 160.065 70.184 159.633 69.74C159.213 69.296 158.883 68.78 158.643 68.192C158.415 67.604 158.301 66.98 158.301 66.32C158.301 65.66 158.415 65.036 158.643 64.448C158.883 63.848 159.213 63.326 159.633 62.882C160.065 62.426 160.581 62.072 161.181 61.82C161.781 61.556 162.453 61.424 163.197 61.424C163.929 61.424 164.589 61.556 165.177 61.82C165.777 62.084 166.287 62.438 166.707 62.882C167.127 63.314 167.445 63.824 167.661 64.412C167.889 64.988 168.003 65.594 168.003 66.23C168.003 66.374 167.997 66.512 167.985 66.644C167.973 66.764 167.961 66.866 167.949 66.95H160.407C160.443 67.37 160.539 67.748 160.695 68.084C160.863 68.42 161.073 68.714 161.325 68.966C161.589 69.206 161.883 69.392 162.207 69.524C162.543 69.656 162.891 69.722 163.251 69.722C163.515 69.722 163.773 69.692 164.025 69.632C164.289 69.56 164.529 69.464 164.745 69.344C164.961 69.212 165.153 69.056 165.321 68.876C165.489 68.696 165.621 68.498 165.717 68.282L167.409 68.768C167.085 69.476 166.545 70.058 165.789 70.514C165.045 70.958 164.175 71.18 163.179 71.18ZM166.041 65.582C166.005 65.186 165.903 64.82 165.735 64.484C165.579 64.148 165.375 63.866 165.123 63.638C164.871 63.398 164.577 63.212 164.241 63.08C163.905 62.948 163.551 62.882 163.179 62.882C162.807 62.882 162.453 62.948 162.117 63.08C161.793 63.212 161.505 63.398 161.253 63.638C161.001 63.866 160.797 64.148 160.641 64.484C160.485 64.82 160.389 65.186 160.353 65.582H166.041ZM171.778 65.33H176.062V61.586H178.006V71H176.062V67.004H171.778V71H169.834V61.586H171.778V65.33ZM182.575 68.192L187.399 61.586H188.911V71H186.967V64.538L182.233 71H180.631V61.586H182.575V68.192ZM198.733 57.86C198.709 58.58 198.439 59.126 197.923 59.498C197.407 59.87 196.729 60.056 195.889 60.056C195.049 60.056 194.371 59.87 193.855 59.498C193.339 59.126 193.063 58.58 193.027 57.86H194.161C194.185 58.34 194.341 58.676 194.629 58.868C194.929 59.048 195.349 59.138 195.889 59.138C196.417 59.138 196.825 59.048 197.113 58.868C197.413 58.676 197.581 58.34 197.617 57.86H198.733ZM193.495 68.192L198.319 61.586H199.831V71H197.887V64.538L193.153 71H191.551V61.586H193.495V68.192ZM36.39 84.586C36.726 84.586 37.038 84.646 37.326 84.766C37.626 84.886 37.878 85.054 38.082 85.27C38.298 85.474 38.466 85.72 38.586 86.008C38.706 86.296 38.766 86.602 38.766 86.926C38.766 87.334 38.664 87.748 38.46 88.168C38.256 88.576 37.908 88.882 37.416 89.086C37.956 89.242 38.376 89.518 38.676 89.914C38.988 90.298 39.144 90.796 39.144 91.408C39.144 92.236 38.856 92.878 38.28 93.334C37.704 93.778 36.942 94 35.994 94H31.26V84.586H36.39ZM35.526 88.564C35.922 88.564 36.234 88.456 36.462 88.24C36.702 88.012 36.822 87.688 36.822 87.268C36.822 86.92 36.726 86.626 36.534 86.386C36.342 86.146 36.036 86.026 35.616 86.026H33.204V88.564H35.526ZM35.814 92.56C36.234 92.56 36.564 92.428 36.804 92.164C37.056 91.888 37.182 91.564 37.182 91.192C37.182 90.82 37.062 90.502 36.822 90.238C36.594 89.974 36.27 89.842 35.85 89.842H33.204V92.56H35.814ZM46.4883 94.18C45.7323 94.18 45.0663 94 44.4903 93.64C43.9143 93.28 43.4583 92.812 43.1223 92.236V97.834H41.1423V84.586H42.8883V86.278C43.2483 85.714 43.7103 85.264 44.2743 84.928C44.8503 84.592 45.4983 84.424 46.2183 84.424C46.8663 84.424 47.4603 84.556 48.0003 84.82C48.5403 85.084 49.0083 85.438 49.4043 85.882C49.8003 86.326 50.1063 86.842 50.3223 87.43C50.5503 88.018 50.6643 88.636 50.6643 89.284C50.6643 89.968 50.5623 90.61 50.3583 91.21C50.1543 91.798 49.8663 92.314 49.4943 92.758C49.1223 93.19 48.6783 93.538 48.1623 93.802C47.6583 94.054 47.1003 94.18 46.4883 94.18ZM45.8403 92.488C46.2603 92.488 46.6383 92.398 46.9743 92.218C47.3223 92.038 47.6163 91.798 47.8563 91.498C48.1083 91.198 48.3003 90.856 48.4323 90.472C48.5643 90.088 48.6303 89.692 48.6303 89.284C48.6303 88.852 48.5523 88.444 48.3963 88.06C48.2523 87.676 48.0483 87.34 47.7843 87.052C47.5323 86.764 47.2263 86.536 46.8663 86.368C46.5063 86.2 46.1163 86.116 45.6963 86.116C45.4443 86.116 45.1803 86.164 44.9043 86.26C44.6283 86.356 44.3703 86.488 44.1303 86.656C43.8903 86.824 43.6803 87.022 43.5003 87.25C43.3203 87.466 43.1943 87.706 43.1223 87.97V90.436C43.2423 90.724 43.3983 90.994 43.5903 91.246C43.7823 91.498 43.9923 91.714 44.2203 91.894C44.4603 92.074 44.7183 92.218 44.9943 92.326C45.2703 92.434 45.5523 92.488 45.8403 92.488ZM55.1262 94.18C54.6702 94.18 54.2442 94.108 53.8482 93.964C53.4642 93.808 53.1282 93.598 52.8402 93.334C52.5642 93.07 52.3422 92.758 52.1742 92.398C52.0182 92.038 51.9402 91.648 51.9402 91.228C51.9402 90.784 52.0362 90.382 52.2282 90.022C52.4202 89.662 52.6902 89.35 53.0382 89.086C53.3982 88.822 53.8182 88.618 54.2982 88.474C54.7902 88.33 55.3302 88.258 55.9182 88.258C56.3622 88.258 56.8002 88.3 57.2322 88.384C57.6642 88.456 58.0542 88.558 58.4022 88.69V88.042C58.4022 87.346 58.2042 86.806 57.8082 86.422C57.4122 86.026 56.8422 85.828 56.0982 85.828C55.5942 85.828 55.0962 85.924 54.6042 86.116C54.1242 86.296 53.6262 86.56 53.1102 86.908L52.4982 85.648C53.7102 84.832 54.9702 84.424 56.2782 84.424C57.5742 84.424 58.5822 84.754 59.3022 85.414C60.0222 86.074 60.3822 87.022 60.3822 88.258V91.66C60.3822 92.08 60.5562 92.296 60.9042 92.308V94C60.7122 94.036 60.5442 94.06 60.4002 94.072C60.2682 94.084 60.1362 94.09 60.0042 94.09C59.6202 94.09 59.3202 93.994 59.1042 93.802C58.9002 93.61 58.7742 93.364 58.7262 93.064L58.6722 92.47C58.2522 93.022 57.7302 93.448 57.1062 93.748C56.4942 94.036 55.8342 94.18 55.1262 94.18ZM55.6662 92.722C56.1462 92.722 56.5962 92.638 57.0162 92.47C57.4482 92.29 57.7842 92.044 58.0242 91.732C58.2762 91.516 58.4022 91.288 58.4022 91.048V89.806C58.0662 89.674 57.7062 89.572 57.3222 89.5C56.9502 89.428 56.5842 89.392 56.2242 89.392C55.5162 89.392 54.9342 89.548 54.4782 89.86C54.0342 90.16 53.8122 90.562 53.8122 91.066C53.8122 91.534 53.9862 91.93 54.3342 92.254C54.6822 92.566 55.1262 92.722 55.6662 92.722ZM69.5159 94H67.5719V90.436C67.2959 90.532 67.0139 90.604 66.7259 90.652C66.4379 90.688 66.0359 90.706 65.5199 90.706C64.9679 90.706 64.4999 90.616 64.1159 90.436C63.7319 90.256 63.4139 90.016 63.1619 89.716C62.9219 89.416 62.7419 89.068 62.6219 88.672C62.5139 88.276 62.4599 87.862 62.4599 87.43V84.586H64.3859V87.088C64.3859 87.832 64.5239 88.348 64.7999 88.636C65.0879 88.924 65.4839 89.068 65.9879 89.068C66.4079 89.068 66.7379 89.032 66.9779 88.96C67.2299 88.888 67.4279 88.792 67.5719 88.672V84.586H69.5159V94ZM74.6112 94.18C74.1552 94.18 73.7292 94.108 73.3332 93.964C72.9492 93.808 72.6132 93.598 72.3252 93.334C72.0492 93.07 71.8272 92.758 71.6592 92.398C71.5032 92.038 71.4252 91.648 71.4252 91.228C71.4252 90.784 71.5212 90.382 71.7132 90.022C71.9052 89.662 72.1752 89.35 72.5232 89.086C72.8832 88.822 73.3032 88.618 73.7832 88.474C74.2752 88.33 74.8152 88.258 75.4032 88.258C75.8472 88.258 76.2852 88.3 76.7172 88.384C77.1492 88.456 77.5392 88.558 77.8872 88.69V88.042C77.8872 87.346 77.6892 86.806 77.2932 86.422C76.8972 86.026 76.3272 85.828 75.5832 85.828C75.0792 85.828 74.5812 85.924 74.0892 86.116C73.6092 86.296 73.1112 86.56 72.5952 86.908L71.9832 85.648C73.1952 84.832 74.4552 84.424 75.7632 84.424C77.0592 84.424 78.0672 84.754 78.7872 85.414C79.5072 86.074 79.8672 87.022 79.8672 88.258V91.66C79.8672 92.08 80.0412 92.296 80.3892 92.308V94C80.1972 94.036 80.0292 94.06 79.8852 94.072C79.7532 94.084 79.6212 94.09 79.4892 94.09C79.1052 94.09 78.8052 93.994 78.5892 93.802C78.3852 93.61 78.2592 93.364 78.2112 93.064L78.1572 92.47C77.7372 93.022 77.2152 93.448 76.5912 93.748C75.9792 94.036 75.3192 94.18 74.6112 94.18ZM75.1512 92.722C75.6312 92.722 76.0812 92.638 76.5012 92.47C76.9332 92.29 77.2692 92.044 77.5092 91.732C77.7612 91.516 77.8872 91.288 77.8872 91.048V89.806C77.5512 89.674 77.1912 89.572 76.8072 89.5C76.4352 89.428 76.0692 89.392 75.7092 89.392C75.0012 89.392 74.4192 89.548 73.9632 89.86C73.5192 90.16 73.2972 90.562 73.2972 91.066C73.2972 91.534 73.4712 91.93 73.8192 92.254C74.1672 92.566 74.6112 92.722 75.1512 92.722Z" fill="#2F4152"/>
</svg>
