<svg width="270" height="129" viewBox="0 0 270 129" fill="none" xmlns="http://www.w3.org/2000/svg">
<path d="M0 50C0 22.3858 22.3858 0 50 0H270V79C270 106.614 247.614 129 220 129H0V50Z" fill="#CEEBFB"/>
<path d="M42.222 48V38.802L38.424 45.768H37.308L33.492 38.802V48H31.476V35.22H33.636L37.866 43.032L42.096 35.22H44.256V48H42.222ZM47.154 38.586H49.098V41.7H50.808C51.264 41.7 51.696 41.766 52.104 41.898C52.524 42.03 52.89 42.234 53.202 42.51C53.514 42.774 53.76 43.104 53.94 43.5C54.132 43.896 54.228 44.352 54.228 44.868C54.228 45.396 54.132 45.858 53.94 46.254C53.76 46.638 53.514 46.962 53.202 47.226C52.89 47.49 52.53 47.688 52.122 47.82C51.714 47.94 51.282 48 50.826 48H47.154V38.586ZM55.2 38.586H57.162V48H55.2V38.586ZM50.7 46.398C51.168 46.398 51.54 46.272 51.816 46.02C52.104 45.768 52.248 45.39 52.248 44.886C52.248 44.37 52.098 43.98 51.798 43.716C51.498 43.44 51.138 43.302 50.718 43.302H49.098V46.398H50.7ZM68.9962 37.092C68.1562 37.284 67.4902 37.656 66.9982 38.208C66.5062 38.748 66.1762 39.522 66.0082 40.53C66.3922 40.05 66.8482 39.684 67.3762 39.432C67.9162 39.18 68.5102 39.054 69.1582 39.054C69.7462 39.054 70.2922 39.174 70.7962 39.414C71.3122 39.642 71.7562 39.96 72.1282 40.368C72.5002 40.776 72.7942 41.256 73.0102 41.808C73.2262 42.36 73.3342 42.96 73.3342 43.608C73.3342 44.268 73.2202 44.88 72.9922 45.444C72.7762 45.996 72.4642 46.476 72.0562 46.884C71.6602 47.292 71.1742 47.61 70.5982 47.838C70.0222 48.066 69.3742 48.18 68.6542 48.18C67.1542 48.18 66.0142 47.688 65.2342 46.704C64.4662 45.708 64.0822 44.25 64.0822 42.33C64.0822 40.29 64.4902 38.718 65.3062 37.614C66.1222 36.51 67.3282 35.772 68.9242 35.4L72.1462 34.662L72.3622 36.318L68.9962 37.092ZM66.1162 43.518C66.1162 43.962 66.1822 44.37 66.3142 44.742C66.4462 45.102 66.6262 45.42 66.8542 45.696C67.0942 45.96 67.3702 46.17 67.6822 46.326C68.0062 46.47 68.3602 46.542 68.7442 46.542C69.1162 46.542 69.4582 46.47 69.7702 46.326C70.0942 46.182 70.3702 45.984 70.5982 45.732C70.8262 45.48 71.0002 45.174 71.1202 44.814C71.2522 44.454 71.3182 44.058 71.3182 43.626C71.3182 43.206 71.2522 42.822 71.1202 42.474C70.9882 42.114 70.8022 41.808 70.5622 41.556C70.3342 41.304 70.0582 41.112 69.7342 40.98C69.4102 40.836 69.0562 40.764 68.6722 40.764C68.2882 40.764 67.9402 40.83 67.6282 40.962C67.3162 41.094 67.0462 41.286 66.8182 41.538C66.6022 41.778 66.4282 42.066 66.2962 42.402C66.1762 42.738 66.1162 43.11 66.1162 43.518ZM79.592 48.18C78.86 48.18 78.194 48.054 77.594 47.802C76.994 47.538 76.478 47.184 76.046 46.74C75.626 46.296 75.296 45.78 75.056 45.192C74.828 44.604 74.714 43.98 74.714 43.32C74.714 42.66 74.828 42.036 75.056 41.448C75.296 40.848 75.626 40.326 76.046 39.882C76.478 39.426 76.994 39.072 77.594 38.82C78.194 38.556 78.866 38.424 79.61 38.424C80.342 38.424 81.002 38.556 81.59 38.82C82.19 39.084 82.7 39.438 83.12 39.882C83.54 40.314 83.858 40.824 84.074 41.412C84.302 41.988 84.416 42.594 84.416 43.23C84.416 43.374 84.41 43.512 84.398 43.644C84.386 43.764 84.374 43.866 84.362 43.95H76.82C76.856 44.37 76.952 44.748 77.108 45.084C77.276 45.42 77.486 45.714 77.738 45.966C78.002 46.206 78.296 46.392 78.62 46.524C78.956 46.656 79.304 46.722 79.664 46.722C79.928 46.722 80.186 46.692 80.438 46.632C80.702 46.56 80.942 46.464 81.158 46.344C81.374 46.212 81.566 46.056 81.734 45.876C81.902 45.696 82.034 45.498 82.13 45.282L83.822 45.768C83.498 46.476 82.958 47.058 82.202 47.514C81.458 47.958 80.588 48.18 79.592 48.18ZM82.454 42.582C82.418 42.186 82.316 41.82 82.148 41.484C81.992 41.148 81.788 40.866 81.536 40.638C81.284 40.398 80.99 40.212 80.654 40.08C80.318 39.948 79.964 39.882 79.592 39.882C79.22 39.882 78.866 39.948 78.53 40.08C78.206 40.212 77.918 40.398 77.666 40.638C77.414 40.866 77.21 41.148 77.054 41.484C76.898 41.82 76.802 42.186 76.766 42.582H82.454ZM85.599 43.284C85.599 42.624 85.713 42 85.941 41.412C86.169 40.824 86.493 40.308 86.913 39.864C87.345 39.42 87.861 39.072 88.461 38.82C89.061 38.556 89.733 38.424 90.477 38.424C91.449 38.424 92.283 38.64 92.979 39.072C93.687 39.492 94.215 40.056 94.563 40.764L92.637 41.376C92.409 40.98 92.103 40.674 91.719 40.458C91.335 40.23 90.909 40.116 90.441 40.116C90.045 40.116 89.673 40.194 89.325 40.35C88.989 40.506 88.695 40.728 88.443 41.016C88.191 41.292 87.993 41.622 87.849 42.006C87.705 42.39 87.633 42.816 87.633 43.284C87.633 43.74 87.705 44.166 87.849 44.562C88.005 44.946 88.209 45.282 88.461 45.57C88.725 45.858 89.025 46.086 89.361 46.254C89.709 46.41 90.075 46.488 90.459 46.488C90.699 46.488 90.939 46.458 91.179 46.398C91.419 46.326 91.635 46.23 91.827 46.11C92.031 45.99 92.205 45.852 92.349 45.696C92.505 45.54 92.619 45.372 92.691 45.192L94.635 45.768C94.323 46.476 93.801 47.058 93.069 47.514C92.337 47.958 91.473 48.18 90.477 48.18C89.745 48.18 89.079 48.048 88.479 47.784C87.879 47.52 87.363 47.166 86.931 46.722C86.511 46.266 86.181 45.744 85.941 45.156C85.713 44.568 85.599 43.944 85.599 43.284ZM104.384 48H102.44V40.296H98.4257V48H96.4817V38.586H104.384V48ZM105.899 46.344C106.259 46.32 106.559 46.242 106.799 46.11C107.039 45.966 107.243 45.714 107.411 45.354C107.579 44.994 107.717 44.496 107.825 43.86C107.945 43.224 108.059 42.39 108.167 41.358L108.473 38.586H114.683V48H112.721V40.206H110.237L110.003 41.934C109.835 43.146 109.655 44.142 109.463 44.922C109.271 45.702 109.025 46.326 108.725 46.794C108.437 47.25 108.077 47.574 107.645 47.766C107.225 47.958 106.709 48.066 106.097 48.09L105.899 46.344ZM119.769 48.18C119.313 48.18 118.887 48.108 118.491 47.964C118.107 47.808 117.771 47.598 117.483 47.334C117.207 47.07 116.985 46.758 116.817 46.398C116.661 46.038 116.583 45.648 116.583 45.228C116.583 44.784 116.679 44.382 116.871 44.022C117.063 43.662 117.333 43.35 117.681 43.086C118.041 42.822 118.461 42.618 118.941 42.474C119.433 42.33 119.973 42.258 120.561 42.258C121.005 42.258 121.443 42.3 121.875 42.384C122.307 42.456 122.697 42.558 123.045 42.69V42.042C123.045 41.346 122.847 40.806 122.451 40.422C122.055 40.026 121.485 39.828 120.741 39.828C120.237 39.828 119.739 39.924 119.247 40.116C118.767 40.296 118.269 40.56 117.753 40.908L117.141 39.648C118.353 38.832 119.613 38.424 120.921 38.424C122.217 38.424 123.225 38.754 123.945 39.414C124.665 40.074 125.025 41.022 125.025 42.258V45.66C125.025 46.08 125.199 46.296 125.547 46.308V48C125.355 48.036 125.187 48.06 125.043 48.072C124.911 48.084 124.779 48.09 124.647 48.09C124.263 48.09 123.963 47.994 123.747 47.802C123.543 47.61 123.417 47.364 123.369 47.064L123.315 46.47C122.895 47.022 122.373 47.448 121.749 47.748C121.137 48.036 120.477 48.18 119.769 48.18ZM120.309 46.722C120.789 46.722 121.239 46.638 121.659 46.47C122.091 46.29 122.427 46.044 122.667 45.732C122.919 45.516 123.045 45.288 123.045 45.048V43.806C122.709 43.674 122.349 43.572 121.965 43.5C121.593 43.428 121.227 43.392 120.867 43.392C120.159 43.392 119.577 43.548 119.121 43.86C118.677 44.16 118.455 44.562 118.455 45.066C118.455 45.534 118.629 45.93 118.977 46.254C119.325 46.566 119.769 46.722 120.309 46.722ZM131.519 48H129.575V40.296H126.515V38.586H134.579V40.296H131.519V48ZM138.275 42.33H142.559V38.586H144.503V48H142.559V44.004H138.275V48H136.331V38.586H138.275V42.33ZM151.322 48.18C150.578 48.18 149.906 48.048 149.306 47.784C148.718 47.52 148.214 47.166 147.794 46.722C147.374 46.278 147.05 45.762 146.822 45.174C146.594 44.574 146.48 43.95 146.48 43.302C146.48 42.654 146.594 42.036 146.822 41.448C147.05 40.848 147.374 40.326 147.794 39.882C148.226 39.438 148.736 39.084 149.324 38.82C149.924 38.556 150.59 38.424 151.322 38.424C152.054 38.424 152.714 38.556 153.302 38.82C153.902 39.084 154.412 39.438 154.832 39.882C155.264 40.326 155.594 40.848 155.822 41.448C156.05 42.036 156.164 42.654 156.164 43.302C156.164 43.95 156.05 44.574 155.822 45.174C155.594 45.762 155.264 46.278 154.832 46.722C154.412 47.166 153.902 47.52 153.302 47.784C152.714 48.048 152.054 48.18 151.322 48.18ZM148.514 43.32C148.514 43.776 148.586 44.196 148.73 44.58C148.874 44.964 149.072 45.3 149.324 45.588C149.576 45.864 149.87 46.086 150.206 46.254C150.554 46.41 150.926 46.488 151.322 46.488C151.718 46.488 152.084 46.41 152.42 46.254C152.768 46.086 153.068 45.858 153.32 45.57C153.572 45.282 153.77 44.946 153.914 44.562C154.058 44.178 154.13 43.758 154.13 43.302C154.13 42.858 154.058 42.444 153.914 42.06C153.77 41.664 153.572 41.322 153.32 41.034C153.068 40.746 152.768 40.524 152.42 40.368C152.084 40.2 151.718 40.116 151.322 40.116C150.938 40.116 150.572 40.2 150.224 40.368C149.888 40.536 149.594 40.764 149.342 41.052C149.09 41.34 148.886 41.682 148.73 42.078C148.586 42.462 148.514 42.876 148.514 43.32ZM30.306 69.29H30.828C31.116 69.242 31.356 69.134 31.548 68.966C31.74 68.786 31.902 68.51 32.034 68.138C32.178 67.766 32.298 67.28 32.394 66.68C32.502 66.068 32.604 65.294 32.7 64.358L33.006 61.586H39.216V69.29H40.404V73.826H38.676V71H31.98V73.826H30.306V69.29ZM37.272 69.29V63.206H34.788L34.554 64.934C34.398 66.074 34.224 66.992 34.032 67.688C33.852 68.372 33.618 68.906 33.33 69.29H37.272ZM46.4789 71.18C45.7349 71.18 45.0629 71.048 44.4629 70.784C43.8749 70.52 43.3709 70.166 42.9509 69.722C42.5309 69.278 42.2069 68.762 41.9789 68.174C41.7509 67.574 41.6369 66.95 41.6369 66.302C41.6369 65.654 41.7509 65.036 41.9789 64.448C42.2069 63.848 42.5309 63.326 42.9509 62.882C43.3829 62.438 43.8929 62.084 44.4809 61.82C45.0809 61.556 45.7469 61.424 46.4789 61.424C47.2109 61.424 47.8709 61.556 48.4589 61.82C49.0589 62.084 49.5689 62.438 49.9889 62.882C50.4209 63.326 50.7509 63.848 50.9789 64.448C51.2069 65.036 51.3209 65.654 51.3209 66.302C51.3209 66.95 51.2069 67.574 50.9789 68.174C50.7509 68.762 50.4209 69.278 49.9889 69.722C49.5689 70.166 49.0589 70.52 48.4589 70.784C47.8709 71.048 47.2109 71.18 46.4789 71.18ZM43.6709 66.32C43.6709 66.776 43.7429 67.196 43.8869 67.58C44.0309 67.964 44.2289 68.3 44.4809 68.588C44.7329 68.864 45.0269 69.086 45.3629 69.254C45.7109 69.41 46.0829 69.488 46.4789 69.488C46.8749 69.488 47.2409 69.41 47.5769 69.254C47.9249 69.086 48.2249 68.858 48.4769 68.57C48.7289 68.282 48.9269 67.946 49.0709 67.562C49.2149 67.178 49.2869 66.758 49.2869 66.302C49.2869 65.858 49.2149 65.444 49.0709 65.06C48.9269 64.664 48.7289 64.322 48.4769 64.034C48.2249 63.746 47.9249 63.524 47.5769 63.368C47.2409 63.2 46.8749 63.116 46.4789 63.116C46.0949 63.116 45.7289 63.2 45.3809 63.368C45.0449 63.536 44.7509 63.764 44.4989 64.052C44.2469 64.34 44.0429 64.682 43.8869 65.078C43.7429 65.462 43.6709 65.876 43.6709 66.32ZM52.645 66.284C52.645 65.624 52.759 65 52.987 64.412C53.215 63.824 53.539 63.308 53.959 62.864C54.391 62.42 54.907 62.072 55.507 61.82C56.107 61.556 56.779 61.424 57.523 61.424C58.495 61.424 59.329 61.64 60.025 62.072C60.733 62.492 61.261 63.056 61.609 63.764L59.683 64.376C59.455 63.98 59.149 63.674 58.765 63.458C58.381 63.23 57.955 63.116 57.487 63.116C57.091 63.116 56.719 63.194 56.371 63.35C56.035 63.506 55.741 63.728 55.489 64.016C55.237 64.292 55.039 64.622 54.895 65.006C54.751 65.39 54.679 65.816 54.679 66.284C54.679 66.74 54.751 67.166 54.895 67.562C55.051 67.946 55.255 68.282 55.507 68.57C55.771 68.858 56.071 69.086 56.407 69.254C56.755 69.41 57.121 69.488 57.505 69.488C57.745 69.488 57.985 69.458 58.225 69.398C58.465 69.326 58.681 69.23 58.873 69.11C59.077 68.99 59.251 68.852 59.395 68.696C59.551 68.54 59.665 68.372 59.737 68.192L61.681 68.768C61.369 69.476 60.847 70.058 60.115 70.514C59.383 70.958 58.519 71.18 57.523 71.18C56.791 71.18 56.125 71.048 55.525 70.784C54.925 70.52 54.409 70.166 53.977 69.722C53.557 69.266 53.227 68.744 52.987 68.156C52.759 67.568 52.645 66.944 52.645 66.284ZM67.6497 71H65.7057V63.296H62.6457V61.586H70.7097V63.296H67.6497V71ZM74.7518 71.18C74.2958 71.18 73.8698 71.108 73.4738 70.964C73.0898 70.808 72.7538 70.598 72.4658 70.334C72.1898 70.07 71.9678 69.758 71.7998 69.398C71.6438 69.038 71.5658 68.648 71.5658 68.228C71.5658 67.784 71.6618 67.382 71.8538 67.022C72.0458 66.662 72.3158 66.35 72.6638 66.086C73.0238 65.822 73.4438 65.618 73.9238 65.474C74.4158 65.33 74.9558 65.258 75.5438 65.258C75.9878 65.258 76.4258 65.3 76.8578 65.384C77.2898 65.456 77.6798 65.558 78.0278 65.69V65.042C78.0278 64.346 77.8298 63.806 77.4338 63.422C77.0378 63.026 76.4678 62.828 75.7238 62.828C75.2198 62.828 74.7218 62.924 74.2298 63.116C73.7498 63.296 73.2518 63.56 72.7358 63.908L72.1238 62.648C73.3358 61.832 74.5958 61.424 75.9038 61.424C77.1998 61.424 78.2078 61.754 78.9278 62.414C79.6478 63.074 80.0078 64.022 80.0078 65.258V68.66C80.0078 69.08 80.1818 69.296 80.5298 69.308V71C80.3378 71.036 80.1698 71.06 80.0258 71.072C79.8938 71.084 79.7618 71.09 79.6298 71.09C79.2458 71.09 78.9458 70.994 78.7298 70.802C78.5258 70.61 78.3998 70.364 78.3518 70.064L78.2978 69.47C77.8778 70.022 77.3558 70.448 76.7318 70.748C76.1198 71.036 75.4598 71.18 74.7518 71.18ZM75.2918 69.722C75.7718 69.722 76.2218 69.638 76.6418 69.47C77.0738 69.29 77.4098 69.044 77.6498 68.732C77.9018 68.516 78.0278 68.288 78.0278 68.048V66.806C77.6918 66.674 77.3318 66.572 76.9478 66.5C76.5758 66.428 76.2098 66.392 75.8498 66.392C75.1418 66.392 74.5598 66.548 74.1038 66.86C73.6598 67.16 73.4378 67.562 73.4378 68.066C73.4378 68.534 73.6118 68.93 73.9598 69.254C74.3078 69.566 74.7518 69.722 75.2918 69.722ZM87.8095 61.586C88.1455 61.586 88.4575 61.646 88.7455 61.766C89.0455 61.886 89.2975 62.054 89.5015 62.27C89.7175 62.474 89.8855 62.72 90.0055 63.008C90.1255 63.296 90.1855 63.602 90.1855 63.926C90.1855 64.334 90.0835 64.748 89.8795 65.168C89.6755 65.576 89.3275 65.882 88.8355 66.086C89.3755 66.242 89.7955 66.518 90.0955 66.914C90.4075 67.298 90.5635 67.796 90.5635 68.408C90.5635 69.236 90.2755 69.878 89.6995 70.334C89.1235 70.778 88.3615 71 87.4135 71H82.6795V61.586H87.8095ZM86.9455 65.564C87.3415 65.564 87.6535 65.456 87.8815 65.24C88.1215 65.012 88.2415 64.688 88.2415 64.268C88.2415 63.92 88.1455 63.626 87.9535 63.386C87.7615 63.146 87.4555 63.026 87.0355 63.026H84.6235V65.564H86.9455ZM87.2335 69.56C87.6535 69.56 87.9835 69.428 88.2235 69.164C88.4755 68.888 88.6015 68.564 88.6015 68.192C88.6015 67.82 88.4815 67.502 88.2415 67.238C88.0135 66.974 87.6895 66.842 87.2695 66.842H84.6235V69.56H87.2335ZM91.2876 69.344C91.6476 69.32 91.9476 69.242 92.1876 69.11C92.4276 68.966 92.6316 68.714 92.7996 68.354C92.9676 67.994 93.1056 67.496 93.2136 66.86C93.3336 66.224 93.4476 65.39 93.5556 64.358L93.8616 61.586H100.072V71H98.1096V63.206H95.6256L95.3916 64.934C95.2236 66.146 95.0436 67.142 94.8516 67.922C94.6596 68.702 94.4136 69.326 94.1136 69.794C93.8256 70.25 93.4656 70.574 93.0336 70.766C92.6136 70.958 92.0976 71.066 91.4856 71.09L91.2876 69.344ZM104.221 67.382C103.681 67.178 103.243 66.854 102.907 66.41C102.571 65.966 102.403 65.384 102.403 64.664C102.403 64.196 102.487 63.776 102.655 63.404C102.823 63.02 103.051 62.696 103.339 62.432C103.627 62.156 103.969 61.946 104.365 61.802C104.773 61.646 105.211 61.568 105.679 61.568H109.567V71H107.605V67.706H106.075L104.059 71H101.881L104.221 67.382ZM107.605 66.104V63.206H105.859C105.499 63.206 105.163 63.332 104.851 63.584C104.539 63.836 104.383 64.202 104.383 64.682C104.383 65.138 104.521 65.492 104.797 65.744C105.085 65.984 105.421 66.104 105.805 66.104H107.605ZM116.417 71.18C115.685 71.18 115.019 71.054 114.419 70.802C113.819 70.538 113.303 70.184 112.871 69.74C112.451 69.296 112.121 68.78 111.881 68.192C111.653 67.604 111.539 66.98 111.539 66.32C111.539 65.66 111.653 65.036 111.881 64.448C112.121 63.848 112.451 63.326 112.871 62.882C113.303 62.426 113.819 62.072 114.419 61.82C115.019 61.556 115.691 61.424 116.435 61.424C117.167 61.424 117.827 61.556 118.415 61.82C119.015 62.084 119.525 62.438 119.945 62.882C120.365 63.314 120.683 63.824 120.899 64.412C121.127 64.988 121.241 65.594 121.241 66.23C121.241 66.374 121.235 66.512 121.223 66.644C121.211 66.764 121.199 66.866 121.187 66.95H113.645C113.681 67.37 113.777 67.748 113.933 68.084C114.101 68.42 114.311 68.714 114.563 68.966C114.827 69.206 115.121 69.392 115.445 69.524C115.781 69.656 116.129 69.722 116.489 69.722C116.753 69.722 117.011 69.692 117.263 69.632C117.527 69.56 117.767 69.464 117.983 69.344C118.199 69.212 118.391 69.056 118.559 68.876C118.727 68.696 118.859 68.498 118.955 68.282L120.647 68.768C120.323 69.476 119.783 70.058 119.027 70.514C118.283 70.958 117.413 71.18 116.417 71.18ZM119.279 65.582C119.243 65.186 119.141 64.82 118.973 64.484C118.817 64.148 118.613 63.866 118.361 63.638C118.109 63.398 117.815 63.212 117.479 63.08C117.143 62.948 116.789 62.882 116.417 62.882C116.045 62.882 115.691 62.948 115.355 63.08C115.031 63.212 114.743 63.398 114.491 63.638C114.239 63.866 114.035 64.148 113.879 64.484C113.723 64.82 113.627 65.186 113.591 65.582H119.279ZM128.077 67.094L131.083 61.586H133.081V71H131.173V64.826L128.599 69.524H127.573L124.981 64.826V71H123.073V61.586H125.089L128.077 67.094ZM144.573 71.18C143.841 71.18 143.175 71.054 142.575 70.802C141.975 70.538 141.459 70.184 141.027 69.74C140.607 69.296 140.277 68.78 140.037 68.192C139.809 67.604 139.695 66.98 139.695 66.32C139.695 65.66 139.809 65.036 140.037 64.448C140.277 63.848 140.607 63.326 141.027 62.882C141.459 62.426 141.975 62.072 142.575 61.82C143.175 61.556 143.847 61.424 144.591 61.424C145.323 61.424 145.983 61.556 146.571 61.82C147.171 62.084 147.681 62.438 148.101 62.882C148.521 63.314 148.839 63.824 149.055 64.412C149.283 64.988 149.397 65.594 149.397 66.23C149.397 66.374 149.391 66.512 149.379 66.644C149.367 66.764 149.355 66.866 149.343 66.95H141.801C141.837 67.37 141.933 67.748 142.089 68.084C142.257 68.42 142.467 68.714 142.719 68.966C142.983 69.206 143.277 69.392 143.601 69.524C143.937 69.656 144.285 69.722 144.645 69.722C144.909 69.722 145.167 69.692 145.419 69.632C145.683 69.56 145.923 69.464 146.139 69.344C146.355 69.212 146.547 69.056 146.715 68.876C146.883 68.696 147.015 68.498 147.111 68.282L148.803 68.768C148.479 69.476 147.939 70.058 147.183 70.514C146.439 70.958 145.569 71.18 144.573 71.18ZM147.435 65.582C147.399 65.186 147.297 64.82 147.129 64.484C146.973 64.148 146.769 63.866 146.517 63.638C146.265 63.398 145.971 63.212 145.635 63.08C145.299 62.948 144.945 62.882 144.573 62.882C144.201 62.882 143.847 62.948 143.511 63.08C143.187 63.212 142.899 63.398 142.647 63.638C142.395 63.866 142.191 64.148 142.035 64.484C141.879 64.82 141.783 65.186 141.747 65.582H147.435ZM150.029 69.29H150.551C150.839 69.242 151.079 69.134 151.271 68.966C151.463 68.786 151.625 68.51 151.757 68.138C151.901 67.766 152.021 67.28 152.117 66.68C152.225 66.068 152.327 65.294 152.423 64.358L152.729 61.586H158.939V69.29H160.127V73.826H158.399V71H151.703V73.826H150.029V69.29ZM156.995 69.29V63.206H154.511L154.277 64.934C154.121 66.074 153.947 66.992 153.755 67.688C153.575 68.372 153.341 68.906 153.053 69.29H156.995ZM162.027 72.926C162.231 73.082 162.429 73.19 162.621 73.25C162.813 73.31 163.005 73.34 163.197 73.34C163.509 73.34 163.785 73.166 164.025 72.818C164.277 72.482 164.517 71.876 164.745 71L160.875 61.586H162.909L165.825 69.254L168.417 61.586H170.289L166.383 72.26C165.999 73.304 165.567 74.03 165.087 74.438C164.619 74.846 164.049 75.05 163.377 75.05C163.089 75.05 162.837 75.02 162.621 74.96C162.405 74.9 162.207 74.792 162.027 74.636V72.926ZM184.49 71H182.546V63.296H178.532V71H176.588V61.586H184.49V71ZM191.316 71.18C190.572 71.18 189.9 71.048 189.3 70.784C188.712 70.52 188.208 70.166 187.788 69.722C187.368 69.278 187.044 68.762 186.816 68.174C186.588 67.574 186.474 66.95 186.474 66.302C186.474 65.654 186.588 65.036 186.816 64.448C187.044 63.848 187.368 63.326 187.788 62.882C188.22 62.438 188.73 62.084 189.318 61.82C189.918 61.556 190.584 61.424 191.316 61.424C192.048 61.424 192.708 61.556 193.296 61.82C193.896 62.084 194.406 62.438 194.826 62.882C195.258 63.326 195.588 63.848 195.816 64.448C196.044 65.036 196.158 65.654 196.158 66.302C196.158 66.95 196.044 67.574 195.816 68.174C195.588 68.762 195.258 69.278 194.826 69.722C194.406 70.166 193.896 70.52 193.296 70.784C192.708 71.048 192.048 71.18 191.316 71.18ZM188.508 66.32C188.508 66.776 188.58 67.196 188.724 67.58C188.868 67.964 189.066 68.3 189.318 68.588C189.57 68.864 189.864 69.086 190.2 69.254C190.548 69.41 190.92 69.488 191.316 69.488C191.712 69.488 192.078 69.41 192.414 69.254C192.762 69.086 193.062 68.858 193.314 68.57C193.566 68.282 193.764 67.946 193.908 67.562C194.052 67.178 194.124 66.758 194.124 66.302C194.124 65.858 194.052 65.444 193.908 65.06C193.764 64.664 193.566 64.322 193.314 64.034C193.062 63.746 192.762 63.524 192.414 63.368C192.078 63.2 191.712 63.116 191.316 63.116C190.932 63.116 190.566 63.2 190.218 63.368C189.882 63.536 189.588 63.764 189.336 64.052C189.084 64.34 188.88 64.682 188.724 65.078C188.58 65.462 188.508 65.876 188.508 66.32ZM33.51 86.638H34.842L38.892 81.22H41.196L36.624 87.394L41.61 94H39.306L35.04 88.456H33.51V94H31.476V81.22H33.51V86.638ZM45.3309 94.18C44.8749 94.18 44.4489 94.108 44.0529 93.964C43.6689 93.808 43.3329 93.598 43.0449 93.334C42.7689 93.07 42.5469 92.758 42.3789 92.398C42.2229 92.038 42.1449 91.648 42.1449 91.228C42.1449 90.784 42.2409 90.382 42.4329 90.022C42.6249 89.662 42.8949 89.35 43.2429 89.086C43.6029 88.822 44.0229 88.618 44.5029 88.474C44.9949 88.33 45.5349 88.258 46.1229 88.258C46.5669 88.258 47.0049 88.3 47.4369 88.384C47.8689 88.456 48.2589 88.558 48.6069 88.69V88.042C48.6069 87.346 48.4089 86.806 48.0129 86.422C47.6169 86.026 47.0469 85.828 46.3029 85.828C45.7989 85.828 45.3009 85.924 44.8089 86.116C44.3289 86.296 43.8309 86.56 43.3149 86.908L42.7029 85.648C43.9149 84.832 45.1749 84.424 46.4829 84.424C47.7789 84.424 48.7869 84.754 49.5069 85.414C50.2269 86.074 50.5869 87.022 50.5869 88.258V91.66C50.5869 92.08 50.7609 92.296 51.1089 92.308V94C50.9169 94.036 50.7489 94.06 50.6049 94.072C50.4729 94.084 50.3409 94.09 50.2089 94.09C49.8249 94.09 49.5249 93.994 49.3089 93.802C49.1049 93.61 48.9789 93.364 48.9309 93.064L48.8769 92.47C48.4569 93.022 47.9349 93.448 47.3109 93.748C46.6989 94.036 46.0389 94.18 45.3309 94.18ZM45.8709 92.722C46.3509 92.722 46.8009 92.638 47.2209 92.47C47.6529 92.29 47.9889 92.044 48.2289 91.732C48.4809 91.516 48.6069 91.288 48.6069 91.048V89.806C48.2709 89.674 47.9109 89.572 47.5269 89.5C47.1549 89.428 46.7889 89.392 46.4289 89.392C45.7209 89.392 45.1389 89.548 44.6829 89.86C44.2389 90.16 44.0169 90.562 44.0169 91.066C44.0169 91.534 44.1909 91.93 44.5389 92.254C44.8869 92.566 45.3309 92.722 45.8709 92.722ZM52.6827 85.576C53.0907 85.192 53.5407 84.904 54.0327 84.712C54.5367 84.52 55.0707 84.424 55.6347 84.424C56.0547 84.424 56.4387 84.478 56.7867 84.586C57.1467 84.694 57.4527 84.85 57.7047 85.054C57.9687 85.246 58.1727 85.492 58.3167 85.792C58.4607 86.08 58.5327 86.41 58.5327 86.782C58.5327 87.31 58.3887 87.766 58.1007 88.15C57.8247 88.522 57.4347 88.744 56.9307 88.816C57.6147 88.924 58.1427 89.2 58.5147 89.644C58.8867 90.076 59.0727 90.622 59.0727 91.282C59.0727 91.714 58.9827 92.11 58.8027 92.47C58.6347 92.818 58.3947 93.124 58.0827 93.388C57.7707 93.64 57.3987 93.838 56.9667 93.982C56.5347 94.114 56.0607 94.18 55.5447 94.18C54.1887 94.18 53.1387 93.724 52.3947 92.812L53.3847 91.498C53.8767 92.17 54.5727 92.506 55.4727 92.506C56.0127 92.506 56.4267 92.392 56.7147 92.164C57.0147 91.924 57.1647 91.576 57.1647 91.12C57.1647 90.076 56.4147 89.554 54.9147 89.554H54.2487V88.258H54.9147C55.4907 88.258 55.9407 88.138 56.2647 87.898C56.5887 87.658 56.7507 87.34 56.7507 86.944C56.7507 86.62 56.6307 86.368 56.3907 86.188C56.1627 85.996 55.8507 85.9 55.4547 85.9C54.8067 85.9 54.1827 86.164 53.5827 86.692L52.6827 85.576ZM63.4976 94.18C63.0416 94.18 62.6156 94.108 62.2196 93.964C61.8356 93.808 61.4996 93.598 61.2116 93.334C60.9356 93.07 60.7136 92.758 60.5456 92.398C60.3896 92.038 60.3116 91.648 60.3116 91.228C60.3116 90.784 60.4076 90.382 60.5996 90.022C60.7916 89.662 61.0616 89.35 61.4096 89.086C61.7696 88.822 62.1896 88.618 62.6696 88.474C63.1616 88.33 63.7016 88.258 64.2896 88.258C64.7336 88.258 65.1716 88.3 65.6036 88.384C66.0356 88.456 66.4256 88.558 66.7736 88.69V88.042C66.7736 87.346 66.5756 86.806 66.1796 86.422C65.7836 86.026 65.2136 85.828 64.4696 85.828C63.9656 85.828 63.4676 85.924 62.9756 86.116C62.4956 86.296 61.9976 86.56 61.4816 86.908L60.8696 85.648C62.0816 84.832 63.3416 84.424 64.6496 84.424C65.9456 84.424 66.9536 84.754 67.6736 85.414C68.3936 86.074 68.7536 87.022 68.7536 88.258V91.66C68.7536 92.08 68.9276 92.296 69.2756 92.308V94C69.0836 94.036 68.9156 94.06 68.7716 94.072C68.6396 94.084 68.5076 94.09 68.3756 94.09C67.9916 94.09 67.6916 93.994 67.4756 93.802C67.2716 93.61 67.1456 93.364 67.0976 93.064L67.0436 92.47C66.6236 93.022 66.1016 93.448 65.4776 93.748C64.8656 94.036 64.2056 94.18 63.4976 94.18ZM64.0376 92.722C64.5176 92.722 64.9676 92.638 65.3876 92.47C65.8196 92.29 66.1556 92.044 66.3956 91.732C66.6476 91.516 66.7736 91.288 66.7736 91.048V89.806C66.4376 89.674 66.0776 89.572 65.6936 89.5C65.3216 89.428 64.9556 89.392 64.5956 89.392C63.8876 89.392 63.3056 89.548 62.8496 89.86C62.4056 90.16 62.1836 90.562 62.1836 91.066C62.1836 91.534 62.3576 91.93 62.7056 92.254C63.0536 92.566 63.4976 92.722 64.0376 92.722ZM73.3333 88.33H77.6173V84.586H79.5613V94H77.6173V90.004H73.3333V94H71.3893V84.586H73.3333V88.33ZM84.1305 91.192L88.9545 84.586H90.4665V94H88.5225V87.538L83.7885 94H82.1865V84.586H84.1305V91.192Z" fill="#2F4152"/>
</svg>
