<svg width="270" height="152" viewBox="0 0 270 152" fill="none" xmlns="http://www.w3.org/2000/svg">
<path d="M0 50C0 22.3858 22.3858 0 50 0H270V102C270 129.614 247.614 152 220 152H0V50Z" fill="#CEEBFB"/>
<path d="M41.25 44.706C41.25 45.222 41.142 45.684 40.926 46.092C40.722 46.5 40.44 46.848 40.08 47.136C39.732 47.412 39.318 47.628 38.838 47.784C38.358 47.928 37.848 48 37.308 48H31.206V35.22H37.794C38.238 35.22 38.64 35.316 39 35.508C39.36 35.7 39.666 35.952 39.918 36.264C40.17 36.564 40.362 36.912 40.494 37.308C40.638 37.692 40.71 38.082 40.71 38.478C40.71 39.102 40.548 39.69 40.224 40.242C39.912 40.782 39.462 41.184 38.874 41.448C39.606 41.664 40.182 42.06 40.602 42.636C41.034 43.2 41.25 43.89 41.25 44.706ZM39.18 44.328C39.18 44.064 39.132 43.812 39.036 43.572C38.952 43.332 38.832 43.122 38.676 42.942C38.532 42.762 38.352 42.618 38.136 42.51C37.92 42.402 37.686 42.348 37.434 42.348H33.222V46.254H37.308C37.572 46.254 37.818 46.206 38.046 46.11C38.274 46.002 38.472 45.864 38.64 45.696C38.808 45.516 38.94 45.312 39.036 45.084C39.132 44.844 39.18 44.592 39.18 44.328ZM33.222 36.966V40.728H36.93C37.182 40.728 37.41 40.68 37.614 40.584C37.83 40.488 38.016 40.362 38.172 40.206C38.34 40.038 38.466 39.84 38.55 39.612C38.646 39.384 38.694 39.132 38.694 38.856C38.694 38.304 38.538 37.854 38.226 37.506C37.914 37.146 37.518 36.966 37.038 36.966H33.222ZM43.6032 38.586H45.5472V41.7H47.2572C47.7132 41.7 48.1452 41.766 48.5532 41.898C48.9732 42.03 49.3392 42.234 49.6512 42.51C49.9632 42.774 50.2092 43.104 50.3892 43.5C50.5812 43.896 50.6772 44.352 50.6772 44.868C50.6772 45.396 50.5812 45.858 50.3892 46.254C50.2092 46.638 49.9632 46.962 49.6512 47.226C49.3392 47.49 48.9792 47.688 48.5712 47.82C48.1632 47.94 47.7312 48 47.2752 48H43.6032V38.586ZM51.6492 38.586H53.6112V48H51.6492V38.586ZM47.1492 46.398C47.6172 46.398 47.9892 46.272 48.2652 46.02C48.5532 45.768 48.6972 45.39 48.6972 44.886C48.6972 44.37 48.5472 43.98 48.2472 43.716C47.9472 43.44 47.5872 43.302 47.1672 43.302H45.5472V46.398H47.1492ZM68.7754 48H66.8314V40.296H62.8174V48H60.8734V38.586H68.7754V48ZM75.6009 48.18C74.8569 48.18 74.1849 48.048 73.5849 47.784C72.9969 47.52 72.4929 47.166 72.0729 46.722C71.6529 46.278 71.3289 45.762 71.1009 45.174C70.8729 44.574 70.7589 43.95 70.7589 43.302C70.7589 42.654 70.8729 42.036 71.1009 41.448C71.3289 40.848 71.6529 40.326 72.0729 39.882C72.5049 39.438 73.0149 39.084 73.6029 38.82C74.2029 38.556 74.8689 38.424 75.6009 38.424C76.3329 38.424 76.9929 38.556 77.5809 38.82C78.1809 39.084 78.6909 39.438 79.1109 39.882C79.5429 40.326 79.8729 40.848 80.1009 41.448C80.3289 42.036 80.4429 42.654 80.4429 43.302C80.4429 43.95 80.3289 44.574 80.1009 45.174C79.8729 45.762 79.5429 46.278 79.1109 46.722C78.6909 47.166 78.1809 47.52 77.5809 47.784C76.9929 48.048 76.3329 48.18 75.6009 48.18ZM72.7929 43.32C72.7929 43.776 72.8649 44.196 73.0089 44.58C73.1529 44.964 73.3509 45.3 73.6029 45.588C73.8549 45.864 74.1489 46.086 74.4849 46.254C74.8329 46.41 75.2049 46.488 75.6009 46.488C75.9969 46.488 76.3629 46.41 76.6989 46.254C77.0469 46.086 77.3469 45.858 77.5989 45.57C77.8509 45.282 78.0489 44.946 78.1929 44.562C78.3369 44.178 78.4089 43.758 78.4089 43.302C78.4089 42.858 78.3369 42.444 78.1929 42.06C78.0489 41.664 77.8509 41.322 77.5989 41.034C77.3469 40.746 77.0469 40.524 76.6989 40.368C76.3629 40.2 75.9969 40.116 75.6009 40.116C75.2169 40.116 74.8509 40.2 74.5029 40.368C74.1669 40.536 73.8729 40.764 73.6209 41.052C73.3689 41.34 73.1649 41.682 73.0089 42.078C72.8649 42.462 72.7929 42.876 72.7929 43.32ZM81.0705 46.344C81.4305 46.32 81.7305 46.242 81.9705 46.11C82.2105 45.966 82.4145 45.714 82.5825 45.354C82.7505 44.994 82.8885 44.496 82.9965 43.86C83.1165 43.224 83.2305 42.39 83.3385 41.358L83.6445 38.586H89.8545V48H87.8925V40.206H85.4085L85.1745 41.934C85.0065 43.146 84.8265 44.142 84.6345 44.922C84.4425 45.702 84.1965 46.326 83.8965 46.794C83.6085 47.25 83.2485 47.574 82.8165 47.766C82.3965 47.958 81.8805 48.066 81.2685 48.09L81.0705 46.344ZM92.5639 49.926C92.7679 50.082 92.9659 50.19 93.1579 50.25C93.3499 50.31 93.5419 50.34 93.7339 50.34C94.0459 50.34 94.3219 50.166 94.5619 49.818C94.8139 49.482 95.0539 48.876 95.2819 48L91.4119 38.586H93.4459L96.3619 46.254L98.9539 38.586H100.826L96.9199 49.26C96.5359 50.304 96.1039 51.03 95.6239 51.438C95.1559 51.846 94.5859 52.05 93.9139 52.05C93.6259 52.05 93.3739 52.02 93.1579 51.96C92.9419 51.9 92.7439 51.792 92.5639 51.636V49.926ZM108.996 48H107.052V44.436C106.776 44.532 106.494 44.604 106.206 44.652C105.918 44.688 105.516 44.706 105 44.706C104.448 44.706 103.98 44.616 103.596 44.436C103.212 44.256 102.894 44.016 102.642 43.716C102.402 43.416 102.222 43.068 102.102 42.672C101.994 42.276 101.94 41.862 101.94 41.43V38.586H103.866V41.088C103.866 41.832 104.004 42.348 104.28 42.636C104.568 42.924 104.964 43.068 105.468 43.068C105.888 43.068 106.218 43.032 106.458 42.96C106.71 42.888 106.908 42.792 107.052 42.672V38.586H108.996V48ZM114.091 48.18C113.635 48.18 113.209 48.108 112.813 47.964C112.429 47.808 112.093 47.598 111.805 47.334C111.529 47.07 111.307 46.758 111.139 46.398C110.983 46.038 110.905 45.648 110.905 45.228C110.905 44.784 111.001 44.382 111.193 44.022C111.385 43.662 111.655 43.35 112.003 43.086C112.363 42.822 112.783 42.618 113.263 42.474C113.755 42.33 114.295 42.258 114.883 42.258C115.327 42.258 115.765 42.3 116.197 42.384C116.629 42.456 117.019 42.558 117.367 42.69V42.042C117.367 41.346 117.169 40.806 116.773 40.422C116.377 40.026 115.807 39.828 115.063 39.828C114.559 39.828 114.061 39.924 113.569 40.116C113.089 40.296 112.591 40.56 112.075 40.908L111.463 39.648C112.675 38.832 113.935 38.424 115.243 38.424C116.539 38.424 117.547 38.754 118.267 39.414C118.987 40.074 119.347 41.022 119.347 42.258V45.66C119.347 46.08 119.521 46.296 119.869 46.308V48C119.677 48.036 119.509 48.06 119.365 48.072C119.233 48.084 119.101 48.09 118.969 48.09C118.585 48.09 118.285 47.994 118.069 47.802C117.865 47.61 117.739 47.364 117.691 47.064L117.637 46.47C117.217 47.022 116.695 47.448 116.071 47.748C115.459 48.036 114.799 48.18 114.091 48.18ZM114.631 46.722C115.111 46.722 115.561 46.638 115.981 46.47C116.413 46.29 116.749 46.044 116.989 45.732C117.241 45.516 117.367 45.288 117.367 45.048V43.806C117.031 43.674 116.671 43.572 116.287 43.5C115.915 43.428 115.549 43.392 115.189 43.392C114.481 43.392 113.899 43.548 113.443 43.86C112.999 44.16 112.777 44.562 112.777 45.066C112.777 45.534 112.951 45.93 113.299 46.254C113.647 46.566 114.091 46.722 114.631 46.722ZM126.213 48.18C125.481 48.18 124.815 48.054 124.215 47.802C123.615 47.538 123.099 47.184 122.667 46.74C122.247 46.296 121.917 45.78 121.677 45.192C121.449 44.604 121.335 43.98 121.335 43.32C121.335 42.66 121.449 42.036 121.677 41.448C121.917 40.848 122.247 40.326 122.667 39.882C123.099 39.426 123.615 39.072 124.215 38.82C124.815 38.556 125.487 38.424 126.231 38.424C126.963 38.424 127.623 38.556 128.211 38.82C128.811 39.084 129.321 39.438 129.741 39.882C130.161 40.314 130.479 40.824 130.695 41.412C130.923 41.988 131.037 42.594 131.037 43.23C131.037 43.374 131.031 43.512 131.019 43.644C131.007 43.764 130.995 43.866 130.983 43.95H123.441C123.477 44.37 123.573 44.748 123.729 45.084C123.897 45.42 124.107 45.714 124.359 45.966C124.623 46.206 124.917 46.392 125.241 46.524C125.577 46.656 125.925 46.722 126.285 46.722C126.549 46.722 126.807 46.692 127.059 46.632C127.323 46.56 127.563 46.464 127.779 46.344C127.995 46.212 128.187 46.056 128.355 45.876C128.523 45.696 128.655 45.498 128.751 45.282L130.443 45.768C130.119 46.476 129.579 47.058 128.823 47.514C128.079 47.958 127.209 48.18 126.213 48.18ZM129.075 42.582C129.039 42.186 128.937 41.82 128.769 41.484C128.613 41.148 128.409 40.866 128.157 40.638C127.905 40.398 127.611 40.212 127.275 40.08C126.939 39.948 126.585 39.882 126.213 39.882C125.841 39.882 125.487 39.948 125.151 40.08C124.827 40.212 124.539 40.398 124.287 40.638C124.035 40.866 123.831 41.148 123.675 41.484C123.519 41.82 123.423 42.186 123.387 42.582H129.075ZM136.585 48H134.641V40.296H131.581V38.586H139.645V40.296H136.585V48ZM145.17 48.18C144.438 48.18 143.772 48.054 143.172 47.802C142.572 47.538 142.056 47.184 141.624 46.74C141.204 46.296 140.874 45.78 140.634 45.192C140.406 44.604 140.292 43.98 140.292 43.32C140.292 42.66 140.406 42.036 140.634 41.448C140.874 40.848 141.204 40.326 141.624 39.882C142.056 39.426 142.572 39.072 143.172 38.82C143.772 38.556 144.444 38.424 145.188 38.424C145.92 38.424 146.58 38.556 147.168 38.82C147.768 39.084 148.278 39.438 148.698 39.882C149.118 40.314 149.436 40.824 149.652 41.412C149.88 41.988 149.994 42.594 149.994 43.23C149.994 43.374 149.988 43.512 149.976 43.644C149.964 43.764 149.952 43.866 149.94 43.95H142.398C142.434 44.37 142.53 44.748 142.686 45.084C142.854 45.42 143.064 45.714 143.316 45.966C143.58 46.206 143.874 46.392 144.198 46.524C144.534 46.656 144.882 46.722 145.242 46.722C145.506 46.722 145.764 46.692 146.016 46.632C146.28 46.56 146.52 46.464 146.736 46.344C146.952 46.212 147.144 46.056 147.312 45.876C147.48 45.696 147.612 45.498 147.708 45.282L149.4 45.768C149.076 46.476 148.536 47.058 147.78 47.514C147.036 47.958 146.166 48.18 145.17 48.18ZM148.032 42.582C147.996 42.186 147.894 41.82 147.726 41.484C147.57 41.148 147.366 40.866 147.114 40.638C146.862 40.398 146.568 40.212 146.232 40.08C145.896 39.948 145.542 39.882 145.17 39.882C144.798 39.882 144.444 39.948 144.108 40.08C143.784 40.212 143.496 40.398 143.244 40.638C142.992 40.866 142.788 41.148 142.632 41.484C142.476 41.82 142.38 42.186 142.344 42.582H148.032ZM162.609 40.152H158.397V48H156.453V38.586H162.609V40.152ZM167.981 48.18C167.237 48.18 166.565 48.048 165.965 47.784C165.377 47.52 164.873 47.166 164.453 46.722C164.033 46.278 163.709 45.762 163.481 45.174C163.253 44.574 163.139 43.95 163.139 43.302C163.139 42.654 163.253 42.036 163.481 41.448C163.709 40.848 164.033 40.326 164.453 39.882C164.885 39.438 165.395 39.084 165.983 38.82C166.583 38.556 167.249 38.424 167.981 38.424C168.713 38.424 169.373 38.556 169.961 38.82C170.561 39.084 171.071 39.438 171.491 39.882C171.923 40.326 172.253 40.848 172.481 41.448C172.709 42.036 172.823 42.654 172.823 43.302C172.823 43.95 172.709 44.574 172.481 45.174C172.253 45.762 171.923 46.278 171.491 46.722C171.071 47.166 170.561 47.52 169.961 47.784C169.373 48.048 168.713 48.18 167.981 48.18ZM165.173 43.32C165.173 43.776 165.245 44.196 165.389 44.58C165.533 44.964 165.731 45.3 165.983 45.588C166.235 45.864 166.529 46.086 166.865 46.254C167.213 46.41 167.585 46.488 167.981 46.488C168.377 46.488 168.743 46.41 169.079 46.254C169.427 46.086 169.727 45.858 169.979 45.57C170.231 45.282 170.429 44.946 170.573 44.562C170.717 44.178 170.789 43.758 170.789 43.302C170.789 42.858 170.717 42.444 170.573 42.06C170.429 41.664 170.231 41.322 169.979 41.034C169.727 40.746 169.427 40.524 169.079 40.368C168.743 40.2 168.377 40.116 167.981 40.116C167.597 40.116 167.231 40.2 166.883 40.368C166.547 40.536 166.253 40.764 166.001 41.052C165.749 41.34 165.545 41.682 165.389 42.078C165.245 42.462 165.173 42.876 165.173 43.32ZM178.46 48H176.516V40.296H173.456V38.586H181.52V40.296H178.46V48ZM187.009 48.18C186.265 48.18 185.593 48.048 184.993 47.784C184.405 47.52 183.901 47.166 183.481 46.722C183.061 46.278 182.737 45.762 182.509 45.174C182.281 44.574 182.167 43.95 182.167 43.302C182.167 42.654 182.281 42.036 182.509 41.448C182.737 40.848 183.061 40.326 183.481 39.882C183.913 39.438 184.423 39.084 185.011 38.82C185.611 38.556 186.277 38.424 187.009 38.424C187.741 38.424 188.401 38.556 188.989 38.82C189.589 39.084 190.099 39.438 190.519 39.882C190.951 40.326 191.281 40.848 191.509 41.448C191.737 42.036 191.851 42.654 191.851 43.302C191.851 43.95 191.737 44.574 191.509 45.174C191.281 45.762 190.951 46.278 190.519 46.722C190.099 47.166 189.589 47.52 188.989 47.784C188.401 48.048 187.741 48.18 187.009 48.18ZM184.201 43.32C184.201 43.776 184.273 44.196 184.417 44.58C184.561 44.964 184.759 45.3 185.011 45.588C185.263 45.864 185.557 46.086 185.893 46.254C186.241 46.41 186.613 46.488 187.009 46.488C187.405 46.488 187.771 46.41 188.107 46.254C188.455 46.086 188.755 45.858 189.007 45.57C189.259 45.282 189.457 44.946 189.601 44.562C189.745 44.178 189.817 43.758 189.817 43.302C189.817 42.858 189.745 42.444 189.601 42.06C189.457 41.664 189.259 41.322 189.007 41.034C188.755 40.746 188.455 40.524 188.107 40.368C187.771 40.2 187.405 40.116 187.009 40.116C186.625 40.116 186.259 40.2 185.911 40.368C185.575 40.536 185.281 40.764 185.029 41.052C184.777 41.34 184.573 41.682 184.417 42.078C184.273 42.462 184.201 42.876 184.201 43.32ZM198.989 38.586C199.325 38.586 199.637 38.646 199.925 38.766C200.225 38.886 200.477 39.054 200.681 39.27C200.897 39.474 201.065 39.72 201.185 40.008C201.305 40.296 201.365 40.602 201.365 40.926C201.365 41.334 201.263 41.748 201.059 42.168C200.855 42.576 200.507 42.882 200.015 43.086C200.555 43.242 200.975 43.518 201.275 43.914C201.587 44.298 201.743 44.796 201.743 45.408C201.743 46.236 201.455 46.878 200.879 47.334C200.303 47.778 199.541 48 198.593 48H193.859V38.586H198.989ZM198.125 42.564C198.521 42.564 198.833 42.456 199.061 42.24C199.301 42.012 199.421 41.688 199.421 41.268C199.421 40.92 199.325 40.626 199.133 40.386C198.941 40.146 198.635 40.026 198.215 40.026H195.803V42.564H198.125ZM198.413 46.56C198.833 46.56 199.163 46.428 199.403 46.164C199.655 45.888 199.781 45.564 199.781 45.192C199.781 44.82 199.661 44.502 199.421 44.238C199.193 43.974 198.869 43.842 198.449 43.842H195.803V46.56H198.413ZM203.741 38.586H205.685V41.7H207.395C207.851 41.7 208.283 41.766 208.691 41.898C209.111 42.03 209.477 42.234 209.789 42.51C210.101 42.774 210.347 43.104 210.527 43.5C210.719 43.896 210.815 44.352 210.815 44.868C210.815 45.396 210.719 45.858 210.527 46.254C210.347 46.638 210.101 46.962 209.789 47.226C209.477 47.49 209.117 47.688 208.709 47.82C208.301 47.94 207.869 48 207.413 48H203.741V38.586ZM211.787 38.586H213.749V48H211.787V38.586ZM207.287 46.398C207.755 46.398 208.127 46.272 208.403 46.02C208.691 45.768 208.835 45.39 208.835 44.886C208.835 44.37 208.685 43.98 208.385 43.716C208.085 43.44 207.725 43.302 207.305 43.302H205.685V46.398H207.287ZM220.614 48.18C219.882 48.18 219.216 48.054 218.616 47.802C218.016 47.538 217.5 47.184 217.068 46.74C216.648 46.296 216.318 45.78 216.078 45.192C215.85 44.604 215.736 43.98 215.736 43.32C215.736 42.66 215.85 42.036 216.078 41.448C216.318 40.848 216.648 40.326 217.068 39.882C217.5 39.426 218.016 39.072 218.616 38.82C219.216 38.556 219.888 38.424 220.632 38.424C221.364 38.424 222.024 38.556 222.612 38.82C223.212 39.084 223.722 39.438 224.142 39.882C224.562 40.314 224.88 40.824 225.096 41.412C225.324 41.988 225.438 42.594 225.438 43.23C225.438 43.374 225.432 43.512 225.42 43.644C225.408 43.764 225.396 43.866 225.384 43.95H217.842C217.878 44.37 217.974 44.748 218.13 45.084C218.298 45.42 218.508 45.714 218.76 45.966C219.024 46.206 219.318 46.392 219.642 46.524C219.978 46.656 220.326 46.722 220.686 46.722C220.95 46.722 221.208 46.692 221.46 46.632C221.724 46.56 221.964 46.464 222.18 46.344C222.396 46.212 222.588 46.056 222.756 45.876C222.924 45.696 223.056 45.498 223.152 45.282L224.844 45.768C224.52 46.476 223.98 47.058 223.224 47.514C222.48 47.958 221.61 48.18 220.614 48.18ZM223.476 42.582C223.44 42.186 223.338 41.82 223.17 41.484C223.014 41.148 222.81 40.866 222.558 40.638C222.306 40.398 222.012 40.212 221.676 40.08C221.34 39.948 220.986 39.882 220.614 39.882C220.242 39.882 219.888 39.948 219.552 40.08C219.228 40.212 218.94 40.398 218.688 40.638C218.436 40.866 218.232 41.148 218.076 41.484C217.92 41.82 217.824 42.186 217.788 42.582H223.476ZM35.796 60.092C34.956 60.284 34.29 60.656 33.798 61.208C33.306 61.748 32.976 62.522 32.808 63.53C33.192 63.05 33.648 62.684 34.176 62.432C34.716 62.18 35.31 62.054 35.958 62.054C36.546 62.054 37.092 62.174 37.596 62.414C38.112 62.642 38.556 62.96 38.928 63.368C39.3 63.776 39.594 64.256 39.81 64.808C40.026 65.36 40.134 65.96 40.134 66.608C40.134 67.268 40.02 67.88 39.792 68.444C39.576 68.996 39.264 69.476 38.856 69.884C38.46 70.292 37.974 70.61 37.398 70.838C36.822 71.066 36.174 71.18 35.454 71.18C33.954 71.18 32.814 70.688 32.034 69.704C31.266 68.708 30.882 67.25 30.882 65.33C30.882 63.29 31.29 61.718 32.106 60.614C32.922 59.51 34.128 58.772 35.724 58.4L38.946 57.662L39.162 59.318L35.796 60.092ZM32.916 66.518C32.916 66.962 32.982 67.37 33.114 67.742C33.246 68.102 33.426 68.42 33.654 68.696C33.894 68.96 34.17 69.17 34.482 69.326C34.806 69.47 35.16 69.542 35.544 69.542C35.916 69.542 36.258 69.47 36.57 69.326C36.894 69.182 37.17 68.984 37.398 68.732C37.626 68.48 37.8 68.174 37.92 67.814C38.052 67.454 38.118 67.058 38.118 66.626C38.118 66.206 38.052 65.822 37.92 65.474C37.788 65.114 37.602 64.808 37.362 64.556C37.134 64.304 36.858 64.112 36.534 63.98C36.21 63.836 35.856 63.764 35.472 63.764C35.088 63.764 34.74 63.83 34.428 63.962C34.116 64.094 33.846 64.286 33.618 64.538C33.402 64.778 33.228 65.066 33.096 65.402C32.976 65.738 32.916 66.11 32.916 66.518ZM40.87 69.344C41.23 69.32 41.53 69.242 41.77 69.11C42.01 68.966 42.214 68.714 42.382 68.354C42.55 67.994 42.688 67.496 42.796 66.86C42.916 66.224 43.03 65.39 43.138 64.358L43.444 61.586H49.654V71H47.692V63.206H45.208L44.974 64.934C44.806 66.146 44.626 67.142 44.434 67.922C44.242 68.702 43.996 69.326 43.696 69.794C43.408 70.25 43.048 70.574 42.616 70.766C42.196 70.958 41.68 71.066 41.068 71.09L40.87 69.344ZM55.4955 65.384C55.5795 64.772 55.7415 64.22 55.9815 63.728C56.2335 63.236 56.5455 62.816 56.9175 62.468C57.2895 62.12 57.7155 61.856 58.1955 61.676C58.6875 61.484 59.2155 61.388 59.7795 61.388C60.4395 61.388 61.0395 61.514 61.5795 61.766C62.1195 62.006 62.5815 62.348 62.9655 62.792C63.3615 63.224 63.6615 63.746 63.8655 64.358C64.0815 64.958 64.1895 65.612 64.1895 66.32C64.1895 67.076 64.0755 67.754 63.8475 68.354C63.6315 68.954 63.3255 69.464 62.9295 69.884C62.5335 70.304 62.0595 70.628 61.5075 70.856C60.9675 71.072 60.3795 71.18 59.7435 71.18C59.1555 71.18 58.6155 71.084 58.1235 70.892C57.6315 70.7 57.1995 70.424 56.8275 70.064C56.4555 69.704 56.1495 69.272 55.9095 68.768C55.6815 68.264 55.5315 67.706 55.4595 67.094H54.2175V71H52.2555V61.586H54.2175V65.384H55.4955ZM57.3495 66.302C57.3495 67.334 57.5655 68.12 57.9975 68.66C58.4295 69.188 59.0175 69.452 59.7615 69.452C60.5535 69.452 61.1655 69.176 61.5975 68.624C62.0295 68.072 62.2455 67.292 62.2455 66.284C62.2455 65.264 62.0175 64.484 61.5615 63.944C61.1175 63.404 60.5175 63.134 59.7615 63.134C58.9935 63.134 58.3995 63.422 57.9795 63.998C57.5595 64.562 57.3495 65.33 57.3495 66.302ZM64.8773 69.29H65.3993C65.6873 69.242 65.9273 69.134 66.1193 68.966C66.3113 68.786 66.4733 68.51 66.6053 68.138C66.7493 67.766 66.8693 67.28 66.9653 66.68C67.0733 66.068 67.1753 65.294 67.2713 64.358L67.5773 61.586H73.7873V69.29H74.9753V73.826H73.2473V71H66.5513V73.826H64.8773V69.29ZM71.8433 69.29V63.206H69.3593L69.1253 64.934C68.9693 66.074 68.7953 66.992 68.6033 67.688C68.4233 68.372 68.1893 68.906 67.9013 69.29H71.8433ZM79.4276 71.18C78.9716 71.18 78.5456 71.108 78.1496 70.964C77.7656 70.808 77.4296 70.598 77.1416 70.334C76.8656 70.07 76.6436 69.758 76.4756 69.398C76.3196 69.038 76.2416 68.648 76.2416 68.228C76.2416 67.784 76.3376 67.382 76.5296 67.022C76.7216 66.662 76.9916 66.35 77.3396 66.086C77.6996 65.822 78.1196 65.618 78.5996 65.474C79.0916 65.33 79.6316 65.258 80.2196 65.258C80.6636 65.258 81.1016 65.3 81.5336 65.384C81.9656 65.456 82.3556 65.558 82.7036 65.69V65.042C82.7036 64.346 82.5056 63.806 82.1096 63.422C81.7136 63.026 81.1436 62.828 80.3996 62.828C79.8956 62.828 79.3976 62.924 78.9056 63.116C78.4256 63.296 77.9276 63.56 77.4116 63.908L76.7996 62.648C78.0116 61.832 79.2716 61.424 80.5796 61.424C81.8756 61.424 82.8836 61.754 83.6036 62.414C84.3236 63.074 84.6836 64.022 84.6836 65.258V68.66C84.6836 69.08 84.8576 69.296 85.2056 69.308V71C85.0136 71.036 84.8456 71.06 84.7016 71.072C84.5696 71.084 84.4376 71.09 84.3056 71.09C83.9216 71.09 83.6216 70.994 83.4056 70.802C83.2016 70.61 83.0756 70.364 83.0276 70.064L82.9736 69.47C82.5536 70.022 82.0316 70.448 81.4076 70.748C80.7956 71.036 80.1356 71.18 79.4276 71.18ZM79.9676 69.722C80.4476 69.722 80.8976 69.638 81.3176 69.47C81.7496 69.29 82.0856 69.044 82.3256 68.732C82.5776 68.516 82.7036 68.288 82.7036 68.048V66.806C82.3676 66.674 82.0076 66.572 81.6236 66.5C81.2516 66.428 80.8856 66.392 80.5256 66.392C79.8176 66.392 79.2356 66.548 78.7796 66.86C78.3356 67.16 78.1136 67.562 78.1136 68.066C78.1136 68.534 78.2876 68.93 78.6356 69.254C78.9836 69.566 79.4276 69.722 79.9676 69.722ZM87.4093 72.746L87.8413 70.892H87.1933V68.696H88.9753V70.892L88.3453 72.746H87.4093ZM101.787 61.586H103.947L100.257 66.158L104.217 71H102.003L98.9252 67.112H98.0432V71H96.0992V61.586H98.0432V65.51H98.7812L101.787 61.586ZM109.456 71.18C108.712 71.18 108.04 71.048 107.44 70.784C106.852 70.52 106.348 70.166 105.928 69.722C105.508 69.278 105.184 68.762 104.956 68.174C104.728 67.574 104.614 66.95 104.614 66.302C104.614 65.654 104.728 65.036 104.956 64.448C105.184 63.848 105.508 63.326 105.928 62.882C106.36 62.438 106.87 62.084 107.458 61.82C108.058 61.556 108.724 61.424 109.456 61.424C110.188 61.424 110.848 61.556 111.436 61.82C112.036 62.084 112.546 62.438 112.966 62.882C113.398 63.326 113.728 63.848 113.956 64.448C114.184 65.036 114.298 65.654 114.298 66.302C114.298 66.95 114.184 67.574 113.956 68.174C113.728 68.762 113.398 69.278 112.966 69.722C112.546 70.166 112.036 70.52 111.436 70.784C110.848 71.048 110.188 71.18 109.456 71.18ZM106.648 66.32C106.648 66.776 106.72 67.196 106.864 67.58C107.008 67.964 107.206 68.3 107.458 68.588C107.71 68.864 108.004 69.086 108.34 69.254C108.688 69.41 109.06 69.488 109.456 69.488C109.852 69.488 110.218 69.41 110.554 69.254C110.902 69.086 111.202 68.858 111.454 68.57C111.706 68.282 111.904 67.946 112.048 67.562C112.192 67.178 112.264 66.758 112.264 66.302C112.264 65.858 112.192 65.444 112.048 65.06C111.904 64.664 111.706 64.322 111.454 64.034C111.202 63.746 110.902 63.524 110.554 63.368C110.218 63.2 109.852 63.116 109.456 63.116C109.072 63.116 108.706 63.2 108.358 63.368C108.022 63.536 107.728 63.764 107.476 64.052C107.224 64.34 107.02 64.682 106.864 65.078C106.72 65.462 106.648 65.876 106.648 66.32ZM119.935 71H117.991V63.296H114.931V61.586H122.995V63.296H119.935V71ZM128.484 71.18C127.74 71.18 127.068 71.048 126.468 70.784C125.88 70.52 125.376 70.166 124.956 69.722C124.536 69.278 124.212 68.762 123.984 68.174C123.756 67.574 123.642 66.95 123.642 66.302C123.642 65.654 123.756 65.036 123.984 64.448C124.212 63.848 124.536 63.326 124.956 62.882C125.388 62.438 125.898 62.084 126.486 61.82C127.086 61.556 127.752 61.424 128.484 61.424C129.216 61.424 129.876 61.556 130.464 61.82C131.064 62.084 131.574 62.438 131.994 62.882C132.426 63.326 132.756 63.848 132.984 64.448C133.212 65.036 133.326 65.654 133.326 66.302C133.326 66.95 133.212 67.574 132.984 68.174C132.756 68.762 132.426 69.278 131.994 69.722C131.574 70.166 131.064 70.52 130.464 70.784C129.876 71.048 129.216 71.18 128.484 71.18ZM125.676 66.32C125.676 66.776 125.748 67.196 125.892 67.58C126.036 67.964 126.234 68.3 126.486 68.588C126.738 68.864 127.032 69.086 127.368 69.254C127.716 69.41 128.088 69.488 128.484 69.488C128.88 69.488 129.246 69.41 129.582 69.254C129.93 69.086 130.23 68.858 130.482 68.57C130.734 68.282 130.932 67.946 131.076 67.562C131.22 67.178 131.292 66.758 131.292 66.302C131.292 65.858 131.22 65.444 131.076 65.06C130.932 64.664 130.734 64.322 130.482 64.034C130.23 63.746 129.93 63.524 129.582 63.368C129.246 63.2 128.88 63.116 128.484 63.116C128.1 63.116 127.734 63.2 127.386 63.368C127.05 63.536 126.756 63.764 126.504 64.052C126.252 64.34 126.048 64.682 125.892 65.078C125.748 65.462 125.676 65.876 125.676 66.32ZM140.644 71.18C139.888 71.18 139.222 71 138.646 70.64C138.07 70.28 137.614 69.812 137.278 69.236V74.834H135.298V61.586H137.044V63.278C137.404 62.714 137.866 62.264 138.43 61.928C139.006 61.592 139.654 61.424 140.374 61.424C141.022 61.424 141.616 61.556 142.156 61.82C142.696 62.084 143.164 62.438 143.56 62.882C143.956 63.326 144.262 63.842 144.478 64.43C144.706 65.018 144.82 65.636 144.82 66.284C144.82 66.968 144.718 67.61 144.514 68.21C144.31 68.798 144.022 69.314 143.65 69.758C143.278 70.19 142.834 70.538 142.318 70.802C141.814 71.054 141.256 71.18 140.644 71.18ZM139.996 69.488C140.416 69.488 140.794 69.398 141.13 69.218C141.478 69.038 141.772 68.798 142.012 68.498C142.264 68.198 142.456 67.856 142.588 67.472C142.72 67.088 142.786 66.692 142.786 66.284C142.786 65.852 142.708 65.444 142.552 65.06C142.408 64.676 142.204 64.34 141.94 64.052C141.688 63.764 141.382 63.536 141.022 63.368C140.662 63.2 140.272 63.116 139.852 63.116C139.6 63.116 139.336 63.164 139.06 63.26C138.784 63.356 138.526 63.488 138.286 63.656C138.046 63.824 137.836 64.022 137.656 64.25C137.476 64.466 137.35 64.706 137.278 64.97V67.436C137.398 67.724 137.554 67.994 137.746 68.246C137.938 68.498 138.148 68.714 138.376 68.894C138.616 69.074 138.874 69.218 139.15 69.326C139.426 69.434 139.708 69.488 139.996 69.488ZM146.816 61.586H148.76V64.7H150.47C150.926 64.7 151.358 64.766 151.766 64.898C152.186 65.03 152.552 65.234 152.864 65.51C153.176 65.774 153.422 66.104 153.602 66.5C153.794 66.896 153.89 67.352 153.89 67.868C153.89 68.396 153.794 68.858 153.602 69.254C153.422 69.638 153.176 69.962 152.864 70.226C152.552 70.49 152.192 70.688 151.784 70.82C151.376 70.94 150.944 71 150.488 71H146.816V61.586ZM154.862 61.586H156.824V71H154.862V61.586ZM150.362 69.398C150.83 69.398 151.202 69.272 151.478 69.02C151.766 68.768 151.91 68.39 151.91 67.886C151.91 67.37 151.76 66.98 151.46 66.716C151.16 66.44 150.8 66.302 150.38 66.302H148.76V69.398H150.362ZM163.689 71.18C162.957 71.18 162.291 71.054 161.691 70.802C161.091 70.538 160.575 70.184 160.143 69.74C159.723 69.296 159.393 68.78 159.153 68.192C158.925 67.604 158.811 66.98 158.811 66.32C158.811 65.66 158.925 65.036 159.153 64.448C159.393 63.848 159.723 63.326 160.143 62.882C160.575 62.426 161.091 62.072 161.691 61.82C162.291 61.556 162.963 61.424 163.707 61.424C164.439 61.424 165.099 61.556 165.687 61.82C166.287 62.084 166.797 62.438 167.217 62.882C167.637 63.314 167.955 63.824 168.171 64.412C168.399 64.988 168.513 65.594 168.513 66.23C168.513 66.374 168.507 66.512 168.495 66.644C168.483 66.764 168.471 66.866 168.459 66.95H160.917C160.953 67.37 161.049 67.748 161.205 68.084C161.373 68.42 161.583 68.714 161.835 68.966C162.099 69.206 162.393 69.392 162.717 69.524C163.053 69.656 163.401 69.722 163.761 69.722C164.025 69.722 164.283 69.692 164.535 69.632C164.799 69.56 165.039 69.464 165.255 69.344C165.471 69.212 165.663 69.056 165.831 68.876C165.999 68.696 166.131 68.498 166.227 68.282L167.919 68.768C167.595 69.476 167.055 70.058 166.299 70.514C165.555 70.958 164.685 71.18 163.689 71.18ZM166.551 65.582C166.515 65.186 166.413 64.82 166.245 64.484C166.089 64.148 165.885 63.866 165.633 63.638C165.381 63.398 165.087 63.212 164.751 63.08C164.415 62.948 164.061 62.882 163.689 62.882C163.317 62.882 162.963 62.948 162.627 63.08C162.303 63.212 162.015 63.398 161.763 63.638C161.511 63.866 161.307 64.148 161.151 64.484C160.995 64.82 160.899 65.186 160.863 65.582H166.551ZM36.228 90.094L39.234 84.586H41.232V94H39.324V87.826L36.75 92.524H35.724L33.132 87.826V94H31.224V84.586H33.24L36.228 90.094ZM48.0609 94.18C47.3169 94.18 46.6449 94.048 46.0449 93.784C45.4569 93.52 44.9529 93.166 44.5329 92.722C44.1129 92.278 43.7889 91.762 43.5609 91.174C43.3329 90.574 43.2189 89.95 43.2189 89.302C43.2189 88.654 43.3329 88.036 43.5609 87.448C43.7889 86.848 44.1129 86.326 44.5329 85.882C44.9649 85.438 45.4749 85.084 46.0629 84.82C46.6629 84.556 47.3289 84.424 48.0609 84.424C48.7929 84.424 49.4529 84.556 50.0409 84.82C50.6409 85.084 51.1509 85.438 51.5709 85.882C52.0029 86.326 52.3329 86.848 52.5609 87.448C52.7889 88.036 52.9029 88.654 52.9029 89.302C52.9029 89.95 52.7889 90.574 52.5609 91.174C52.3329 91.762 52.0029 92.278 51.5709 92.722C51.1509 93.166 50.6409 93.52 50.0409 93.784C49.4529 94.048 48.7929 94.18 48.0609 94.18ZM45.2529 89.32C45.2529 89.776 45.3249 90.196 45.4689 90.58C45.6129 90.964 45.8109 91.3 46.0629 91.588C46.3149 91.864 46.6089 92.086 46.9449 92.254C47.2929 92.41 47.6649 92.488 48.0609 92.488C48.4569 92.488 48.8229 92.41 49.1589 92.254C49.5069 92.086 49.8069 91.858 50.0589 91.57C50.3109 91.282 50.5089 90.946 50.6529 90.562C50.7969 90.178 50.8689 89.758 50.8689 89.302C50.8689 88.858 50.7969 88.444 50.6529 88.06C50.5089 87.664 50.3109 87.322 50.0589 87.034C49.8069 86.746 49.5069 86.524 49.1589 86.368C48.8229 86.2 48.4569 86.116 48.0609 86.116C47.6769 86.116 47.3109 86.2 46.9629 86.368C46.6269 86.536 46.3329 86.764 46.0809 87.052C45.8289 87.34 45.6249 87.682 45.4689 88.078C45.3249 88.462 45.2529 88.876 45.2529 89.32ZM55.9793 84.586L58.3193 88.546H59.5433V84.586H61.5593V88.546H62.7833L65.1233 84.586H67.3193L64.4393 89.158L67.6073 94H65.3393L62.9993 90.112H61.5413V94H59.5613V90.112H58.1213L55.7813 94H53.4953L56.6453 89.158L53.7653 84.586H55.9793ZM73.0663 94.18C72.3343 94.18 71.6683 94.054 71.0683 93.802C70.4683 93.538 69.9523 93.184 69.5203 92.74C69.1003 92.296 68.7703 91.78 68.5303 91.192C68.3023 90.604 68.1883 89.98 68.1883 89.32C68.1883 88.66 68.3023 88.036 68.5303 87.448C68.7703 86.848 69.1003 86.326 69.5203 85.882C69.9523 85.426 70.4683 85.072 71.0683 84.82C71.6683 84.556 72.3403 84.424 73.0843 84.424C73.8163 84.424 74.4763 84.556 75.0643 84.82C75.6643 85.084 76.1743 85.438 76.5943 85.882C77.0143 86.314 77.3323 86.824 77.5483 87.412C77.7763 87.988 77.8903 88.594 77.8903 89.23C77.8903 89.374 77.8843 89.512 77.8723 89.644C77.8603 89.764 77.8483 89.866 77.8363 89.95H70.2943C70.3303 90.37 70.4263 90.748 70.5823 91.084C70.7503 91.42 70.9603 91.714 71.2123 91.966C71.4763 92.206 71.7703 92.392 72.0943 92.524C72.4303 92.656 72.7783 92.722 73.1383 92.722C73.4023 92.722 73.6603 92.692 73.9123 92.632C74.1763 92.56 74.4163 92.464 74.6323 92.344C74.8483 92.212 75.0403 92.056 75.2083 91.876C75.3763 91.696 75.5083 91.498 75.6043 91.282L77.2963 91.768C76.9723 92.476 76.4323 93.058 75.6763 93.514C74.9323 93.958 74.0623 94.18 73.0663 94.18ZM75.9283 88.582C75.8923 88.186 75.7903 87.82 75.6223 87.484C75.4663 87.148 75.2623 86.866 75.0103 86.638C74.7583 86.398 74.4643 86.212 74.1283 86.08C73.7923 85.948 73.4383 85.882 73.0663 85.882C72.6943 85.882 72.3403 85.948 72.0043 86.08C71.6803 86.212 71.3923 86.398 71.1403 86.638C70.8883 86.866 70.6843 87.148 70.5283 87.484C70.3723 87.82 70.2763 88.186 70.2403 88.582H75.9283ZM83.439 94H81.495V86.296H78.435V84.586H86.499V86.296H83.439V94ZM92.0239 94.18C91.2919 94.18 90.6259 94.054 90.0259 93.802C89.4259 93.538 88.9099 93.184 88.4779 92.74C88.0579 92.296 87.7279 91.78 87.4879 91.192C87.2599 90.604 87.1459 89.98 87.1459 89.32C87.1459 88.66 87.2599 88.036 87.4879 87.448C87.7279 86.848 88.0579 86.326 88.4779 85.882C88.9099 85.426 89.4259 85.072 90.0259 84.82C90.6259 84.556 91.2979 84.424 92.0419 84.424C92.7739 84.424 93.4339 84.556 94.0219 84.82C94.6219 85.084 95.1319 85.438 95.5519 85.882C95.9719 86.314 96.2899 86.824 96.5059 87.412C96.7339 87.988 96.8479 88.594 96.8479 89.23C96.8479 89.374 96.8419 89.512 96.8299 89.644C96.8179 89.764 96.8059 89.866 96.7939 89.95H89.2519C89.2879 90.37 89.3839 90.748 89.5399 91.084C89.7079 91.42 89.9179 91.714 90.1699 91.966C90.4339 92.206 90.7279 92.392 91.0519 92.524C91.3879 92.656 91.7359 92.722 92.0959 92.722C92.3599 92.722 92.6179 92.692 92.8699 92.632C93.1339 92.56 93.3739 92.464 93.5899 92.344C93.8059 92.212 93.9979 92.056 94.1659 91.876C94.3339 91.696 94.4659 91.498 94.5619 91.282L96.2539 91.768C95.9299 92.476 95.3899 93.058 94.6339 93.514C93.8899 93.958 93.0199 94.18 92.0239 94.18ZM94.8859 88.582C94.8499 88.186 94.7479 87.82 94.5799 87.484C94.4239 87.148 94.2199 86.866 93.9679 86.638C93.7159 86.398 93.4219 86.212 93.0859 86.08C92.7499 85.948 92.3959 85.882 92.0239 85.882C91.6519 85.882 91.2979 85.948 90.9619 86.08C90.6379 86.212 90.3499 86.398 90.0979 86.638C89.8459 86.866 89.6419 87.148 89.4859 87.484C89.3299 87.82 89.2339 88.186 89.1979 88.582H94.8859ZM108.652 94.18C107.896 94.18 107.23 94 106.654 93.64C106.078 93.28 105.622 92.812 105.286 92.236V97.834H103.306V84.586H105.052V86.278C105.412 85.714 105.874 85.264 106.438 84.928C107.014 84.592 107.662 84.424 108.382 84.424C109.03 84.424 109.624 84.556 110.164 84.82C110.704 85.084 111.172 85.438 111.568 85.882C111.964 86.326 112.27 86.842 112.486 87.43C112.714 88.018 112.828 88.636 112.828 89.284C112.828 89.968 112.726 90.61 112.522 91.21C112.318 91.798 112.03 92.314 111.658 92.758C111.286 93.19 110.842 93.538 110.326 93.802C109.822 94.054 109.264 94.18 108.652 94.18ZM108.004 92.488C108.424 92.488 108.802 92.398 109.138 92.218C109.486 92.038 109.78 91.798 110.02 91.498C110.272 91.198 110.464 90.856 110.596 90.472C110.728 90.088 110.794 89.692 110.794 89.284C110.794 88.852 110.716 88.444 110.56 88.06C110.416 87.676 110.212 87.34 109.948 87.052C109.696 86.764 109.39 86.536 109.03 86.368C108.67 86.2 108.28 86.116 107.86 86.116C107.608 86.116 107.344 86.164 107.068 86.26C106.792 86.356 106.534 86.488 106.294 86.656C106.054 86.824 105.844 87.022 105.664 87.25C105.484 87.466 105.358 87.706 105.286 87.97V90.436C105.406 90.724 105.562 90.994 105.754 91.246C105.946 91.498 106.156 91.714 106.384 91.894C106.624 92.074 106.882 92.218 107.158 92.326C107.434 92.434 107.716 92.488 108.004 92.488ZM117.29 94.18C116.834 94.18 116.408 94.108 116.012 93.964C115.628 93.808 115.292 93.598 115.004 93.334C114.728 93.07 114.506 92.758 114.338 92.398C114.182 92.038 114.104 91.648 114.104 91.228C114.104 90.784 114.2 90.382 114.392 90.022C114.584 89.662 114.854 89.35 115.202 89.086C115.562 88.822 115.982 88.618 116.462 88.474C116.954 88.33 117.494 88.258 118.082 88.258C118.526 88.258 118.964 88.3 119.396 88.384C119.828 88.456 120.218 88.558 120.566 88.69V88.042C120.566 87.346 120.368 86.806 119.972 86.422C119.576 86.026 119.006 85.828 118.262 85.828C117.758 85.828 117.26 85.924 116.768 86.116C116.288 86.296 115.79 86.56 115.274 86.908L114.662 85.648C115.874 84.832 117.134 84.424 118.442 84.424C119.738 84.424 120.746 84.754 121.466 85.414C122.186 86.074 122.546 87.022 122.546 88.258V91.66C122.546 92.08 122.72 92.296 123.068 92.308V94C122.876 94.036 122.708 94.06 122.564 94.072C122.432 94.084 122.3 94.09 122.168 94.09C121.784 94.09 121.484 93.994 121.268 93.802C121.064 93.61 120.938 93.364 120.89 93.064L120.836 92.47C120.416 93.022 119.894 93.448 119.27 93.748C118.658 94.036 117.998 94.18 117.29 94.18ZM117.83 92.722C118.31 92.722 118.76 92.638 119.18 92.47C119.612 92.29 119.948 92.044 120.188 91.732C120.44 91.516 120.566 91.288 120.566 91.048V89.806C120.23 89.674 119.87 89.572 119.486 89.5C119.114 89.428 118.748 89.392 118.388 89.392C117.68 89.392 117.098 89.548 116.642 89.86C116.198 90.16 115.976 90.562 115.976 91.066C115.976 91.534 116.15 91.93 116.498 92.254C116.846 92.566 117.29 92.722 117.83 92.722ZM124.642 85.576C125.05 85.192 125.5 84.904 125.992 84.712C126.496 84.52 127.03 84.424 127.594 84.424C128.014 84.424 128.398 84.478 128.746 84.586C129.106 84.694 129.412 84.85 129.664 85.054C129.928 85.246 130.132 85.492 130.276 85.792C130.42 86.08 130.492 86.41 130.492 86.782C130.492 87.31 130.348 87.766 130.06 88.15C129.784 88.522 129.394 88.744 128.89 88.816C129.574 88.924 130.102 89.2 130.474 89.644C130.846 90.076 131.032 90.622 131.032 91.282C131.032 91.714 130.942 92.11 130.762 92.47C130.594 92.818 130.354 93.124 130.042 93.388C129.73 93.64 129.358 93.838 128.926 93.982C128.494 94.114 128.02 94.18 127.504 94.18C126.148 94.18 125.098 93.724 124.354 92.812L125.344 91.498C125.836 92.17 126.532 92.506 127.432 92.506C127.972 92.506 128.386 92.392 128.674 92.164C128.974 91.924 129.124 91.576 129.124 91.12C129.124 90.076 128.374 89.554 126.874 89.554H126.208V88.258H126.874C127.45 88.258 127.9 88.138 128.224 87.898C128.548 87.658 128.71 87.34 128.71 86.944C128.71 86.62 128.59 86.368 128.35 86.188C128.122 85.996 127.81 85.9 127.414 85.9C126.766 85.9 126.142 86.164 125.542 86.692L124.642 85.576ZM137.185 94.18C136.441 94.18 135.769 94.048 135.169 93.784C134.581 93.52 134.077 93.166 133.657 92.722C133.237 92.278 132.913 91.762 132.685 91.174C132.457 90.574 132.343 89.95 132.343 89.302C132.343 88.654 132.457 88.036 132.685 87.448C132.913 86.848 133.237 86.326 133.657 85.882C134.089 85.438 134.599 85.084 135.187 84.82C135.787 84.556 136.453 84.424 137.185 84.424C137.917 84.424 138.577 84.556 139.165 84.82C139.765 85.084 140.275 85.438 140.695 85.882C141.127 86.326 141.457 86.848 141.685 87.448C141.913 88.036 142.027 88.654 142.027 89.302C142.027 89.95 141.913 90.574 141.685 91.174C141.457 91.762 141.127 92.278 140.695 92.722C140.275 93.166 139.765 93.52 139.165 93.784C138.577 94.048 137.917 94.18 137.185 94.18ZM134.377 89.32C134.377 89.776 134.449 90.196 134.593 90.58C134.737 90.964 134.935 91.3 135.187 91.588C135.439 91.864 135.733 92.086 136.069 92.254C136.417 92.41 136.789 92.488 137.185 92.488C137.581 92.488 137.947 92.41 138.283 92.254C138.631 92.086 138.931 91.858 139.183 91.57C139.435 91.282 139.633 90.946 139.777 90.562C139.921 90.178 139.993 89.758 139.993 89.302C139.993 88.858 139.921 88.444 139.777 88.06C139.633 87.664 139.435 87.322 139.183 87.034C138.931 86.746 138.631 86.524 138.283 86.368C137.947 86.2 137.581 86.116 137.185 86.116C136.801 86.116 136.435 86.2 136.087 86.368C135.751 86.536 135.457 86.764 135.205 87.052C134.953 87.34 134.749 87.682 134.593 88.078C134.449 88.462 134.377 88.876 134.377 89.32ZM150.155 86.152H145.943V94H143.999V84.586H150.155V86.152ZM157.207 94.18C156.451 94.18 155.785 94 155.209 93.64C154.633 93.28 154.177 92.812 153.841 92.236V97.834H151.861V84.586H153.607V86.278C153.967 85.714 154.429 85.264 154.993 84.928C155.569 84.592 156.217 84.424 156.937 84.424C157.585 84.424 158.179 84.556 158.719 84.82C159.259 85.084 159.727 85.438 160.123 85.882C160.519 86.326 160.825 86.842 161.041 87.43C161.269 88.018 161.383 88.636 161.383 89.284C161.383 89.968 161.281 90.61 161.077 91.21C160.873 91.798 160.585 92.314 160.213 92.758C159.841 93.19 159.397 93.538 158.881 93.802C158.377 94.054 157.819 94.18 157.207 94.18ZM156.559 92.488C156.979 92.488 157.357 92.398 157.693 92.218C158.041 92.038 158.335 91.798 158.575 91.498C158.827 91.198 159.019 90.856 159.151 90.472C159.283 90.088 159.349 89.692 159.349 89.284C159.349 88.852 159.271 88.444 159.115 88.06C158.971 87.676 158.767 87.34 158.503 87.052C158.251 86.764 157.945 86.536 157.585 86.368C157.225 86.2 156.835 86.116 156.415 86.116C156.163 86.116 155.899 86.164 155.623 86.26C155.347 86.356 155.089 86.488 154.849 86.656C154.609 86.824 154.399 87.022 154.219 87.25C154.039 87.466 153.913 87.706 153.841 87.97V90.436C153.961 90.724 154.117 90.994 154.309 91.246C154.501 91.498 154.711 91.714 154.939 91.894C155.179 92.074 155.437 92.218 155.713 92.326C155.989 92.434 156.271 92.488 156.559 92.488ZM167.608 94.18C166.876 94.18 166.21 94.054 165.61 93.802C165.01 93.538 164.494 93.184 164.062 92.74C163.642 92.296 163.312 91.78 163.072 91.192C162.844 90.604 162.73 89.98 162.73 89.32C162.73 88.66 162.844 88.036 163.072 87.448C163.312 86.848 163.642 86.326 164.062 85.882C164.494 85.426 165.01 85.072 165.61 84.82C166.21 84.556 166.882 84.424 167.626 84.424C168.358 84.424 169.018 84.556 169.606 84.82C170.206 85.084 170.716 85.438 171.136 85.882C171.556 86.314 171.874 86.824 172.09 87.412C172.318 87.988 172.432 88.594 172.432 89.23C172.432 89.374 172.426 89.512 172.414 89.644C172.402 89.764 172.39 89.866 172.378 89.95H164.836C164.872 90.37 164.968 90.748 165.124 91.084C165.292 91.42 165.502 91.714 165.754 91.966C166.018 92.206 166.312 92.392 166.636 92.524C166.972 92.656 167.32 92.722 167.68 92.722C167.944 92.722 168.202 92.692 168.454 92.632C168.718 92.56 168.958 92.464 169.174 92.344C169.39 92.212 169.582 92.056 169.75 91.876C169.918 91.696 170.05 91.498 170.146 91.282L171.838 91.768C171.514 92.476 170.974 93.058 170.218 93.514C169.474 93.958 168.604 94.18 167.608 94.18ZM170.47 88.582C170.434 88.186 170.332 87.82 170.164 87.484C170.008 87.148 169.804 86.866 169.552 86.638C169.3 86.398 169.006 86.212 168.67 86.08C168.334 85.948 167.98 85.882 167.608 85.882C167.236 85.882 166.882 85.948 166.546 86.08C166.222 86.212 165.934 86.398 165.682 86.638C165.43 86.866 165.226 87.148 165.07 87.484C164.914 87.82 164.818 88.186 164.782 88.582H170.47ZM177.981 94H176.037V86.296H172.977V84.586H181.041V86.296H177.981V94ZM182.793 84.586H184.737V87.7H186.555C187.011 87.7 187.443 87.766 187.851 87.898C188.271 88.03 188.637 88.234 188.949 88.51C189.273 88.774 189.525 89.104 189.705 89.5C189.897 89.896 189.993 90.352 189.993 90.868C189.993 91.396 189.897 91.858 189.705 92.254C189.525 92.638 189.279 92.962 188.967 93.226C188.655 93.49 188.289 93.688 187.869 93.82C187.461 93.94 187.035 94 186.591 94H182.793V84.586ZM186.465 92.398C186.921 92.398 187.293 92.272 187.581 92.02C187.869 91.768 188.013 91.39 188.013 90.886C188.013 90.37 187.863 89.98 187.563 89.716C187.263 89.44 186.903 89.302 186.483 89.302H184.737V92.398H186.465ZM191.905 95.746L192.337 93.892H191.689V91.696H193.471V93.892L192.841 95.746H191.905ZM36.912 107.586H39.072L35.382 112.158L39.342 117H37.128L34.05 113.112H33.168V117H31.224V107.586H33.168V111.51H33.906L36.912 107.586ZM44.5804 117.18C43.8364 117.18 43.1644 117.048 42.5644 116.784C41.9764 116.52 41.4724 116.166 41.0524 115.722C40.6324 115.278 40.3084 114.762 40.0804 114.174C39.8524 113.574 39.7384 112.95 39.7384 112.302C39.7384 111.654 39.8524 111.036 40.0804 110.448C40.3084 109.848 40.6324 109.326 41.0524 108.882C41.4844 108.438 41.9944 108.084 42.5824 107.82C43.1824 107.556 43.8484 107.424 44.5804 107.424C45.3124 107.424 45.9724 107.556 46.5604 107.82C47.1604 108.084 47.6704 108.438 48.0904 108.882C48.5224 109.326 48.8524 109.848 49.0804 110.448C49.3084 111.036 49.4224 111.654 49.4224 112.302C49.4224 112.95 49.3084 113.574 49.0804 114.174C48.8524 114.762 48.5224 115.278 48.0904 115.722C47.6704 116.166 47.1604 116.52 46.5604 116.784C45.9724 117.048 45.3124 117.18 44.5804 117.18ZM41.7724 112.32C41.7724 112.776 41.8444 113.196 41.9884 113.58C42.1324 113.964 42.3304 114.3 42.5824 114.588C42.8344 114.864 43.1284 115.086 43.4644 115.254C43.8124 115.41 44.1844 115.488 44.5804 115.488C44.9764 115.488 45.3424 115.41 45.6784 115.254C46.0264 115.086 46.3264 114.858 46.5784 114.57C46.8304 114.282 47.0284 113.946 47.1724 113.562C47.3164 113.178 47.3884 112.758 47.3884 112.302C47.3884 111.858 47.3164 111.444 47.1724 111.06C47.0284 110.664 46.8304 110.322 46.5784 110.034C46.3264 109.746 46.0264 109.524 45.6784 109.368C45.3424 109.2 44.9764 109.116 44.5804 109.116C44.1964 109.116 43.8304 109.2 43.4824 109.368C43.1464 109.536 42.8524 109.764 42.6004 110.052C42.3484 110.34 42.1444 110.682 41.9884 111.078C41.8444 111.462 41.7724 111.876 41.7724 112.32ZM57.5505 109.152H53.3385V117H51.3945V107.586H57.5505V109.152ZM56.9319 115.29H57.4539C57.7419 115.242 57.9819 115.134 58.1739 114.966C58.3659 114.786 58.5279 114.51 58.6599 114.138C58.8039 113.766 58.9239 113.28 59.0199 112.68C59.1279 112.068 59.2299 111.294 59.3259 110.358L59.6319 107.586H65.8419V115.29H67.0299V119.826H65.3019V117H58.6059V119.826H56.9319V115.29ZM63.8979 115.29V109.206H61.4139L61.1799 110.934C61.0239 112.074 60.8499 112.992 60.6579 113.688C60.4779 114.372 60.2439 114.906 59.9559 115.29H63.8979ZM71.4823 117.18C71.0263 117.18 70.6003 117.108 70.2043 116.964C69.8203 116.808 69.4843 116.598 69.1963 116.334C68.9203 116.07 68.6983 115.758 68.5303 115.398C68.3743 115.038 68.2963 114.648 68.2963 114.228C68.2963 113.784 68.3923 113.382 68.5843 113.022C68.7763 112.662 69.0463 112.35 69.3943 112.086C69.7543 111.822 70.1743 111.618 70.6543 111.474C71.1463 111.33 71.6863 111.258 72.2743 111.258C72.7183 111.258 73.1563 111.3 73.5883 111.384C74.0203 111.456 74.4103 111.558 74.7583 111.69V111.042C74.7583 110.346 74.5603 109.806 74.1643 109.422C73.7683 109.026 73.1983 108.828 72.4543 108.828C71.9503 108.828 71.4523 108.924 70.9603 109.116C70.4803 109.296 69.9823 109.56 69.4663 109.908L68.8543 108.648C70.0663 107.832 71.3263 107.424 72.6343 107.424C73.9303 107.424 74.9383 107.754 75.6583 108.414C76.3783 109.074 76.7383 110.022 76.7383 111.258V114.66C76.7383 115.08 76.9123 115.296 77.2603 115.308V117C77.0683 117.036 76.9003 117.06 76.7563 117.072C76.6243 117.084 76.4923 117.09 76.3603 117.09C75.9763 117.09 75.6763 116.994 75.4603 116.802C75.2563 116.61 75.1303 116.364 75.0823 116.064L75.0283 115.47C74.6083 116.022 74.0863 116.448 73.4623 116.748C72.8503 117.036 72.1903 117.18 71.4823 117.18ZM72.0223 115.722C72.5023 115.722 72.9523 115.638 73.3723 115.47C73.8043 115.29 74.1403 115.044 74.3803 114.732C74.6323 114.516 74.7583 114.288 74.7583 114.048V112.806C74.4223 112.674 74.0623 112.572 73.6783 112.5C73.3063 112.428 72.9403 112.392 72.5803 112.392C71.8723 112.392 71.2903 112.548 70.8343 112.86C70.3903 113.16 70.1683 113.562 70.1683 114.066C70.1683 114.534 70.3423 114.93 70.6903 115.254C71.0383 115.566 71.4823 115.722 72.0223 115.722ZM89.1673 107.586C89.5033 107.586 89.8153 107.646 90.1033 107.766C90.4033 107.886 90.6553 108.054 90.8593 108.27C91.0753 108.474 91.2433 108.72 91.3633 109.008C91.4833 109.296 91.5433 109.602 91.5433 109.926C91.5433 110.334 91.4413 110.748 91.2373 111.168C91.0333 111.576 90.6853 111.882 90.1933 112.086C90.7333 112.242 91.1533 112.518 91.4533 112.914C91.7653 113.298 91.9213 113.796 91.9213 114.408C91.9213 115.236 91.6333 115.878 91.0573 116.334C90.4813 116.778 89.7193 117 88.7713 117H84.0373V107.586H89.1673ZM88.3033 111.564C88.6993 111.564 89.0113 111.456 89.2393 111.24C89.4793 111.012 89.5993 110.688 89.5993 110.268C89.5993 109.92 89.5033 109.626 89.3113 109.386C89.1193 109.146 88.8133 109.026 88.3933 109.026H85.9813V111.564H88.3033ZM88.5913 115.56C89.0113 115.56 89.3413 115.428 89.5813 115.164C89.8333 114.888 89.9593 114.564 89.9593 114.192C89.9593 113.82 89.8393 113.502 89.5993 113.238C89.3713 112.974 89.0473 112.842 88.6273 112.842H85.9813V115.56H88.5913ZM96.3855 117.18C95.9295 117.18 95.5035 117.108 95.1075 116.964C94.7235 116.808 94.3875 116.598 94.0995 116.334C93.8235 116.07 93.6015 115.758 93.4335 115.398C93.2775 115.038 93.1995 114.648 93.1995 114.228C93.1995 113.784 93.2955 113.382 93.4875 113.022C93.6795 112.662 93.9495 112.35 94.2975 112.086C94.6575 111.822 95.0775 111.618 95.5575 111.474C96.0495 111.33 96.5895 111.258 97.1775 111.258C97.6215 111.258 98.0595 111.3 98.4915 111.384C98.9235 111.456 99.3135 111.558 99.6615 111.69V111.042C99.6615 110.346 99.4635 109.806 99.0675 109.422C98.6715 109.026 98.1015 108.828 97.3575 108.828C96.8535 108.828 96.3555 108.924 95.8635 109.116C95.3835 109.296 94.8855 109.56 94.3695 109.908L93.7575 108.648C94.9695 107.832 96.2295 107.424 97.5375 107.424C98.8335 107.424 99.8415 107.754 100.562 108.414C101.282 109.074 101.642 110.022 101.642 111.258V114.66C101.642 115.08 101.816 115.296 102.164 115.308V117C101.972 117.036 101.804 117.06 101.66 117.072C101.528 117.084 101.396 117.09 101.264 117.09C100.88 117.09 100.58 116.994 100.364 116.802C100.16 116.61 100.034 116.364 99.9855 116.064L99.9315 115.47C99.5115 116.022 98.9895 116.448 98.3655 116.748C97.7535 117.036 97.0935 117.18 96.3855 117.18ZM96.9255 115.722C97.4055 115.722 97.8555 115.638 98.2755 115.47C98.7075 115.29 99.0435 115.044 99.2835 114.732C99.5355 114.516 99.6615 114.288 99.6615 114.048V112.806C99.3255 112.674 98.9655 112.572 98.5815 112.5C98.2095 112.428 97.8435 112.392 97.4835 112.392C96.7755 112.392 96.1935 112.548 95.7375 112.86C95.2935 113.16 95.0715 113.562 95.0715 114.066C95.0715 114.534 95.2455 114.93 95.5935 115.254C95.9415 115.566 96.3855 115.722 96.9255 115.722ZM109.281 113.094L112.287 107.586H114.285V117H112.377V110.826L109.803 115.524H108.777L106.185 110.826V117H104.277V107.586H106.293L109.281 113.094ZM121.637 118.926C121.841 119.082 122.039 119.19 122.231 119.25C122.423 119.31 122.615 119.34 122.807 119.34C123.119 119.34 123.395 119.166 123.635 118.818C123.887 118.482 124.127 117.876 124.355 117L120.485 107.586H122.519L125.435 115.254L128.027 107.586H129.899L125.993 118.26C125.609 119.304 125.177 120.03 124.697 120.438C124.229 120.846 123.659 121.05 122.987 121.05C122.699 121.05 122.447 121.02 122.231 120.96C122.015 120.9 121.817 120.792 121.637 120.636V118.926ZM129.686 115.29H130.208C130.496 115.242 130.736 115.134 130.928 114.966C131.12 114.786 131.282 114.51 131.414 114.138C131.558 113.766 131.678 113.28 131.774 112.68C131.882 112.068 131.984 111.294 132.08 110.358L132.386 107.586H138.596V115.29H139.784V119.826H138.056V117H131.36V119.826H129.686V115.29ZM136.652 115.29V109.206H134.168L133.934 110.934C133.778 112.074 133.604 112.992 133.412 113.688C133.232 114.372 132.998 114.906 132.71 115.29H136.652ZM145.859 117.18C145.115 117.18 144.443 117.048 143.843 116.784C143.255 116.52 142.751 116.166 142.331 115.722C141.911 115.278 141.587 114.762 141.359 114.174C141.131 113.574 141.017 112.95 141.017 112.302C141.017 111.654 141.131 111.036 141.359 110.448C141.587 109.848 141.911 109.326 142.331 108.882C142.763 108.438 143.273 108.084 143.861 107.82C144.461 107.556 145.127 107.424 145.859 107.424C146.591 107.424 147.251 107.556 147.839 107.82C148.439 108.084 148.949 108.438 149.369 108.882C149.801 109.326 150.131 109.848 150.359 110.448C150.587 111.036 150.701 111.654 150.701 112.302C150.701 112.95 150.587 113.574 150.359 114.174C150.131 114.762 149.801 115.278 149.369 115.722C148.949 116.166 148.439 116.52 147.839 116.784C147.251 117.048 146.591 117.18 145.859 117.18ZM143.051 112.32C143.051 112.776 143.123 113.196 143.267 113.58C143.411 113.964 143.609 114.3 143.861 114.588C144.113 114.864 144.407 115.086 144.743 115.254C145.091 115.41 145.463 115.488 145.859 115.488C146.255 115.488 146.621 115.41 146.957 115.254C147.305 115.086 147.605 114.858 147.857 114.57C148.109 114.282 148.307 113.946 148.451 113.562C148.595 113.178 148.667 112.758 148.667 112.302C148.667 111.858 148.595 111.444 148.451 111.06C148.307 110.664 148.109 110.322 147.857 110.034C147.605 109.746 147.305 109.524 146.957 109.368C146.621 109.2 146.255 109.116 145.859 109.116C145.475 109.116 145.109 109.2 144.761 109.368C144.425 109.536 144.131 109.764 143.879 110.052C143.627 110.34 143.423 110.682 143.267 111.078C143.123 111.462 143.051 111.876 143.051 112.32ZM157.245 106.092C156.405 106.284 155.739 106.656 155.247 107.208C154.755 107.748 154.425 108.522 154.257 109.53C154.641 109.05 155.097 108.684 155.625 108.432C156.165 108.18 156.759 108.054 157.407 108.054C157.995 108.054 158.541 108.174 159.045 108.414C159.561 108.642 160.005 108.96 160.377 109.368C160.749 109.776 161.043 110.256 161.259 110.808C161.475 111.36 161.583 111.96 161.583 112.608C161.583 113.268 161.469 113.88 161.241 114.444C161.025 114.996 160.713 115.476 160.305 115.884C159.909 116.292 159.423 116.61 158.847 116.838C158.271 117.066 157.623 117.18 156.903 117.18C155.403 117.18 154.263 116.688 153.483 115.704C152.715 114.708 152.331 113.25 152.331 111.33C152.331 109.29 152.739 107.718 153.555 106.614C154.371 105.51 155.577 104.772 157.173 104.4L160.395 103.662L160.611 105.318L157.245 106.092ZM154.365 112.518C154.365 112.962 154.431 113.37 154.563 113.742C154.695 114.102 154.875 114.42 155.103 114.696C155.343 114.96 155.619 115.17 155.931 115.326C156.255 115.47 156.609 115.542 156.993 115.542C157.365 115.542 157.707 115.47 158.019 115.326C158.343 115.182 158.619 114.984 158.847 114.732C159.075 114.48 159.249 114.174 159.369 113.814C159.501 113.454 159.567 113.058 159.567 112.626C159.567 112.206 159.501 111.822 159.369 111.474C159.237 111.114 159.051 110.808 158.811 110.556C158.583 110.304 158.307 110.112 157.983 109.98C157.659 109.836 157.305 109.764 156.921 109.764C156.537 109.764 156.189 109.83 155.877 109.962C155.565 110.094 155.295 110.286 155.067 110.538C154.851 110.778 154.677 111.066 154.545 111.402C154.425 111.738 154.365 112.11 154.365 112.518ZM165.555 111.33H169.839V107.586H171.783V117H169.839V113.004H165.555V117H163.611V107.586H165.555V111.33ZM178.602 117.18C177.858 117.18 177.186 117.048 176.586 116.784C175.998 116.52 175.494 116.166 175.074 115.722C174.654 115.278 174.33 114.762 174.102 114.174C173.874 113.574 173.76 112.95 173.76 112.302C173.76 111.654 173.874 111.036 174.102 110.448C174.33 109.848 174.654 109.326 175.074 108.882C175.506 108.438 176.016 108.084 176.604 107.82C177.204 107.556 177.87 107.424 178.602 107.424C179.334 107.424 179.994 107.556 180.582 107.82C181.182 108.084 181.692 108.438 182.112 108.882C182.544 109.326 182.874 109.848 183.102 110.448C183.33 111.036 183.444 111.654 183.444 112.302C183.444 112.95 183.33 113.574 183.102 114.174C182.874 114.762 182.544 115.278 182.112 115.722C181.692 116.166 181.182 116.52 180.582 116.784C179.994 117.048 179.334 117.18 178.602 117.18ZM175.794 112.32C175.794 112.776 175.866 113.196 176.01 113.58C176.154 113.964 176.352 114.3 176.604 114.588C176.856 114.864 177.15 115.086 177.486 115.254C177.834 115.41 178.206 115.488 178.602 115.488C178.998 115.488 179.364 115.41 179.7 115.254C180.048 115.086 180.348 114.858 180.6 114.57C180.852 114.282 181.05 113.946 181.194 113.562C181.338 113.178 181.41 112.758 181.41 112.302C181.41 111.858 181.338 111.444 181.194 111.06C181.05 110.664 180.852 110.322 180.6 110.034C180.348 109.746 180.048 109.524 179.7 109.368C179.364 109.2 178.998 109.116 178.602 109.116C178.218 109.116 177.852 109.2 177.504 109.368C177.168 109.536 176.874 109.764 176.622 110.052C176.37 110.34 176.166 110.682 176.01 111.078C175.866 111.462 175.794 111.876 175.794 112.32Z" fill="#2F4152"/>
</svg>
