<svg width="270" height="129" viewBox="0 0 270 129" fill="none" xmlns="http://www.w3.org/2000/svg">
<path d="M0 50C0 22.3858 22.3858 0 50 0H270V79C270 106.614 247.614 129 220 129H0V50Z" fill="#CEEBFB"/>
<path d="M31.476 35.22H41.844V48H39.81V37.002H33.51V48H31.476V35.22ZM46.6722 45.192L51.4962 38.586H53.0082V48H51.0642V41.538L46.3302 48H44.7282V38.586H46.6722V45.192ZM59.7705 48H57.8265V40.296H54.7665V38.586H62.8305V40.296H59.7705V48ZM66.8726 48.18C66.4166 48.18 65.9906 48.108 65.5946 47.964C65.2106 47.808 64.8746 47.598 64.5866 47.334C64.3106 47.07 64.0886 46.758 63.9206 46.398C63.7646 46.038 63.6866 45.648 63.6866 45.228C63.6866 44.784 63.7826 44.382 63.9746 44.022C64.1666 43.662 64.4366 43.35 64.7846 43.086C65.1446 42.822 65.5646 42.618 66.0446 42.474C66.5366 42.33 67.0766 42.258 67.6646 42.258C68.1086 42.258 68.5466 42.3 68.9786 42.384C69.4106 42.456 69.8006 42.558 70.1486 42.69V42.042C70.1486 41.346 69.9506 40.806 69.5546 40.422C69.1586 40.026 68.5886 39.828 67.8446 39.828C67.3406 39.828 66.8426 39.924 66.3506 40.116C65.8706 40.296 65.3726 40.56 64.8566 40.908L64.2446 39.648C65.4566 38.832 66.7166 38.424 68.0246 38.424C69.3206 38.424 70.3286 38.754 71.0486 39.414C71.7686 40.074 72.1286 41.022 72.1286 42.258V45.66C72.1286 46.08 72.3026 46.296 72.6506 46.308V48C72.4586 48.036 72.2906 48.06 72.1466 48.072C72.0146 48.084 71.8826 48.09 71.7506 48.09C71.3666 48.09 71.0666 47.994 70.8506 47.802C70.6466 47.61 70.5206 47.364 70.4726 47.064L70.4186 46.47C69.9986 47.022 69.4766 47.448 68.8526 47.748C68.2406 48.036 67.5806 48.18 66.8726 48.18ZM67.4126 46.722C67.8926 46.722 68.3426 46.638 68.7626 46.47C69.1946 46.29 69.5306 46.044 69.7706 45.732C70.0226 45.516 70.1486 45.288 70.1486 45.048V43.806C69.8126 43.674 69.4526 43.572 69.0686 43.5C68.6966 43.428 68.3306 43.392 67.9706 43.392C67.2626 43.392 66.6806 43.548 66.2246 43.86C65.7806 44.16 65.5586 44.562 65.5586 45.066C65.5586 45.534 65.7326 45.93 66.0806 46.254C66.4286 46.566 66.8726 46.722 67.4126 46.722ZM78.9943 48.18C78.2623 48.18 77.5963 48.054 76.9963 47.802C76.3963 47.538 75.8803 47.184 75.4483 46.74C75.0283 46.296 74.6983 45.78 74.4583 45.192C74.2303 44.604 74.1163 43.98 74.1163 43.32C74.1163 42.66 74.2303 42.036 74.4583 41.448C74.6983 40.848 75.0283 40.326 75.4483 39.882C75.8803 39.426 76.3963 39.072 76.9963 38.82C77.5963 38.556 78.2683 38.424 79.0123 38.424C79.7443 38.424 80.4043 38.556 80.9923 38.82C81.5923 39.084 82.1023 39.438 82.5223 39.882C82.9423 40.314 83.2603 40.824 83.4763 41.412C83.7043 41.988 83.8183 42.594 83.8183 43.23C83.8183 43.374 83.8123 43.512 83.8003 43.644C83.7883 43.764 83.7763 43.866 83.7643 43.95H76.2223C76.2583 44.37 76.3543 44.748 76.5103 45.084C76.6783 45.42 76.8883 45.714 77.1403 45.966C77.4043 46.206 77.6983 46.392 78.0223 46.524C78.3583 46.656 78.7063 46.722 79.0663 46.722C79.3303 46.722 79.5883 46.692 79.8403 46.632C80.1043 46.56 80.3443 46.464 80.5603 46.344C80.7763 46.212 80.9683 46.056 81.1363 45.876C81.3043 45.696 81.4363 45.498 81.5323 45.282L83.2243 45.768C82.9003 46.476 82.3603 47.058 81.6043 47.514C80.8603 47.958 79.9903 48.18 78.9943 48.18ZM81.8563 42.582C81.8203 42.186 81.7183 41.82 81.5503 41.484C81.3943 41.148 81.1903 40.866 80.9383 40.638C80.6863 40.398 80.3923 40.212 80.0563 40.08C79.7203 39.948 79.3663 39.882 78.9943 39.882C78.6223 39.882 78.2683 39.948 77.9323 40.08C77.6083 40.212 77.3203 40.398 77.0683 40.638C76.8163 40.866 76.6123 41.148 76.4563 41.484C76.3003 41.82 76.2043 42.186 76.1683 42.582H81.8563ZM89.3671 48H87.4231V40.296H84.3631V38.586H92.4271V40.296H89.3671V48ZM97.952 48.18C97.22 48.18 96.554 48.054 95.954 47.802C95.354 47.538 94.838 47.184 94.406 46.74C93.986 46.296 93.656 45.78 93.416 45.192C93.188 44.604 93.074 43.98 93.074 43.32C93.074 42.66 93.188 42.036 93.416 41.448C93.656 40.848 93.986 40.326 94.406 39.882C94.838 39.426 95.354 39.072 95.954 38.82C96.554 38.556 97.226 38.424 97.97 38.424C98.702 38.424 99.362 38.556 99.95 38.82C100.55 39.084 101.06 39.438 101.48 39.882C101.9 40.314 102.218 40.824 102.434 41.412C102.662 41.988 102.776 42.594 102.776 43.23C102.776 43.374 102.77 43.512 102.758 43.644C102.746 43.764 102.734 43.866 102.722 43.95H95.18C95.216 44.37 95.312 44.748 95.468 45.084C95.636 45.42 95.846 45.714 96.098 45.966C96.362 46.206 96.656 46.392 96.98 46.524C97.316 46.656 97.664 46.722 98.024 46.722C98.288 46.722 98.546 46.692 98.798 46.632C99.062 46.56 99.302 46.464 99.518 46.344C99.734 46.212 99.926 46.056 100.094 45.876C100.262 45.696 100.394 45.498 100.49 45.282L102.182 45.768C101.858 46.476 101.318 47.058 100.562 47.514C99.818 47.958 98.948 48.18 97.952 48.18ZM100.814 42.582C100.778 42.186 100.676 41.82 100.508 41.484C100.352 41.148 100.148 40.866 99.896 40.638C99.644 40.398 99.35 40.212 99.014 40.08C98.678 39.948 98.324 39.882 97.952 39.882C97.58 39.882 97.226 39.948 96.89 40.08C96.566 40.212 96.278 40.398 96.026 40.638C95.774 40.866 95.57 41.148 95.414 41.484C95.258 41.82 95.162 42.186 95.126 42.582H100.814ZM103.959 43.284C103.959 42.624 104.073 42 104.301 41.412C104.529 40.824 104.853 40.308 105.273 39.864C105.705 39.42 106.221 39.072 106.821 38.82C107.421 38.556 108.093 38.424 108.837 38.424C109.809 38.424 110.643 38.64 111.339 39.072C112.047 39.492 112.575 40.056 112.923 40.764L110.997 41.376C110.769 40.98 110.463 40.674 110.079 40.458C109.695 40.23 109.269 40.116 108.801 40.116C108.405 40.116 108.033 40.194 107.685 40.35C107.349 40.506 107.055 40.728 106.803 41.016C106.551 41.292 106.353 41.622 106.209 42.006C106.065 42.39 105.993 42.816 105.993 43.284C105.993 43.74 106.065 44.166 106.209 44.562C106.365 44.946 106.569 45.282 106.821 45.57C107.085 45.858 107.385 46.086 107.721 46.254C108.069 46.41 108.435 46.488 108.819 46.488C109.059 46.488 109.299 46.458 109.539 46.398C109.779 46.326 109.995 46.23 110.187 46.11C110.391 45.99 110.565 45.852 110.709 45.696C110.865 45.54 110.979 45.372 111.051 45.192L112.995 45.768C112.683 46.476 112.161 47.058 111.429 47.514C110.697 47.958 109.833 48.18 108.837 48.18C108.105 48.18 107.439 48.048 106.839 47.784C106.239 47.52 105.723 47.166 105.291 46.722C104.871 46.266 104.541 45.744 104.301 45.156C104.073 44.568 103.959 43.944 103.959 43.284ZM114.842 38.586H116.786V41.7H118.604C119.06 41.7 119.492 41.766 119.9 41.898C120.32 42.03 120.686 42.234 120.998 42.51C121.322 42.774 121.574 43.104 121.754 43.5C121.946 43.896 122.042 44.352 122.042 44.868C122.042 45.396 121.946 45.858 121.754 46.254C121.574 46.638 121.328 46.962 121.016 47.226C120.704 47.49 120.338 47.688 119.918 47.82C119.51 47.94 119.084 48 118.64 48H114.842V38.586ZM118.514 46.398C118.97 46.398 119.342 46.272 119.63 46.02C119.918 45.768 120.062 45.39 120.062 44.886C120.062 44.37 119.912 43.98 119.612 43.716C119.312 43.44 118.952 43.302 118.532 43.302H116.786V46.398H118.514ZM133.657 38.586C133.993 38.586 134.305 38.646 134.593 38.766C134.893 38.886 135.145 39.054 135.349 39.27C135.565 39.474 135.733 39.72 135.853 40.008C135.973 40.296 136.033 40.602 136.033 40.926C136.033 41.334 135.931 41.748 135.727 42.168C135.523 42.576 135.175 42.882 134.683 43.086C135.223 43.242 135.643 43.518 135.943 43.914C136.255 44.298 136.411 44.796 136.411 45.408C136.411 46.236 136.123 46.878 135.547 47.334C134.971 47.778 134.209 48 133.261 48H128.527V38.586H133.657ZM132.793 42.564C133.189 42.564 133.501 42.456 133.729 42.24C133.969 42.012 134.089 41.688 134.089 41.268C134.089 40.92 133.993 40.626 133.801 40.386C133.609 40.146 133.303 40.026 132.883 40.026H130.471V42.564H132.793ZM133.081 46.56C133.501 46.56 133.831 46.428 134.071 46.164C134.323 45.888 134.449 45.564 134.449 45.192C134.449 44.82 134.329 44.502 134.089 44.238C133.861 43.974 133.537 43.842 133.117 43.842H130.471V46.56H133.081ZM144.097 38.586H146.257L142.567 43.158L146.527 48H144.313L141.235 44.112H140.353V48H138.409V38.586H140.353V42.51H141.091L144.097 38.586ZM148.013 49.926C148.217 50.082 148.415 50.19 148.607 50.25C148.799 50.31 148.991 50.34 149.183 50.34C149.495 50.34 149.771 50.166 150.011 49.818C150.263 49.482 150.503 48.876 150.731 48L146.861 38.586H148.895L151.811 46.254L154.403 38.586H156.275L152.369 49.26C151.985 50.304 151.553 51.03 151.073 51.438C150.605 51.846 150.035 52.05 149.363 52.05C149.075 52.05 148.823 52.02 148.607 51.96C148.391 51.9 148.193 51.792 148.013 51.636V49.926ZM156.982 43.284C156.982 42.624 157.096 42 157.324 41.412C157.552 40.824 157.876 40.308 158.296 39.864C158.728 39.42 159.244 39.072 159.844 38.82C160.444 38.556 161.116 38.424 161.86 38.424C162.832 38.424 163.666 38.64 164.362 39.072C165.07 39.492 165.598 40.056 165.946 40.764L164.02 41.376C163.792 40.98 163.486 40.674 163.102 40.458C162.718 40.23 162.292 40.116 161.824 40.116C161.428 40.116 161.056 40.194 160.708 40.35C160.372 40.506 160.078 40.728 159.826 41.016C159.574 41.292 159.376 41.622 159.232 42.006C159.088 42.39 159.016 42.816 159.016 43.284C159.016 43.74 159.088 44.166 159.232 44.562C159.388 44.946 159.592 45.282 159.844 45.57C160.108 45.858 160.408 46.086 160.744 46.254C161.092 46.41 161.458 46.488 161.842 46.488C162.082 46.488 162.322 46.458 162.562 46.398C162.802 46.326 163.018 46.23 163.21 46.11C163.414 45.99 163.588 45.852 163.732 45.696C163.888 45.54 164.002 45.372 164.074 45.192L166.018 45.768C165.706 46.476 165.184 47.058 164.452 47.514C163.72 47.958 162.856 48.18 161.86 48.18C161.128 48.18 160.462 48.048 159.862 47.784C159.262 47.52 158.746 47.166 158.314 46.722C157.894 46.266 157.564 45.744 157.324 45.156C157.096 44.568 156.982 43.944 156.982 43.284ZM169.809 42.33H174.093V38.586H176.037V48H174.093V44.004H169.809V48H167.865V38.586H169.809V42.33ZM182.856 48.18C182.112 48.18 181.44 48.048 180.84 47.784C180.252 47.52 179.748 47.166 179.328 46.722C178.908 46.278 178.584 45.762 178.356 45.174C178.128 44.574 178.014 43.95 178.014 43.302C178.014 42.654 178.128 42.036 178.356 41.448C178.584 40.848 178.908 40.326 179.328 39.882C179.76 39.438 180.27 39.084 180.858 38.82C181.458 38.556 182.124 38.424 182.856 38.424C183.588 38.424 184.248 38.556 184.836 38.82C185.436 39.084 185.946 39.438 186.366 39.882C186.798 40.326 187.128 40.848 187.356 41.448C187.584 42.036 187.698 42.654 187.698 43.302C187.698 43.95 187.584 44.574 187.356 45.174C187.128 45.762 186.798 46.278 186.366 46.722C185.946 47.166 185.436 47.52 184.836 47.784C184.248 48.048 183.588 48.18 182.856 48.18ZM180.048 43.32C180.048 43.776 180.12 44.196 180.264 44.58C180.408 44.964 180.606 45.3 180.858 45.588C181.11 45.864 181.404 46.086 181.74 46.254C182.088 46.41 182.46 46.488 182.856 46.488C183.252 46.488 183.618 46.41 183.954 46.254C184.302 46.086 184.602 45.858 184.854 45.57C185.106 45.282 185.304 44.946 185.448 44.562C185.592 44.178 185.664 43.758 185.664 43.302C185.664 42.858 185.592 42.444 185.448 42.06C185.304 41.664 185.106 41.322 184.854 41.034C184.602 40.746 184.302 40.524 183.954 40.368C183.618 40.2 183.252 40.116 182.856 40.116C182.472 40.116 182.106 40.2 181.758 40.368C181.422 40.536 181.128 40.764 180.876 41.052C180.624 41.34 180.42 41.682 180.264 42.078C180.12 42.462 180.048 42.876 180.048 43.32ZM189.76 49.746L190.192 47.892H189.544V45.696H191.326V47.892L190.696 49.746H189.76ZM36.57 71.18C35.814 71.18 35.148 71 34.572 70.64C33.996 70.28 33.54 69.812 33.204 69.236V74.834H31.224V61.586H32.97V63.278C33.33 62.714 33.792 62.264 34.356 61.928C34.932 61.592 35.58 61.424 36.3 61.424C36.948 61.424 37.542 61.556 38.082 61.82C38.622 62.084 39.09 62.438 39.486 62.882C39.882 63.326 40.188 63.842 40.404 64.43C40.632 65.018 40.746 65.636 40.746 66.284C40.746 66.968 40.644 67.61 40.44 68.21C40.236 68.798 39.948 69.314 39.576 69.758C39.204 70.19 38.76 70.538 38.244 70.802C37.74 71.054 37.182 71.18 36.57 71.18ZM35.922 69.488C36.342 69.488 36.72 69.398 37.056 69.218C37.404 69.038 37.698 68.798 37.938 68.498C38.19 68.198 38.382 67.856 38.514 67.472C38.646 67.088 38.712 66.692 38.712 66.284C38.712 65.852 38.634 65.444 38.478 65.06C38.334 64.676 38.13 64.34 37.866 64.052C37.614 63.764 37.308 63.536 36.948 63.368C36.588 63.2 36.198 63.116 35.778 63.116C35.526 63.116 35.262 63.164 34.986 63.26C34.71 63.356 34.452 63.488 34.212 63.656C33.972 63.824 33.762 64.022 33.582 64.25C33.402 64.466 33.276 64.706 33.204 64.97V67.436C33.324 67.724 33.48 67.994 33.672 68.246C33.864 68.498 34.074 68.714 34.302 68.894C34.542 69.074 34.8 69.218 35.076 69.326C35.352 69.434 35.634 69.488 35.922 69.488ZM45.2079 71.18C44.7519 71.18 44.3259 71.108 43.9299 70.964C43.5459 70.808 43.2099 70.598 42.9219 70.334C42.6459 70.07 42.4239 69.758 42.2559 69.398C42.0999 69.038 42.0219 68.648 42.0219 68.228C42.0219 67.784 42.1179 67.382 42.3099 67.022C42.5019 66.662 42.7719 66.35 43.1199 66.086C43.4799 65.822 43.8999 65.618 44.3799 65.474C44.8719 65.33 45.4119 65.258 45.9999 65.258C46.4439 65.258 46.8819 65.3 47.3139 65.384C47.7459 65.456 48.1359 65.558 48.4839 65.69V65.042C48.4839 64.346 48.2859 63.806 47.8899 63.422C47.4939 63.026 46.9239 62.828 46.1799 62.828C45.6759 62.828 45.1779 62.924 44.6859 63.116C44.2059 63.296 43.7079 63.56 43.1919 63.908L42.5799 62.648C43.7919 61.832 45.0519 61.424 46.3599 61.424C47.6559 61.424 48.6639 61.754 49.3839 62.414C50.1039 63.074 50.4639 64.022 50.4639 65.258V68.66C50.4639 69.08 50.6379 69.296 50.9859 69.308V71C50.7939 71.036 50.6259 71.06 50.4819 71.072C50.3499 71.084 50.2179 71.09 50.0859 71.09C49.7019 71.09 49.4019 70.994 49.1859 70.802C48.9819 70.61 48.8559 70.364 48.8079 70.064L48.7539 69.47C48.3339 70.022 47.8119 70.448 47.1879 70.748C46.5759 71.036 45.9159 71.18 45.2079 71.18ZM45.7479 69.722C46.2279 69.722 46.6779 69.638 47.0979 69.47C47.5299 69.29 47.8659 69.044 48.1059 68.732C48.3579 68.516 48.4839 68.288 48.4839 68.048V66.806C48.1479 66.674 47.7879 66.572 47.4039 66.5C47.0319 66.428 46.6659 66.392 46.3059 66.392C45.5979 66.392 45.0159 66.548 44.5599 66.86C44.1159 67.16 43.8939 67.562 43.8939 68.066C43.8939 68.534 44.0679 68.93 44.4159 69.254C44.7639 69.566 45.2079 69.722 45.7479 69.722ZM52.5596 62.576C52.9676 62.192 53.4176 61.904 53.9096 61.712C54.4136 61.52 54.9476 61.424 55.5116 61.424C55.9316 61.424 56.3156 61.478 56.6636 61.586C57.0236 61.694 57.3296 61.85 57.5816 62.054C57.8456 62.246 58.0496 62.492 58.1936 62.792C58.3376 63.08 58.4096 63.41 58.4096 63.782C58.4096 64.31 58.2656 64.766 57.9776 65.15C57.7016 65.522 57.3116 65.744 56.8076 65.816C57.4916 65.924 58.0196 66.2 58.3916 66.644C58.7636 67.076 58.9496 67.622 58.9496 68.282C58.9496 68.714 58.8596 69.11 58.6796 69.47C58.5116 69.818 58.2716 70.124 57.9596 70.388C57.6476 70.64 57.2756 70.838 56.8436 70.982C56.4116 71.114 55.9376 71.18 55.4216 71.18C54.0656 71.18 53.0156 70.724 52.2716 69.812L53.2616 68.498C53.7536 69.17 54.4496 69.506 55.3496 69.506C55.8896 69.506 56.3036 69.392 56.5916 69.164C56.8916 68.924 57.0416 68.576 57.0416 68.12C57.0416 67.076 56.2916 66.554 54.7916 66.554H54.1256V65.258H54.7916C55.3676 65.258 55.8176 65.138 56.1416 64.898C56.4656 64.658 56.6276 64.34 56.6276 63.944C56.6276 63.62 56.5076 63.368 56.2676 63.188C56.0396 62.996 55.7276 62.9 55.3316 62.9C54.6836 62.9 54.0596 63.164 53.4596 63.692L52.5596 62.576ZM62.8525 65.33H67.1365V61.586H69.0805V71H67.1365V67.004H62.8525V71H60.9085V61.586H62.8525V65.33ZM75.8997 71.18C75.1557 71.18 74.4837 71.048 73.8837 70.784C73.2957 70.52 72.7917 70.166 72.3717 69.722C71.9517 69.278 71.6277 68.762 71.3997 68.174C71.1717 67.574 71.0577 66.95 71.0577 66.302C71.0577 65.654 71.1717 65.036 71.3997 64.448C71.6277 63.848 71.9517 63.326 72.3717 62.882C72.8037 62.438 73.3137 62.084 73.9017 61.82C74.5017 61.556 75.1677 61.424 75.8997 61.424C76.6317 61.424 77.2917 61.556 77.8797 61.82C78.4797 62.084 78.9897 62.438 79.4097 62.882C79.8417 63.326 80.1717 63.848 80.3997 64.448C80.6277 65.036 80.7417 65.654 80.7417 66.302C80.7417 66.95 80.6277 67.574 80.3997 68.174C80.1717 68.762 79.8417 69.278 79.4097 69.722C78.9897 70.166 78.4797 70.52 77.8797 70.784C77.2917 71.048 76.6317 71.18 75.8997 71.18ZM73.0917 66.32C73.0917 66.776 73.1637 67.196 73.3077 67.58C73.4517 67.964 73.6497 68.3 73.9017 68.588C74.1537 68.864 74.4477 69.086 74.7837 69.254C75.1317 69.41 75.5037 69.488 75.8997 69.488C76.2957 69.488 76.6617 69.41 76.9977 69.254C77.3457 69.086 77.6457 68.858 77.8977 68.57C78.1497 68.282 78.3477 67.946 78.4917 67.562C78.6357 67.178 78.7077 66.758 78.7077 66.302C78.7077 65.858 78.6357 65.444 78.4917 65.06C78.3477 64.664 78.1497 64.322 77.8977 64.034C77.6457 63.746 77.3457 63.524 76.9977 63.368C76.6617 63.2 76.2957 63.116 75.8997 63.116C75.5157 63.116 75.1497 63.2 74.8017 63.368C74.4657 63.536 74.1717 63.764 73.9197 64.052C73.6677 64.34 73.4637 64.682 73.3077 65.078C73.1637 65.462 73.0917 65.876 73.0917 66.32ZM86.9078 71.18C86.1638 71.18 85.4918 71.048 84.8918 70.784C84.3038 70.52 83.7998 70.166 83.3798 69.722C82.9598 69.278 82.6358 68.762 82.4078 68.174C82.1798 67.574 82.0658 66.95 82.0658 66.302C82.0658 65.654 82.1798 65.036 82.4078 64.448C82.6358 63.848 82.9598 63.326 83.3798 62.882C83.8118 62.438 84.3218 62.084 84.9098 61.82C85.5098 61.556 86.1758 61.424 86.9078 61.424C87.6398 61.424 88.2998 61.556 88.8878 61.82C89.4878 62.084 89.9978 62.438 90.4178 62.882C90.8498 63.326 91.1798 63.848 91.4078 64.448C91.6358 65.036 91.7498 65.654 91.7498 66.302C91.7498 66.95 91.6358 67.574 91.4078 68.174C91.1798 68.762 90.8498 69.278 90.4178 69.722C89.9978 70.166 89.4878 70.52 88.8878 70.784C88.2998 71.048 87.6398 71.18 86.9078 71.18ZM84.0998 66.32C84.0998 66.776 84.1718 67.196 84.3158 67.58C84.4598 67.964 84.6578 68.3 84.9098 68.588C85.1618 68.864 85.4558 69.086 85.7918 69.254C86.1398 69.41 86.5118 69.488 86.9078 69.488C87.3038 69.488 87.6698 69.41 88.0058 69.254C88.3538 69.086 88.6538 68.858 88.9058 68.57C89.1578 68.282 89.3558 67.946 89.4998 67.562C89.6438 67.178 89.7158 66.758 89.7158 66.302C89.7158 65.858 89.6438 65.444 89.4998 65.06C89.3558 64.664 89.1578 64.322 88.9058 64.034C88.6538 63.746 88.3538 63.524 88.0058 63.368C87.6698 63.2 87.3038 63.116 86.9078 63.116C86.5238 63.116 86.1578 63.2 85.8098 63.368C85.4738 63.536 85.1798 63.764 84.9278 64.052C84.6758 64.34 84.4718 64.682 84.3158 65.078C84.1718 65.462 84.0998 65.876 84.0998 66.32ZM98.294 60.092C97.454 60.284 96.788 60.656 96.296 61.208C95.804 61.748 95.474 62.522 95.306 63.53C95.69 63.05 96.146 62.684 96.674 62.432C97.214 62.18 97.808 62.054 98.456 62.054C99.044 62.054 99.59 62.174 100.094 62.414C100.61 62.642 101.054 62.96 101.426 63.368C101.798 63.776 102.092 64.256 102.308 64.808C102.524 65.36 102.632 65.96 102.632 66.608C102.632 67.268 102.518 67.88 102.29 68.444C102.074 68.996 101.762 69.476 101.354 69.884C100.958 70.292 100.472 70.61 99.896 70.838C99.32 71.066 98.672 71.18 97.952 71.18C96.452 71.18 95.312 70.688 94.532 69.704C93.764 68.708 93.38 67.25 93.38 65.33C93.38 63.29 93.788 61.718 94.604 60.614C95.42 59.51 96.626 58.772 98.222 58.4L101.444 57.662L101.66 59.318L98.294 60.092ZM95.414 66.518C95.414 66.962 95.48 67.37 95.612 67.742C95.744 68.102 95.924 68.42 96.152 68.696C96.392 68.96 96.668 69.17 96.98 69.326C97.304 69.47 97.658 69.542 98.042 69.542C98.414 69.542 98.756 69.47 99.068 69.326C99.392 69.182 99.668 68.984 99.896 68.732C100.124 68.48 100.298 68.174 100.418 67.814C100.55 67.454 100.616 67.058 100.616 66.626C100.616 66.206 100.55 65.822 100.418 65.474C100.286 65.114 100.1 64.808 99.86 64.556C99.632 64.304 99.356 64.112 99.032 63.98C98.708 63.836 98.354 63.764 97.97 63.764C97.586 63.764 97.238 63.83 96.926 63.962C96.614 64.094 96.344 64.286 96.116 64.538C95.9 64.778 95.726 65.066 95.594 65.402C95.474 65.738 95.414 66.11 95.414 66.518ZM110.006 71.18C109.25 71.18 108.584 71 108.008 70.64C107.432 70.28 106.976 69.812 106.64 69.236V74.834H104.66V61.586H106.406V63.278C106.766 62.714 107.228 62.264 107.792 61.928C108.368 61.592 109.016 61.424 109.736 61.424C110.384 61.424 110.978 61.556 111.518 61.82C112.058 62.084 112.526 62.438 112.922 62.882C113.318 63.326 113.624 63.842 113.84 64.43C114.068 65.018 114.182 65.636 114.182 66.284C114.182 66.968 114.08 67.61 113.876 68.21C113.672 68.798 113.384 69.314 113.012 69.758C112.64 70.19 112.196 70.538 111.68 70.802C111.176 71.054 110.618 71.18 110.006 71.18ZM109.358 69.488C109.778 69.488 110.156 69.398 110.492 69.218C110.84 69.038 111.134 68.798 111.374 68.498C111.626 68.198 111.818 67.856 111.95 67.472C112.082 67.088 112.148 66.692 112.148 66.284C112.148 65.852 112.07 65.444 111.914 65.06C111.77 64.676 111.566 64.34 111.302 64.052C111.05 63.764 110.744 63.536 110.384 63.368C110.024 63.2 109.634 63.116 109.214 63.116C108.962 63.116 108.698 63.164 108.422 63.26C108.146 63.356 107.888 63.488 107.648 63.656C107.408 63.824 107.198 64.022 107.018 64.25C106.838 64.466 106.712 64.706 106.64 64.97V67.436C106.76 67.724 106.916 67.994 107.108 68.246C107.3 68.498 107.51 68.714 107.738 68.894C107.978 69.074 108.236 69.218 108.512 69.326C108.788 69.434 109.07 69.488 109.358 69.488ZM118.644 71.18C118.188 71.18 117.762 71.108 117.366 70.964C116.982 70.808 116.646 70.598 116.358 70.334C116.082 70.07 115.86 69.758 115.692 69.398C115.536 69.038 115.458 68.648 115.458 68.228C115.458 67.784 115.554 67.382 115.746 67.022C115.938 66.662 116.208 66.35 116.556 66.086C116.916 65.822 117.336 65.618 117.816 65.474C118.308 65.33 118.848 65.258 119.436 65.258C119.88 65.258 120.318 65.3 120.75 65.384C121.182 65.456 121.572 65.558 121.92 65.69V65.042C121.92 64.346 121.722 63.806 121.326 63.422C120.93 63.026 120.36 62.828 119.616 62.828C119.112 62.828 118.614 62.924 118.122 63.116C117.642 63.296 117.144 63.56 116.628 63.908L116.016 62.648C117.228 61.832 118.488 61.424 119.796 61.424C121.092 61.424 122.1 61.754 122.82 62.414C123.54 63.074 123.9 64.022 123.9 65.258V68.66C123.9 69.08 124.074 69.296 124.422 69.308V71C124.23 71.036 124.062 71.06 123.918 71.072C123.786 71.084 123.654 71.09 123.522 71.09C123.138 71.09 122.838 70.994 122.622 70.802C122.418 70.61 122.292 70.364 122.244 70.064L122.19 69.47C121.77 70.022 121.248 70.448 120.624 70.748C120.012 71.036 119.352 71.18 118.644 71.18ZM119.184 69.722C119.664 69.722 120.114 69.638 120.534 69.47C120.966 69.29 121.302 69.044 121.542 68.732C121.794 68.516 121.92 68.288 121.92 68.048V66.806C121.584 66.674 121.224 66.572 120.84 66.5C120.468 66.428 120.102 66.392 119.742 66.392C119.034 66.392 118.452 66.548 117.996 66.86C117.552 67.16 117.33 67.562 117.33 68.066C117.33 68.534 117.504 68.93 117.852 69.254C118.2 69.566 118.644 69.722 119.184 69.722ZM125.995 62.576C126.403 62.192 126.853 61.904 127.345 61.712C127.849 61.52 128.383 61.424 128.947 61.424C129.367 61.424 129.751 61.478 130.099 61.586C130.459 61.694 130.765 61.85 131.017 62.054C131.281 62.246 131.485 62.492 131.629 62.792C131.773 63.08 131.845 63.41 131.845 63.782C131.845 64.31 131.701 64.766 131.413 65.15C131.137 65.522 130.747 65.744 130.243 65.816C130.927 65.924 131.455 66.2 131.827 66.644C132.199 67.076 132.385 67.622 132.385 68.282C132.385 68.714 132.295 69.11 132.115 69.47C131.947 69.818 131.707 70.124 131.395 70.388C131.083 70.64 130.711 70.838 130.279 70.982C129.847 71.114 129.373 71.18 128.857 71.18C127.501 71.18 126.451 70.724 125.707 69.812L126.697 68.498C127.189 69.17 127.885 69.506 128.785 69.506C129.325 69.506 129.739 69.392 130.027 69.164C130.327 68.924 130.477 68.576 130.477 68.12C130.477 67.076 129.727 66.554 128.227 66.554H127.561V65.258H128.227C128.803 65.258 129.253 65.138 129.577 64.898C129.901 64.658 130.063 64.34 130.063 63.944C130.063 63.62 129.943 63.368 129.703 63.188C129.475 62.996 129.163 62.9 128.767 62.9C128.119 62.9 127.495 63.164 126.895 63.692L125.995 62.576ZM136.288 65.33H140.572V61.586H142.516V71H140.572V67.004H136.288V71H134.344V61.586H136.288V65.33ZM149.336 71.18C148.592 71.18 147.92 71.048 147.32 70.784C146.732 70.52 146.228 70.166 145.808 69.722C145.388 69.278 145.064 68.762 144.836 68.174C144.608 67.574 144.494 66.95 144.494 66.302C144.494 65.654 144.608 65.036 144.836 64.448C145.064 63.848 145.388 63.326 145.808 62.882C146.24 62.438 146.75 62.084 147.338 61.82C147.938 61.556 148.604 61.424 149.336 61.424C150.068 61.424 150.728 61.556 151.316 61.82C151.916 62.084 152.426 62.438 152.846 62.882C153.278 63.326 153.608 63.848 153.836 64.448C154.064 65.036 154.178 65.654 154.178 66.302C154.178 66.95 154.064 67.574 153.836 68.174C153.608 68.762 153.278 69.278 152.846 69.722C152.426 70.166 151.916 70.52 151.316 70.784C150.728 71.048 150.068 71.18 149.336 71.18ZM146.528 66.32C146.528 66.776 146.6 67.196 146.744 67.58C146.888 67.964 147.086 68.3 147.338 68.588C147.59 68.864 147.884 69.086 148.22 69.254C148.568 69.41 148.94 69.488 149.336 69.488C149.732 69.488 150.098 69.41 150.434 69.254C150.782 69.086 151.082 68.858 151.334 68.57C151.586 68.282 151.784 67.946 151.928 67.562C152.072 67.178 152.144 66.758 152.144 66.302C152.144 65.858 152.072 65.444 151.928 65.06C151.784 64.664 151.586 64.322 151.334 64.034C151.082 63.746 150.782 63.524 150.434 63.368C150.098 63.2 149.732 63.116 149.336 63.116C148.952 63.116 148.586 63.2 148.238 63.368C147.902 63.536 147.608 63.764 147.356 64.052C147.104 64.34 146.9 64.682 146.744 65.078C146.6 65.462 146.528 65.876 146.528 66.32ZM162.721 68.192L167.545 61.586H169.057V71H167.113V64.538L162.379 71H160.777V61.586H162.721V68.192ZM39.126 94H37.182V86.296H33.168V94H31.224V84.586H39.126V94ZM47.1035 94.18C46.3475 94.18 45.6815 94 45.1055 93.64C44.5295 93.28 44.0735 92.812 43.7375 92.236V97.834H41.7575V84.586H43.5035V86.278C43.8635 85.714 44.3255 85.264 44.8895 84.928C45.4655 84.592 46.1135 84.424 46.8335 84.424C47.4815 84.424 48.0755 84.556 48.6155 84.82C49.1555 85.084 49.6235 85.438 50.0195 85.882C50.4155 86.326 50.7215 86.842 50.9375 87.43C51.1655 88.018 51.2795 88.636 51.2795 89.284C51.2795 89.968 51.1775 90.61 50.9735 91.21C50.7695 91.798 50.4815 92.314 50.1095 92.758C49.7375 93.19 49.2935 93.538 48.7775 93.802C48.2735 94.054 47.7155 94.18 47.1035 94.18ZM46.4555 92.488C46.8755 92.488 47.2535 92.398 47.5895 92.218C47.9375 92.038 48.2315 91.798 48.4715 91.498C48.7235 91.198 48.9155 90.856 49.0475 90.472C49.1795 90.088 49.2455 89.692 49.2455 89.284C49.2455 88.852 49.1675 88.444 49.0115 88.06C48.8675 87.676 48.6635 87.34 48.3995 87.052C48.1475 86.764 47.8415 86.536 47.4815 86.368C47.1215 86.2 46.7315 86.116 46.3115 86.116C46.0595 86.116 45.7955 86.164 45.5195 86.26C45.2435 86.356 44.9855 86.488 44.7455 86.656C44.5055 86.824 44.2955 87.022 44.1155 87.25C43.9355 87.466 43.8095 87.706 43.7375 87.97V90.436C43.8575 90.724 44.0135 90.994 44.2055 91.246C44.3975 91.498 44.6075 91.714 44.8355 91.894C45.0755 92.074 45.3335 92.218 45.6095 92.326C45.8855 92.434 46.1675 92.488 46.4555 92.488ZM55.7414 94.18C55.2854 94.18 54.8594 94.108 54.4634 93.964C54.0794 93.808 53.7434 93.598 53.4554 93.334C53.1794 93.07 52.9574 92.758 52.7894 92.398C52.6334 92.038 52.5554 91.648 52.5554 91.228C52.5554 90.784 52.6514 90.382 52.8434 90.022C53.0354 89.662 53.3054 89.35 53.6534 89.086C54.0134 88.822 54.4334 88.618 54.9134 88.474C55.4054 88.33 55.9454 88.258 56.5334 88.258C56.9774 88.258 57.4154 88.3 57.8474 88.384C58.2794 88.456 58.6694 88.558 59.0174 88.69V88.042C59.0174 87.346 58.8194 86.806 58.4234 86.422C58.0274 86.026 57.4574 85.828 56.7134 85.828C56.2094 85.828 55.7114 85.924 55.2194 86.116C54.7394 86.296 54.2414 86.56 53.7254 86.908L53.1134 85.648C54.3254 84.832 55.5854 84.424 56.8934 84.424C58.1894 84.424 59.1974 84.754 59.9174 85.414C60.6374 86.074 60.9974 87.022 60.9974 88.258V91.66C60.9974 92.08 61.1714 92.296 61.5194 92.308V94C61.3274 94.036 61.1594 94.06 61.0154 94.072C60.8834 94.084 60.7514 94.09 60.6194 94.09C60.2354 94.09 59.9354 93.994 59.7194 93.802C59.5154 93.61 59.3894 93.364 59.3414 93.064L59.2874 92.47C58.8674 93.022 58.3454 93.448 57.7214 93.748C57.1094 94.036 56.4494 94.18 55.7414 94.18ZM56.2814 92.722C56.7614 92.722 57.2114 92.638 57.6314 92.47C58.0634 92.29 58.3994 92.044 58.6394 91.732C58.8914 91.516 59.0174 91.288 59.0174 91.048V89.806C58.6814 89.674 58.3214 89.572 57.9374 89.5C57.5654 89.428 57.1994 89.392 56.8394 89.392C56.1314 89.392 55.5494 89.548 55.0934 89.86C54.6494 90.16 54.4274 90.562 54.4274 91.066C54.4274 91.534 54.6014 91.93 54.9494 92.254C55.2974 92.566 55.7414 92.722 56.2814 92.722ZM68.7991 84.586C69.1351 84.586 69.4471 84.646 69.7351 84.766C70.0351 84.886 70.2871 85.054 70.4911 85.27C70.7071 85.474 70.8751 85.72 70.9951 86.008C71.1151 86.296 71.1751 86.602 71.1751 86.926C71.1751 87.334 71.0731 87.748 70.8691 88.168C70.6651 88.576 70.3171 88.882 69.8251 89.086C70.3651 89.242 70.7851 89.518 71.0851 89.914C71.3971 90.298 71.5531 90.796 71.5531 91.408C71.5531 92.236 71.2651 92.878 70.6891 93.334C70.1131 93.778 69.3511 94 68.4031 94H63.6691V84.586H68.7991ZM67.9351 88.564C68.3311 88.564 68.6431 88.456 68.8711 88.24C69.1111 88.012 69.2311 87.688 69.2311 87.268C69.2311 86.92 69.1351 86.626 68.9431 86.386C68.7511 86.146 68.4451 86.026 68.0251 86.026H65.6131V88.564H67.9351ZM68.2231 92.56C68.6431 92.56 68.9731 92.428 69.2131 92.164C69.4651 91.888 69.5911 91.564 69.5911 91.192C69.5911 90.82 69.4711 90.502 69.2311 90.238C69.0031 89.974 68.6791 89.842 68.2591 89.842H65.6131V92.56H68.2231ZM75.4954 91.192L80.3194 84.586H81.8314V94H79.8874V87.538L75.1534 94H73.5514V84.586H75.4954V91.192ZM83.3557 92.344C83.7157 92.32 84.0157 92.242 84.2557 92.11C84.4957 91.966 84.6997 91.714 84.8677 91.354C85.0357 90.994 85.1737 90.496 85.2817 89.86C85.4017 89.224 85.5157 88.39 85.6237 87.358L85.9297 84.586H92.1397V94H90.1777V86.206H87.6937L87.4597 87.934C87.2917 89.146 87.1117 90.142 86.9197 90.922C86.7277 91.702 86.4817 92.326 86.1817 92.794C85.8937 93.25 85.5337 93.574 85.1017 93.766C84.6817 93.958 84.1657 94.066 83.5537 94.09L83.3557 92.344ZM94.7591 84.586H96.7031V87.7H98.5211C98.9771 87.7 99.4091 87.766 99.8171 87.898C100.237 88.03 100.603 88.234 100.915 88.51C101.239 88.774 101.491 89.104 101.671 89.5C101.863 89.896 101.959 90.352 101.959 90.868C101.959 91.396 101.863 91.858 101.671 92.254C101.491 92.638 101.245 92.962 100.933 93.226C100.621 93.49 100.255 93.688 99.8351 93.82C99.4271 93.94 99.0011 94 98.5571 94H94.7591V84.586ZM98.4311 92.398C98.8871 92.398 99.2591 92.272 99.5471 92.02C99.8351 91.768 99.9791 91.39 99.9791 90.886C99.9791 90.37 99.8291 89.98 99.5291 89.716C99.2291 89.44 98.8691 89.302 98.4491 89.302H96.7031V92.398H98.4311ZM105.725 88.33H110.009V84.586H111.953V94H110.009V90.004H105.725V94H103.781V84.586H105.725V88.33ZM118.772 94.18C118.028 94.18 117.356 94.048 116.756 93.784C116.168 93.52 115.664 93.166 115.244 92.722C114.824 92.278 114.5 91.762 114.272 91.174C114.044 90.574 113.93 89.95 113.93 89.302C113.93 88.654 114.044 88.036 114.272 87.448C114.5 86.848 114.824 86.326 115.244 85.882C115.676 85.438 116.186 85.084 116.774 84.82C117.374 84.556 118.04 84.424 118.772 84.424C119.504 84.424 120.164 84.556 120.752 84.82C121.352 85.084 121.862 85.438 122.282 85.882C122.714 86.326 123.044 86.848 123.272 87.448C123.5 88.036 123.614 88.654 123.614 89.302C123.614 89.95 123.5 90.574 123.272 91.174C123.044 91.762 122.714 92.278 122.282 92.722C121.862 93.166 121.352 93.52 120.752 93.784C120.164 94.048 119.504 94.18 118.772 94.18ZM115.964 89.32C115.964 89.776 116.036 90.196 116.18 90.58C116.324 90.964 116.522 91.3 116.774 91.588C117.026 91.864 117.32 92.086 117.656 92.254C118.004 92.41 118.376 92.488 118.772 92.488C119.168 92.488 119.534 92.41 119.87 92.254C120.218 92.086 120.518 91.858 120.77 91.57C121.022 91.282 121.22 90.946 121.364 90.562C121.508 90.178 121.58 89.758 121.58 89.302C121.58 88.858 121.508 88.444 121.364 88.06C121.22 87.664 121.022 87.322 120.77 87.034C120.518 86.746 120.218 86.524 119.87 86.368C119.534 86.2 119.168 86.116 118.772 86.116C118.388 86.116 118.022 86.2 117.674 86.368C117.338 86.536 117.044 86.764 116.792 87.052C116.54 87.34 116.336 87.682 116.18 88.078C116.036 88.462 115.964 88.876 115.964 89.32Z" fill="#2F4152"/>
</svg>
