<svg width="270" height="152" viewBox="0 0 270 152" fill="none" xmlns="http://www.w3.org/2000/svg">
<path d="M0 50C0 22.3858 22.3858 0 50 0H270V102C270 129.614 247.614 152 220 152H0V50Z" fill="#CEEBFB"/>
<path d="M41.25 44.706C41.25 45.222 41.142 45.684 40.926 46.092C40.722 46.5 40.44 46.848 40.08 47.136C39.732 47.412 39.318 47.628 38.838 47.784C38.358 47.928 37.848 48 37.308 48H31.206V35.22H37.794C38.238 35.22 38.64 35.316 39 35.508C39.36 35.7 39.666 35.952 39.918 36.264C40.17 36.564 40.362 36.912 40.494 37.308C40.638 37.692 40.71 38.082 40.71 38.478C40.71 39.102 40.548 39.69 40.224 40.242C39.912 40.782 39.462 41.184 38.874 41.448C39.606 41.664 40.182 42.06 40.602 42.636C41.034 43.2 41.25 43.89 41.25 44.706ZM39.18 44.328C39.18 44.064 39.132 43.812 39.036 43.572C38.952 43.332 38.832 43.122 38.676 42.942C38.532 42.762 38.352 42.618 38.136 42.51C37.92 42.402 37.686 42.348 37.434 42.348H33.222V46.254H37.308C37.572 46.254 37.818 46.206 38.046 46.11C38.274 46.002 38.472 45.864 38.64 45.696C38.808 45.516 38.94 45.312 39.036 45.084C39.132 44.844 39.18 44.592 39.18 44.328ZM33.222 36.966V40.728H36.93C37.182 40.728 37.41 40.68 37.614 40.584C37.83 40.488 38.016 40.362 38.172 40.206C38.34 40.038 38.466 39.84 38.55 39.612C38.646 39.384 38.694 39.132 38.694 38.856C38.694 38.304 38.538 37.854 38.226 37.506C37.914 37.146 37.518 36.966 37.038 36.966H33.222ZM46.0692 48.18C45.6132 48.18 45.1872 48.108 44.7912 47.964C44.4072 47.808 44.0712 47.598 43.7832 47.334C43.5072 47.07 43.2852 46.758 43.1172 46.398C42.9612 46.038 42.8832 45.648 42.8832 45.228C42.8832 44.784 42.9792 44.382 43.1712 44.022C43.3632 43.662 43.6332 43.35 43.9812 43.086C44.3412 42.822 44.7612 42.618 45.2412 42.474C45.7332 42.33 46.2732 42.258 46.8612 42.258C47.3052 42.258 47.7432 42.3 48.1752 42.384C48.6072 42.456 48.9972 42.558 49.3452 42.69V42.042C49.3452 41.346 49.1472 40.806 48.7512 40.422C48.3552 40.026 47.7852 39.828 47.0412 39.828C46.5372 39.828 46.0392 39.924 45.5472 40.116C45.0672 40.296 44.5692 40.56 44.0532 40.908L43.4412 39.648C44.6532 38.832 45.9132 38.424 47.2212 38.424C48.5172 38.424 49.5252 38.754 50.2452 39.414C50.9652 40.074 51.3252 41.022 51.3252 42.258V45.66C51.3252 46.08 51.4992 46.296 51.8472 46.308V48C51.6552 48.036 51.4872 48.06 51.3432 48.072C51.2112 48.084 51.0792 48.09 50.9472 48.09C50.5632 48.09 50.2632 47.994 50.0472 47.802C49.8432 47.61 49.7172 47.364 49.6692 47.064L49.6152 46.47C49.1952 47.022 48.6732 47.448 48.0492 47.748C47.4372 48.036 46.7772 48.18 46.0692 48.18ZM46.6092 46.722C47.0892 46.722 47.5392 46.638 47.9592 46.47C48.3912 46.29 48.7272 46.044 48.9672 45.732C49.2192 45.516 49.3452 45.288 49.3452 45.048V43.806C49.0092 43.674 48.6492 43.572 48.2652 43.5C47.8932 43.428 47.5272 43.392 47.1672 43.392C46.4592 43.392 45.8772 43.548 45.4212 43.86C44.9772 44.16 44.7552 44.562 44.7552 45.066C44.7552 45.534 44.9292 45.93 45.2772 46.254C45.6252 46.566 46.0692 46.722 46.6092 46.722ZM58.965 44.094L61.971 38.586H63.969V48H62.061V41.826L59.487 46.524H58.461L55.869 41.826V48H53.961V38.586H55.977L58.965 44.094ZM70.5831 43.284C70.5831 42.624 70.6971 42 70.9251 41.412C71.1531 40.824 71.4771 40.308 71.8971 39.864C72.3291 39.42 72.8451 39.072 73.4451 38.82C74.0451 38.556 74.7171 38.424 75.4611 38.424C76.4331 38.424 77.2671 38.64 77.9631 39.072C78.6711 39.492 79.1991 40.056 79.5471 40.764L77.6211 41.376C77.3931 40.98 77.0871 40.674 76.7031 40.458C76.3191 40.23 75.8931 40.116 75.4251 40.116C75.0291 40.116 74.6571 40.194 74.3091 40.35C73.9731 40.506 73.6791 40.728 73.4271 41.016C73.1751 41.292 72.9771 41.622 72.8331 42.006C72.6891 42.39 72.6171 42.816 72.6171 43.284C72.6171 43.74 72.6891 44.166 72.8331 44.562C72.9891 44.946 73.1931 45.282 73.4451 45.57C73.7091 45.858 74.0091 46.086 74.3451 46.254C74.6931 46.41 75.0591 46.488 75.4431 46.488C75.6831 46.488 75.9231 46.458 76.1631 46.398C76.4031 46.326 76.6191 46.23 76.8111 46.11C77.0151 45.99 77.1891 45.852 77.3331 45.696C77.4891 45.54 77.6031 45.372 77.6751 45.192L79.6191 45.768C79.3071 46.476 78.7851 47.058 78.0531 47.514C77.3211 47.958 76.4571 48.18 75.4611 48.18C74.7291 48.18 74.0631 48.048 73.4631 47.784C72.8631 47.52 72.3471 47.166 71.9151 46.722C71.4951 46.266 71.1651 45.744 70.9251 45.156C70.6971 44.568 70.5831 43.944 70.5831 43.284ZM85.5878 48H83.6438V40.296H80.5838V38.586H88.6478V40.296H85.5878V48ZM92.6899 48.18C92.2339 48.18 91.8079 48.108 91.4119 47.964C91.0279 47.808 90.6919 47.598 90.4039 47.334C90.1279 47.07 89.9059 46.758 89.7379 46.398C89.5819 46.038 89.5039 45.648 89.5039 45.228C89.5039 44.784 89.5999 44.382 89.7919 44.022C89.9839 43.662 90.2539 43.35 90.6019 43.086C90.9619 42.822 91.3819 42.618 91.8619 42.474C92.3539 42.33 92.8939 42.258 93.4819 42.258C93.9259 42.258 94.3639 42.3 94.7959 42.384C95.2279 42.456 95.6179 42.558 95.9659 42.69V42.042C95.9659 41.346 95.7679 40.806 95.3719 40.422C94.9759 40.026 94.4059 39.828 93.6619 39.828C93.1579 39.828 92.6599 39.924 92.1679 40.116C91.6879 40.296 91.1899 40.56 90.6739 40.908L90.0619 39.648C91.2739 38.832 92.5339 38.424 93.8419 38.424C95.1379 38.424 96.1459 38.754 96.8659 39.414C97.5859 40.074 97.9459 41.022 97.9459 42.258V45.66C97.9459 46.08 98.1199 46.296 98.4679 46.308V48C98.2759 48.036 98.1079 48.06 97.9639 48.072C97.8319 48.084 97.6999 48.09 97.5679 48.09C97.1839 48.09 96.8839 47.994 96.6679 47.802C96.4639 47.61 96.3379 47.364 96.2899 47.064L96.2359 46.47C95.8159 47.022 95.2939 47.448 94.6699 47.748C94.0579 48.036 93.3979 48.18 92.6899 48.18ZM93.2299 46.722C93.7099 46.722 94.1599 46.638 94.5799 46.47C95.0119 46.29 95.3479 46.044 95.5879 45.732C95.8399 45.516 95.9659 45.288 95.9659 45.048V43.806C95.6299 43.674 95.2699 43.572 94.8859 43.5C94.5139 43.428 94.1479 43.392 93.7879 43.392C93.0799 43.392 92.4979 43.548 92.0419 43.86C91.5979 44.16 91.3759 44.562 91.3759 45.066C91.3759 45.534 91.5499 45.93 91.8979 46.254C92.2459 46.566 92.6899 46.722 93.2299 46.722ZM102.526 42.33H106.81V38.586H108.754V48H106.81V44.004H102.526V48H100.582V38.586H102.526V42.33ZM115.573 48.18C114.829 48.18 114.157 48.048 113.557 47.784C112.969 47.52 112.465 47.166 112.045 46.722C111.625 46.278 111.301 45.762 111.073 45.174C110.845 44.574 110.731 43.95 110.731 43.302C110.731 42.654 110.845 42.036 111.073 41.448C111.301 40.848 111.625 40.326 112.045 39.882C112.477 39.438 112.987 39.084 113.575 38.82C114.175 38.556 114.841 38.424 115.573 38.424C116.305 38.424 116.965 38.556 117.553 38.82C118.153 39.084 118.663 39.438 119.083 39.882C119.515 40.326 119.845 40.848 120.073 41.448C120.301 42.036 120.415 42.654 120.415 43.302C120.415 43.95 120.301 44.574 120.073 45.174C119.845 45.762 119.515 46.278 119.083 46.722C118.663 47.166 118.153 47.52 117.553 47.784C116.965 48.048 116.305 48.18 115.573 48.18ZM112.765 43.32C112.765 43.776 112.837 44.196 112.981 44.58C113.125 44.964 113.323 45.3 113.575 45.588C113.827 45.864 114.121 46.086 114.457 46.254C114.805 46.41 115.177 46.488 115.573 46.488C115.969 46.488 116.335 46.41 116.671 46.254C117.019 46.086 117.319 45.858 117.571 45.57C117.823 45.282 118.021 44.946 118.165 44.562C118.309 44.178 118.381 43.758 118.381 43.302C118.381 42.858 118.309 42.444 118.165 42.06C118.021 41.664 117.823 41.322 117.571 41.034C117.319 40.746 117.019 40.524 116.671 40.368C116.335 40.2 115.969 40.116 115.573 40.116C115.189 40.116 114.823 40.2 114.475 40.368C114.139 40.536 113.845 40.764 113.593 41.052C113.341 41.34 113.137 41.682 112.981 42.078C112.837 42.462 112.765 42.876 112.765 43.32ZM127.553 38.586C127.889 38.586 128.201 38.646 128.489 38.766C128.789 38.886 129.041 39.054 129.245 39.27C129.461 39.474 129.629 39.72 129.749 40.008C129.869 40.296 129.929 40.602 129.929 40.926C129.929 41.334 129.827 41.748 129.623 42.168C129.419 42.576 129.071 42.882 128.579 43.086C129.119 43.242 129.539 43.518 129.839 43.914C130.151 44.298 130.307 44.796 130.307 45.408C130.307 46.236 130.019 46.878 129.443 47.334C128.867 47.778 128.105 48 127.157 48H122.423V38.586H127.553ZM126.689 42.564C127.085 42.564 127.397 42.456 127.625 42.24C127.865 42.012 127.985 41.688 127.985 41.268C127.985 40.92 127.889 40.626 127.697 40.386C127.505 40.146 127.199 40.026 126.779 40.026H124.367V42.564H126.689ZM126.977 46.56C127.397 46.56 127.727 46.428 127.967 46.164C128.219 45.888 128.345 45.564 128.345 45.192C128.345 44.82 128.225 44.502 127.985 44.238C127.757 43.974 127.433 43.842 127.013 43.842H124.367V46.56H126.977ZM134.249 45.192L139.073 38.586H140.585V48H138.641V41.538L133.907 48H132.305V38.586H134.249V45.192ZM147.347 48H145.403V40.296H142.343V38.586H150.407V40.296H147.347V48ZM151.054 43.284C151.054 42.624 151.168 42 151.396 41.412C151.624 40.824 151.948 40.308 152.368 39.864C152.8 39.42 153.316 39.072 153.916 38.82C154.516 38.556 155.188 38.424 155.932 38.424C156.904 38.424 157.738 38.64 158.434 39.072C159.142 39.492 159.67 40.056 160.018 40.764L158.092 41.376C157.864 40.98 157.558 40.674 157.174 40.458C156.79 40.23 156.364 40.116 155.896 40.116C155.5 40.116 155.128 40.194 154.78 40.35C154.444 40.506 154.15 40.728 153.898 41.016C153.646 41.292 153.448 41.622 153.304 42.006C153.16 42.39 153.088 42.816 153.088 43.284C153.088 43.74 153.16 44.166 153.304 44.562C153.46 44.946 153.664 45.282 153.916 45.57C154.18 45.858 154.48 46.086 154.816 46.254C155.164 46.41 155.53 46.488 155.914 46.488C156.154 46.488 156.394 46.458 156.634 46.398C156.874 46.326 157.09 46.23 157.282 46.11C157.486 45.99 157.66 45.852 157.804 45.696C157.96 45.54 158.074 45.372 158.146 45.192L160.09 45.768C159.778 46.476 159.256 47.058 158.524 47.514C157.792 47.958 156.928 48.18 155.932 48.18C155.2 48.18 154.534 48.048 153.934 47.784C153.334 47.52 152.818 47.166 152.386 46.722C151.966 46.266 151.636 45.744 151.396 45.156C151.168 44.568 151.054 43.944 151.054 43.284ZM163.467 44.382C162.927 44.178 162.489 43.854 162.153 43.41C161.817 42.966 161.649 42.384 161.649 41.664C161.649 41.196 161.733 40.776 161.901 40.404C162.069 40.02 162.297 39.696 162.585 39.432C162.873 39.156 163.215 38.946 163.611 38.802C164.019 38.646 164.457 38.568 164.925 38.568H168.813V48H166.851V44.706H165.321L163.305 48H161.127L163.467 44.382ZM166.851 43.104V40.206H165.105C164.745 40.206 164.409 40.332 164.097 40.584C163.785 40.836 163.629 41.202 163.629 41.682C163.629 42.138 163.767 42.492 164.043 42.744C164.331 42.984 164.667 43.104 165.051 43.104H166.851ZM174.945 46.344C175.305 46.32 175.605 46.242 175.845 46.11C176.085 45.966 176.289 45.714 176.457 45.354C176.625 44.994 176.763 44.496 176.871 43.86C176.991 43.224 177.105 42.39 177.213 41.358L177.519 38.586H183.729V48H181.767V40.206H179.283L179.049 41.934C178.881 43.146 178.701 44.142 178.509 44.922C178.317 45.702 178.071 46.326 177.771 46.794C177.483 47.25 177.123 47.574 176.691 47.766C176.271 47.958 175.755 48.066 175.143 48.09L174.945 46.344ZM186.438 49.926C186.642 50.082 186.84 50.19 187.032 50.25C187.224 50.31 187.416 50.34 187.608 50.34C187.92 50.34 188.196 50.166 188.436 49.818C188.688 49.482 188.928 48.876 189.156 48L185.286 38.586H187.32L190.236 46.254L192.828 38.586H194.7L190.794 49.26C190.41 50.304 189.978 51.03 189.498 51.438C189.03 51.846 188.46 52.05 187.788 52.05C187.5 52.05 187.248 52.02 187.032 51.96C186.816 51.9 186.618 51.792 186.438 51.636V49.926ZM202.87 48H200.926V44.436C200.65 44.532 200.368 44.604 200.08 44.652C199.792 44.688 199.39 44.706 198.874 44.706C198.322 44.706 197.854 44.616 197.47 44.436C197.086 44.256 196.768 44.016 196.516 43.716C196.276 43.416 196.096 43.068 195.976 42.672C195.868 42.276 195.814 41.862 195.814 41.43V38.586H197.74V41.088C197.74 41.832 197.878 42.348 198.154 42.636C198.442 42.924 198.838 43.068 199.342 43.068C199.762 43.068 200.092 43.032 200.332 42.96C200.584 42.888 200.782 42.792 200.926 42.672V38.586H202.87V48ZM205.499 48V38.586H207.443V46.29H210.287V38.586H212.249V46.29H215.093V38.586H217.037V48H205.499ZM223.901 48.18C223.169 48.18 222.503 48.054 221.903 47.802C221.303 47.538 220.787 47.184 220.355 46.74C219.935 46.296 219.605 45.78 219.365 45.192C219.137 44.604 219.023 43.98 219.023 43.32C219.023 42.66 219.137 42.036 219.365 41.448C219.605 40.848 219.935 40.326 220.355 39.882C220.787 39.426 221.303 39.072 221.903 38.82C222.503 38.556 223.175 38.424 223.919 38.424C224.651 38.424 225.311 38.556 225.899 38.82C226.499 39.084 227.009 39.438 227.429 39.882C227.849 40.314 228.167 40.824 228.383 41.412C228.611 41.988 228.725 42.594 228.725 43.23C228.725 43.374 228.719 43.512 228.707 43.644C228.695 43.764 228.683 43.866 228.671 43.95H221.129C221.165 44.37 221.261 44.748 221.417 45.084C221.585 45.42 221.795 45.714 222.047 45.966C222.311 46.206 222.605 46.392 222.929 46.524C223.265 46.656 223.613 46.722 223.973 46.722C224.237 46.722 224.495 46.692 224.747 46.632C225.011 46.56 225.251 46.464 225.467 46.344C225.683 46.212 225.875 46.056 226.043 45.876C226.211 45.696 226.343 45.498 226.439 45.282L228.131 45.768C227.807 46.476 227.267 47.058 226.511 47.514C225.767 47.958 224.897 48.18 223.901 48.18ZM226.763 42.582C226.727 42.186 226.625 41.82 226.457 41.484C226.301 41.148 226.097 40.866 225.845 40.638C225.593 40.398 225.299 40.212 224.963 40.08C224.627 39.948 224.273 39.882 223.901 39.882C223.529 39.882 223.175 39.948 222.839 40.08C222.515 40.212 222.227 40.398 221.975 40.638C221.723 40.866 221.519 41.148 221.363 41.484C221.207 41.82 221.111 42.186 221.075 42.582H226.763ZM33.168 68.192L37.992 61.586H39.504V71H37.56V64.538L32.826 71H31.224V61.586H33.168V68.192ZM51.9375 61.586C52.2735 61.586 52.5855 61.646 52.8735 61.766C53.1735 61.886 53.4255 62.054 53.6295 62.27C53.8455 62.474 54.0135 62.72 54.1335 63.008C54.2535 63.296 54.3135 63.602 54.3135 63.926C54.3135 64.334 54.2115 64.748 54.0075 65.168C53.8035 65.576 53.4555 65.882 52.9635 66.086C53.5035 66.242 53.9235 66.518 54.2235 66.914C54.5355 67.298 54.6915 67.796 54.6915 68.408C54.6915 69.236 54.4035 69.878 53.8275 70.334C53.2515 70.778 52.4895 71 51.5415 71H46.8075V61.586H51.9375ZM51.0735 65.564C51.4695 65.564 51.7815 65.456 52.0095 65.24C52.2495 65.012 52.3695 64.688 52.3695 64.268C52.3695 63.92 52.2735 63.626 52.0815 63.386C51.8895 63.146 51.5835 63.026 51.1635 63.026H48.7515V65.564H51.0735ZM51.3615 69.56C51.7815 69.56 52.1115 69.428 52.3515 69.164C52.6035 68.888 52.7295 68.564 52.7295 68.192C52.7295 67.82 52.6095 67.502 52.3695 67.238C52.1415 66.974 51.8175 66.842 51.3975 66.842H48.7515V69.56H51.3615ZM60.9198 71.18C60.1878 71.18 59.5218 71.054 58.9218 70.802C58.3218 70.538 57.8058 70.184 57.3738 69.74C56.9538 69.296 56.6238 68.78 56.3838 68.192C56.1558 67.604 56.0418 66.98 56.0418 66.32C56.0418 65.66 56.1558 65.036 56.3838 64.448C56.6238 63.848 56.9538 63.326 57.3738 62.882C57.8058 62.426 58.3218 62.072 58.9218 61.82C59.5218 61.556 60.1938 61.424 60.9378 61.424C61.6698 61.424 62.3298 61.556 62.9178 61.82C63.5178 62.084 64.0278 62.438 64.4478 62.882C64.8678 63.314 65.1858 63.824 65.4018 64.412C65.6298 64.988 65.7438 65.594 65.7438 66.23C65.7438 66.374 65.7378 66.512 65.7258 66.644C65.7138 66.764 65.7018 66.866 65.6898 66.95H58.1478C58.1838 67.37 58.2798 67.748 58.4358 68.084C58.6038 68.42 58.8138 68.714 59.0658 68.966C59.3298 69.206 59.6238 69.392 59.9478 69.524C60.2838 69.656 60.6318 69.722 60.9918 69.722C61.2558 69.722 61.5138 69.692 61.7658 69.632C62.0298 69.56 62.2698 69.464 62.4858 69.344C62.7018 69.212 62.8938 69.056 63.0618 68.876C63.2298 68.696 63.3618 68.498 63.4578 68.282L65.1498 68.768C64.8258 69.476 64.2858 70.058 63.5298 70.514C62.7858 70.958 61.9158 71.18 60.9198 71.18ZM63.7818 65.582C63.7458 65.186 63.6438 64.82 63.4758 64.484C63.3198 64.148 63.1158 63.866 62.8638 63.638C62.6118 63.398 62.3178 63.212 61.9818 63.08C61.6458 62.948 61.2918 62.882 60.9198 62.882C60.5478 62.882 60.1938 62.948 59.8578 63.08C59.5338 63.212 59.2458 63.398 58.9938 63.638C58.7418 63.866 58.5378 64.148 58.3818 64.484C58.2258 64.82 58.1298 65.186 58.0938 65.582H63.7818ZM66.9269 66.284C66.9269 65.624 67.0409 65 67.2689 64.412C67.4969 63.824 67.8209 63.308 68.2409 62.864C68.6729 62.42 69.1889 62.072 69.7889 61.82C70.3889 61.556 71.0609 61.424 71.8049 61.424C72.7769 61.424 73.6109 61.64 74.3069 62.072C75.0149 62.492 75.5429 63.056 75.8909 63.764L73.9649 64.376C73.7369 63.98 73.4309 63.674 73.0469 63.458C72.6629 63.23 72.2369 63.116 71.7689 63.116C71.3729 63.116 71.0009 63.194 70.6529 63.35C70.3169 63.506 70.0229 63.728 69.7709 64.016C69.5189 64.292 69.3209 64.622 69.1769 65.006C69.0329 65.39 68.9609 65.816 68.9609 66.284C68.9609 66.74 69.0329 67.166 69.1769 67.562C69.3329 67.946 69.5369 68.282 69.7889 68.57C70.0529 68.858 70.3529 69.086 70.6889 69.254C71.0369 69.41 71.4029 69.488 71.7869 69.488C72.0269 69.488 72.2669 69.458 72.5069 69.398C72.7469 69.326 72.9629 69.23 73.1549 69.11C73.3589 68.99 73.5329 68.852 73.6769 68.696C73.8329 68.54 73.9469 68.372 74.0189 68.192L75.9629 68.768C75.6509 69.476 75.1289 70.058 74.3969 70.514C73.6649 70.958 72.8009 71.18 71.8049 71.18C71.0729 71.18 70.4069 71.048 69.8069 70.784C69.2069 70.52 68.6909 70.166 68.2589 69.722C67.8389 69.266 67.5089 68.744 67.2689 68.156C67.0409 67.568 66.9269 66.944 66.9269 66.284ZM81.9341 71.18C81.2021 71.18 80.5361 71.054 79.9361 70.802C79.3361 70.538 78.8201 70.184 78.3881 69.74C77.9681 69.296 77.6381 68.78 77.3981 68.192C77.1701 67.604 77.0561 66.98 77.0561 66.32C77.0561 65.66 77.1701 65.036 77.3981 64.448C77.6381 63.848 77.9681 63.326 78.3881 62.882C78.8201 62.426 79.3361 62.072 79.9361 61.82C80.5361 61.556 81.2081 61.424 81.9521 61.424C82.6841 61.424 83.3441 61.556 83.9321 61.82C84.5321 62.084 85.0421 62.438 85.4621 62.882C85.8821 63.314 86.2001 63.824 86.4161 64.412C86.6441 64.988 86.7581 65.594 86.7581 66.23C86.7581 66.374 86.7521 66.512 86.7401 66.644C86.7281 66.764 86.7161 66.866 86.7041 66.95H79.1621C79.1981 67.37 79.2941 67.748 79.4501 68.084C79.6181 68.42 79.8281 68.714 80.0801 68.966C80.3441 69.206 80.6381 69.392 80.9621 69.524C81.2981 69.656 81.6461 69.722 82.0061 69.722C82.2701 69.722 82.5281 69.692 82.7801 69.632C83.0441 69.56 83.2841 69.464 83.5001 69.344C83.7161 69.212 83.9081 69.056 84.0761 68.876C84.2441 68.696 84.3761 68.498 84.4721 68.282L86.1641 68.768C85.8401 69.476 85.3001 70.058 84.5441 70.514C83.8001 70.958 82.9301 71.18 81.9341 71.18ZM84.7961 65.582C84.7601 65.186 84.6581 64.82 84.4901 64.484C84.3341 64.148 84.1301 63.866 83.8781 63.638C83.6261 63.398 83.3321 63.212 82.9961 63.08C82.6601 62.948 82.3061 62.882 81.9341 62.882C81.5621 62.882 81.2081 62.948 80.8721 63.08C80.5481 63.212 80.2601 63.398 80.0081 63.638C79.7561 63.866 79.5521 64.148 79.3961 64.484C79.2401 64.82 79.1441 65.186 79.1081 65.582H84.7961ZM87.2974 69.344C87.6574 69.32 87.9574 69.242 88.1974 69.11C88.4374 68.966 88.6414 68.714 88.8094 68.354C88.9774 67.994 89.1154 67.496 89.2234 66.86C89.3434 66.224 89.4574 65.39 89.5654 64.358L89.8714 61.586H96.0814V71H94.1194V63.206H91.6354L91.4014 64.934C91.2334 66.146 91.0534 67.142 90.8614 67.922C90.6694 68.702 90.4234 69.326 90.1234 69.794C89.8354 70.25 89.4754 70.574 89.0434 70.766C88.6234 70.958 88.1074 71.066 87.4954 71.09L87.2974 69.344ZM102.931 71.18C102.199 71.18 101.533 71.054 100.933 70.802C100.333 70.538 99.8168 70.184 99.3848 69.74C98.9648 69.296 98.6348 68.78 98.3948 68.192C98.1668 67.604 98.0528 66.98 98.0528 66.32C98.0528 65.66 98.1668 65.036 98.3948 64.448C98.6348 63.848 98.9648 63.326 99.3848 62.882C99.8168 62.426 100.333 62.072 100.933 61.82C101.533 61.556 102.205 61.424 102.949 61.424C103.681 61.424 104.341 61.556 104.929 61.82C105.529 62.084 106.039 62.438 106.459 62.882C106.879 63.314 107.197 63.824 107.413 64.412C107.641 64.988 107.755 65.594 107.755 66.23C107.755 66.374 107.749 66.512 107.737 66.644C107.725 66.764 107.713 66.866 107.701 66.95H100.159C100.195 67.37 100.291 67.748 100.447 68.084C100.615 68.42 100.825 68.714 101.077 68.966C101.341 69.206 101.635 69.392 101.959 69.524C102.295 69.656 102.643 69.722 103.003 69.722C103.267 69.722 103.525 69.692 103.777 69.632C104.041 69.56 104.281 69.464 104.497 69.344C104.713 69.212 104.905 69.056 105.073 68.876C105.241 68.696 105.373 68.498 105.469 68.282L107.161 68.768C106.837 69.476 106.297 70.058 105.541 70.514C104.797 70.958 103.927 71.18 102.931 71.18ZM105.793 65.582C105.757 65.186 105.655 64.82 105.487 64.484C105.331 64.148 105.127 63.866 104.875 63.638C104.623 63.398 104.329 63.212 103.993 63.08C103.657 62.948 103.303 62.882 102.931 62.882C102.559 62.882 102.205 62.948 101.869 63.08C101.545 63.212 101.257 63.398 101.005 63.638C100.753 63.866 100.549 64.148 100.393 64.484C100.237 64.82 100.141 65.186 100.105 65.582H105.793ZM113.816 71.18C113.084 71.18 112.418 71.054 111.818 70.802C111.218 70.538 110.702 70.184 110.27 69.74C109.85 69.296 109.52 68.78 109.28 68.192C109.052 67.604 108.938 66.98 108.938 66.32C108.938 65.66 109.052 65.036 109.28 64.448C109.52 63.848 109.85 63.326 110.27 62.882C110.702 62.426 111.218 62.072 111.818 61.82C112.418 61.556 113.09 61.424 113.834 61.424C114.566 61.424 115.226 61.556 115.814 61.82C116.414 62.084 116.924 62.438 117.344 62.882C117.764 63.314 118.082 63.824 118.298 64.412C118.526 64.988 118.64 65.594 118.64 66.23C118.64 66.374 118.634 66.512 118.622 66.644C118.61 66.764 118.598 66.866 118.586 66.95H111.044C111.08 67.37 111.176 67.748 111.332 68.084C111.5 68.42 111.71 68.714 111.962 68.966C112.226 69.206 112.52 69.392 112.844 69.524C113.18 69.656 113.528 69.722 113.888 69.722C114.152 69.722 114.41 69.692 114.662 69.632C114.926 69.56 115.166 69.464 115.382 69.344C115.598 69.212 115.79 69.056 115.958 68.876C116.126 68.696 116.258 68.498 116.354 68.282L118.046 68.768C117.722 69.476 117.182 70.058 116.426 70.514C115.682 70.958 114.812 71.18 113.816 71.18ZM116.678 65.582C116.642 65.186 116.54 64.82 116.372 64.484C116.216 64.148 116.012 63.866 115.76 63.638C115.508 63.398 115.214 63.212 114.878 63.08C114.542 62.948 114.188 62.882 113.816 62.882C113.444 62.882 113.09 62.948 112.754 63.08C112.43 63.212 112.142 63.398 111.89 63.638C111.638 63.866 111.434 64.148 111.278 64.484C111.122 64.82 111.026 65.186 110.99 65.582H116.678ZM126.466 61.586L128.806 65.546H130.03V61.586H132.046V65.546H133.27L135.61 61.586H137.806L134.926 66.158L138.094 71H135.826L133.486 67.112H132.028V71H130.048V67.112H128.608L126.268 71H123.982L127.132 66.158L124.252 61.586H126.466ZM141.531 68.192L146.355 61.586H147.867V71H145.923V64.538L141.189 71H139.587V61.586H141.531V68.192ZM154.629 71H152.685V63.296H149.625V61.586H157.689V63.296H154.629V71ZM159.441 61.586H161.385V64.7H163.203C163.659 64.7 164.091 64.766 164.499 64.898C164.919 65.03 165.285 65.234 165.597 65.51C165.921 65.774 166.173 66.104 166.353 66.5C166.545 66.896 166.641 67.352 166.641 67.868C166.641 68.396 166.545 68.858 166.353 69.254C166.173 69.638 165.927 69.962 165.615 70.226C165.303 70.49 164.937 70.688 164.517 70.82C164.109 70.94 163.683 71 163.239 71H159.441V61.586ZM163.113 69.398C163.569 69.398 163.941 69.272 164.229 69.02C164.517 68.768 164.661 68.39 164.661 67.886C164.661 67.37 164.511 66.98 164.211 66.716C163.911 66.44 163.551 66.302 163.131 66.302H161.385V69.398H163.113Z" fill="#2F4152"/>
</svg>
