<svg width="352" height="148" viewBox="0 0 352 148" fill="none" xmlns="http://www.w3.org/2000/svg">
<g clip-path="url(#clip0)">
<path d="M142.354 1.96748C142.354 1.96748 143.174 4.48151 141.314 8.47117C139.399 12.4608 140.877 25.3589 134.311 36.2895C127.746 47.2201 112.975 58.5879 100.337 62.5775C87.6991 66.5672 81.5716 69.5184 78.1797 72.4697C74.7877 75.421 68.4961 77.2792 67.6208 72.4697C66.8001 67.6056 69.1526 67.1684 69.9733 64.1625C70.7939 60.9379 73.3652 41.5362 78.6721 33.3382C83.9789 25.1403 96.4526 10.8759 108.434 7.70603C120.962 4.37221 126.762 3.49776 130.81 2.07678C134.804 0.49185 139.454 -1.58496 142.354 1.96748Z" fill="#B24D97"/>
<path d="M49.5667 85.9143C54.217 88.7016 57.8278 92.6366 60.3444 97.6646C62.8611 102.693 64.1194 108.431 64.1194 114.88C64.1194 121.22 62.7516 126.959 60.0162 131.987C57.2807 137.069 53.5058 141.004 48.6913 143.792C43.8769 146.579 38.3513 148 32.1691 148C26.0964 148 20.6254 146.634 15.8657 143.901C11.0513 141.168 7.27634 137.397 4.48617 132.588C1.69599 127.778 0.164128 122.258 0 116.083V100.616C0 89.1934 1.64128 80.1211 4.97855 73.3988C8.31582 66.6765 13.5679 61.1565 20.7348 56.8936C27.9018 52.6307 38.406 48.2584 52.138 43.8315L54.9282 52.412C43.0563 56.1831 33.9745 59.7355 27.7376 63.0694C21.5008 66.4032 16.9052 70.5568 13.8962 75.6395C10.8872 80.7222 9.19117 87.4992 8.86292 95.9704C11.5437 91.5435 14.9904 88.1004 19.3124 85.5317C23.5797 83.0177 28.2847 81.706 33.3727 81.706C39.5002 81.706 44.9164 83.127 49.5667 85.9143ZM43.7675 136.304C47.2142 134.173 49.8949 131.276 51.8645 127.56C53.7793 123.843 54.7641 119.635 54.7641 114.935C54.7641 107.666 52.8492 101.764 49.0196 97.1728C45.1899 92.6366 39.9378 90.3412 33.318 90.3412C25.9322 90.3412 20.133 92.5273 15.811 96.8448C11.5437 101.162 9.3553 107.174 9.3553 114.826C9.3553 119.635 10.3401 123.898 12.2549 127.614C14.1697 131.331 16.8505 134.282 20.2972 136.359C23.6891 138.49 27.5735 139.529 31.8956 139.529C36.3817 139.474 40.3208 138.381 43.7675 136.304Z" fill="#319B66"/>
<path d="M137.594 81.1595V145.814H128.184V136.304C125.503 139.966 122.221 142.863 118.391 144.939C114.561 147.016 110.294 148.055 105.644 148.055C99.4616 148.055 93.936 146.579 89.0669 143.628C84.1977 140.676 80.3681 136.577 77.5779 131.331C74.7877 126.084 73.42 120.072 73.42 113.35C73.42 106.737 74.7877 100.78 77.5232 95.5878C80.2587 90.3958 84.0336 86.2968 88.848 83.3456C93.6624 80.3943 99.1881 78.9187 105.37 78.9187C110.075 78.9187 114.397 79.9571 118.282 82.0339C122.221 84.1107 125.503 87.0073 128.184 90.7784V81.1048H137.594V81.1595ZM117.187 136.14C120.634 133.954 123.315 130.839 125.284 126.904C127.199 122.969 128.184 118.487 128.184 113.514C128.184 108.541 127.199 104.059 125.284 100.124C123.37 96.189 120.634 93.0738 117.187 90.8877C113.741 88.7016 109.802 87.5539 105.37 87.5539C101.048 87.5539 97.1638 88.6469 93.7719 90.8877C90.3799 93.0738 87.6991 96.1344 85.7296 100.069C83.8148 104.004 82.83 108.431 82.83 113.405C82.83 118.487 83.8148 122.969 85.7296 126.959C87.6444 130.894 90.3252 134.009 93.7719 136.195C97.1638 138.381 101.048 139.529 105.37 139.529C109.802 139.474 113.741 138.326 117.187 136.14Z" fill="#319B66"/>
<path d="M148.372 81.1594H208.661V89.7399H182.237V127.56C182.237 130.948 183.276 133.681 185.355 135.648C187.434 137.616 190.224 138.6 193.726 138.6H202.042V147.18H193.726C187.27 147.18 182.182 145.377 178.462 141.769C174.742 138.162 172.882 133.189 172.882 126.849V89.6853H148.426V81.1594H148.372Z" fill="#319B66"/>
<path d="M280.933 81.1595V145.814H271.523V136.304C268.842 139.966 265.559 142.863 261.73 144.939C257.9 147.016 253.633 148.055 248.982 148.055C242.8 148.055 237.274 146.579 232.405 143.628C227.536 140.676 223.707 136.577 220.916 131.331C218.126 126.084 216.758 120.072 216.758 113.35C216.758 106.737 218.126 100.78 220.862 95.5878C223.597 90.3958 227.372 86.2968 232.186 83.3456C237.001 80.3943 242.527 78.9187 248.709 78.9187C253.414 78.9187 257.736 79.9571 261.62 82.0339C265.559 84.1107 268.842 87.0073 271.523 90.7784V81.1048H280.933V81.1595ZM260.581 136.14C264.027 133.954 266.708 130.839 268.678 126.904C270.592 122.969 271.577 118.487 271.577 113.514C271.577 108.541 270.592 104.059 268.678 100.124C266.763 96.189 264.027 93.0738 260.581 90.8877C257.134 88.7016 253.195 87.5539 248.763 87.5539C244.441 87.5539 240.557 88.6469 237.165 90.8877C233.773 93.0738 231.092 96.1344 229.123 100.069C227.208 104.004 226.223 108.431 226.223 113.405C226.223 118.487 227.208 122.969 229.123 126.959C231.038 130.894 233.718 134.009 237.165 136.195C240.557 138.381 244.441 139.529 248.763 139.529C253.14 139.474 257.079 138.326 260.581 136.14Z" fill="#319B66"/>
<path d="M291.765 81.1594H352.055V89.7399H325.63V127.56C325.63 130.948 326.67 133.681 328.749 135.648C330.828 137.616 333.618 138.6 337.119 138.6H345.435V147.18H337.119C330.663 147.18 325.575 145.377 321.855 141.769C318.135 138.162 316.275 133.189 316.275 126.849V89.6853H291.82V81.1594H291.765Z" fill="#319B66"/>
</g>
<defs>
<clipPath id="clip0">
<rect width="352" height="148" fill="white"/>
</clipPath>
</defs>
</svg>
